<?xml version="1.0" encoding="UTF-8"?>
<!DOCTYPE svg PUBLIC "-//W3C//DTD SVG 1.1//EN" "http://www.w3.org/Graphics/SVG/1.1/DTD/svg11.dtd">
<svg xmlns="http://www.w3.org/2000/svg" version="1.1" width="500px" height="500px" style="shape-rendering:geometricPrecision; text-rendering:geometricPrecision; image-rendering:optimizeQuality; fill-rule:evenodd; clip-rule:evenodd" xmlns:xlink="http://www.w3.org/1999/xlink">
<g><path style="opacity:0.998" fill="#000000" d="M 71.5,-0.5 C 190.167,-0.5 308.833,-0.5 427.5,-0.5C 468.383,8.2484 492.383,33.2484 499.5,74.5C 499.5,191.833 499.5,309.167 499.5,426.5C 490.331,471.34 462.998,495.673 417.5,499.5C 306.833,499.5 196.167,499.5 85.5,499.5C 43.2166,498.429 15.3832,477.762 2,437.5C 1.23979,433.012 0.406458,428.678 -0.5,424.5C -0.5,307.5 -0.5,190.5 -0.5,73.5C 6.93618,32.7303 30.9362,8.06367 71.5,-0.5 Z M 196.5,278.5 C 192.64,278.808 188.974,279.475 185.5,280.5C 173.184,280.442 161.017,280.442 149,280.5C 148.5,310.165 148.333,339.831 148.5,369.5C 134.167,369.5 119.833,369.5 105.5,369.5C 105.333,291.166 105.5,212.833 106,134.5C 117.69,132.246 129.523,130.746 141.5,130C 158.167,129.333 174.833,129.333 191.5,130C 209.812,131.658 226.478,137.658 241.5,148C 262.549,168.676 269.715,193.509 263,222.5C 256.601,247.232 241.434,264.066 217.5,273C 210.61,275.306 203.61,277.139 196.5,278.5 Z M 393.5,194.5 C 393.5,207.833 393.5,221.167 393.5,234.5C 392.167,234.5 390.833,234.5 389.5,234.5C 377.143,232.338 365.81,234.838 355.5,242C 352.882,244.106 350.882,246.606 349.5,249.5C 348.094,249.973 347.427,250.973 347.5,252.5C 346.094,252.973 345.427,253.973 345.5,255.5C 344.262,257.214 343.595,259.214 343.5,261.5C 342.076,263.515 341.41,265.848 341.5,268.5C 340.507,302.094 340.174,335.76 340.5,369.5C 326.167,369.5 311.833,369.5 297.5,369.5C 297.804,314.819 297.47,260.152 296.5,205.5C 296.5,202.833 296.5,200.167 296.5,197.5C 308.833,197.5 321.167,197.5 333.5,197.5C 333.5,199.833 333.5,202.167 333.5,204.5C 333.255,213.242 333.921,221.908 335.5,230.5C 336.107,230.376 336.44,230.043 336.5,229.5C 343.145,212.026 355.478,200.526 373.5,195C 380.165,193.387 386.832,193.22 393.5,194.5 Z"/></g>
<g><path style="opacity:0.99" fill="#060606" d="M 156.5,162.5 C 169.283,161.908 181.95,162.742 194.5,165C 217.646,174.119 226.479,190.952 221,215.5C 215.563,233.596 203.396,243.763 184.5,246C 172.765,248.062 161.099,247.895 149.5,245.5C 147.953,240.489 147.286,235.322 147.5,230C 148.016,208.539 148.516,187.039 149,165.5C 151.48,164.188 153.98,163.188 156.5,162.5 Z"/></g>
<g><path style="opacity:0.184" fill="#545454" d="M 333.5,197.5 C 321.167,197.5 308.833,197.5 296.5,197.5C 296.5,200.167 296.5,202.833 296.5,205.5C 295.523,202.713 295.19,199.713 295.5,196.5C 308.344,196.171 321.011,196.505 333.5,197.5 Z"/></g>
<g><path style="opacity:0.047" fill="#717171" d="M 393.5,194.5 C 394.496,207.99 394.829,221.656 394.5,235.5C 392.585,235.784 390.919,235.451 389.5,234.5C 390.833,234.5 392.167,234.5 393.5,234.5C 393.5,221.167 393.5,207.833 393.5,194.5 Z"/></g>
<g><path style="opacity:0.41" fill="#777777" d="M 333.5,204.5 C 334.449,212.838 335.449,221.172 336.5,229.5C 336.44,230.043 336.107,230.376 335.5,230.5C 333.921,221.908 333.255,213.242 333.5,204.5 Z"/></g>
<g><path style="opacity:0.239" fill="#7a7a7a" d="M 349.5,249.5 C 349.573,251.027 348.906,252.027 347.5,252.5C 347.427,250.973 348.094,249.973 349.5,249.5 Z"/></g>
<g><path style="opacity:0.145" fill="#a9a9a9" d="M 347.5,252.5 C 347.573,254.027 346.906,255.027 345.5,255.5C 345.427,253.973 346.094,252.973 347.5,252.5 Z"/></g>
<g><path style="opacity:0.204" fill="#8d8d8d" d="M 343.5,261.5 C 343.59,264.152 342.924,266.485 341.5,268.5C 341.41,265.848 342.076,263.515 343.5,261.5 Z"/></g>
<g><path style="opacity:0.537" fill="#6c6c6c" d="M 196.5,278.5 C 193.155,280.217 189.489,280.884 185.5,280.5C 188.974,279.475 192.64,278.808 196.5,278.5 Z"/></g>
</svg>
