<?xml version="1.0" encoding="UTF-8"?>
<!DOCTYPE svg PUBLIC "-//W3C//DTD SVG 1.1//EN" "http://www.w3.org/Graphics/SVG/1.1/DTD/svg11.dtd">
<svg xmlns="http://www.w3.org/2000/svg" version="1.1" width="500px" height="500px" style="shape-rendering:geometricPrecision; text-rendering:geometricPrecision; image-rendering:optimizeQuality; fill-rule:evenodd; clip-rule:evenodd" xmlns:xlink="http://www.w3.org/1999/xlink">
<g><path style="opacity:0.995" fill="#020202" d="M 218.5,0.5 C 219.167,0.5 219.833,0.5 220.5,0.5C 220.833,3.5 222.5,5.16667 225.5,5.5C 225.833,5.5 226.167,5.5 226.5,5.5C 227.167,7.5 227.833,9.5 228.5,11.5C 231.229,12.5304 233.896,12.5304 236.5,11.5C 237.167,11.5 237.833,11.5 238.5,11.5C 238.738,14.0685 240.071,15.7352 242.5,16.5C 243.167,16.5 243.833,16.5 244.5,16.5C 244.5,17.5 244.5,18.5 244.5,19.5C 247.402,20.2522 250.068,21.5855 252.5,23.5C 253.107,23.3764 253.44,23.0431 253.5,22.5C 254.167,22.5 254.833,22.5 255.5,22.5C 255.5,23.5 255.5,24.5 255.5,25.5C 258.192,28.1807 261.525,29.5141 265.5,29.5C 265.833,29.5 266.167,29.5 266.5,29.5C 266.238,30.9778 266.571,32.3112 267.5,33.5C 270.573,34.3981 273.573,35.3981 276.5,36.5C 276.833,36.5 277.167,36.5 277.5,36.5C 277.5,37.5 277.5,38.5 277.5,39.5C 279.806,39.9926 282.139,40.3259 284.5,40.5C 284.402,43.2476 285.402,43.9143 287.5,42.5C 288.167,42.5 288.833,42.5 289.5,42.5C 289.285,44.1788 289.952,45.1788 291.5,45.5C 292.167,45.5 292.833,45.5 293.5,45.5C 293.5,46.8333 294.167,47.5 295.5,47.5C 295.5,48.5 295.5,49.5 295.5,50.5C 298.402,51.2522 301.068,52.5855 303.5,54.5C 304.183,54.1373 304.85,53.8039 305.5,53.5C 305.833,53.5 306.167,53.5 306.5,53.5C 306.5,54.5 306.5,55.5 306.5,56.5C 309.192,59.1807 312.525,60.5141 316.5,60.5C 316.833,60.5 317.167,60.5 317.5,60.5C 317.162,64.1507 318.828,65.8174 322.5,65.5C 323.167,65.5 323.833,65.5 324.5,65.5C 326.322,65.8308 327.989,66.4975 329.5,67.5C 329.746,70.4701 331.412,71.8034 334.5,71.5C 334.833,71.5 335.167,71.5 335.5,71.5C 335.5,72.5 335.5,73.5 335.5,74.5C 336.791,74.7373 337.791,74.404 338.5,73.5C 339.167,73.5 339.833,73.5 340.5,73.5C 339.833,77.5 341.5,79.1667 345.5,78.5C 347.718,78.6138 349.718,79.2804 351.5,80.5C 351.833,83.5 353.5,85.1667 356.5,85.5C 356.833,85.5 357.167,85.5 357.5,85.5C 357.5,86.5 357.5,87.5 357.5,88.5C 359.5,89.1667 361.5,89.8333 363.5,90.5C 363.5,91.5 363.5,92.5 363.5,93.5C 365.199,93.4729 366.533,92.8062 367.5,91.5C 368.167,91.5 368.833,91.5 369.5,91.5C 369.738,94.0685 371.071,95.7352 373.5,96.5C 374.167,96.5 374.833,96.5 375.5,96.5C 375.5,97.5 375.5,98.5 375.5,99.5C 378.06,100.859 380.56,102.526 383,104.5C 384.011,103.944 384.844,103.278 385.5,102.5C 385.833,102.5 386.167,102.5 386.5,102.5C 386.5,103.5 386.5,104.5 386.5,105.5C 387.5,105.5 388.5,105.5 389.5,105.5C 390.167,105.5 390.833,105.5 391.5,105.5C 392.152,106.725 393.319,107.392 395,107.5C 396.681,107.392 397.848,106.725 398.5,105.5C 399.5,105.5 400.5,105.5 401.5,105.5C 401.5,106.5 401.5,107.5 401.5,108.5C 397.958,108.187 394.625,108.521 391.5,109.5C 391.167,109.5 390.833,109.5 390.5,109.5C 390.167,109.5 389.833,109.5 389.5,109.5C 386.612,108.99 384.279,109.656 382.5,111.5C 381.167,111.5 379.833,111.5 378.5,111.5C 375.612,110.99 373.279,111.656 371.5,113.5C 370.833,113.5 370.167,113.5 369.5,113.5C 366.5,113.5 363.5,113.5 360.5,113.5C 360.5,114.5 360.5,115.5 360.5,116.5C 359.833,116.5 359.167,116.5 358.5,116.5C 358.167,116.5 357.833,116.5 357.5,116.5C 354.493,114.825 351.16,114.159 347.5,114.5C 347.5,115.5 347.5,116.5 347.5,117.5C 344.167,117.5 340.833,117.5 337.5,117.5C 337.5,118.5 337.5,119.5 337.5,120.5C 337.167,120.5 336.833,120.5 336.5,120.5C 333.145,120.091 330.145,120.758 327.5,122.5C 326.833,122.5 326.167,122.5 325.5,122.5C 322.833,122.5 320.167,122.5 317.5,122.5C 317.5,123.5 317.5,124.5 317.5,125.5C 316.167,125.5 314.833,125.5 313.5,125.5C 311.052,124.527 308.385,124.194 305.5,124.5C 305.5,125.5 305.5,126.5 305.5,127.5C 305.167,127.5 304.833,127.5 304.5,127.5C 303.833,127.5 303.167,127.5 302.5,127.5C 301.054,126.06 299.221,125.393 297,125.5C 289.056,127.781 281.223,129.781 273.5,131.5C 273.5,132.167 273.5,132.833 273.5,133.5C 272.167,133.5 270.833,133.5 269.5,133.5C 267.167,133.5 264.833,133.5 262.5,133.5C 262.737,134.791 262.404,135.791 261.5,136.5C 261.167,136.5 260.833,136.5 260.5,136.5C 257.545,135.841 254.545,135.508 251.5,135.5C 251.5,136.5 251.5,137.5 251.5,138.5C 250.833,138.5 250.167,138.5 249.5,138.5C 245.821,138.06 242.488,138.727 239.5,140.5C 239.167,140.5 238.833,140.5 238.5,140.5C 234.988,139.945 231.988,140.612 229.5,142.5C 228.833,142.5 228.167,142.5 227.5,142.5C 220.862,143.403 214.196,144.07 207.5,144.5C 203.827,146.318 199.827,146.984 195.5,146.5C 195.5,147.5 195.5,148.5 195.5,149.5C 191.988,148.945 188.988,149.612 186.5,151.5C 185.167,151.5 183.833,151.5 182.5,151.5C 179.612,150.99 177.279,151.656 175.5,153.5C 174.833,153.5 174.167,153.5 173.5,153.5C 170.167,153.5 166.833,153.5 163.5,153.5C 163.5,154.5 163.5,155.5 163.5,156.5C 162.5,156.5 161.5,156.5 160.5,156.5C 159.054,155.06 157.221,154.393 155,154.5C 153.027,154.309 151.527,154.976 150.5,156.5C 147.232,157.487 143.898,157.82 140.5,157.5C 140.5,158.5 140.5,159.5 140.5,160.5C 136.988,159.945 133.988,160.612 131.5,162.5C 130.833,162.5 130.167,162.5 129.5,162.5C 126.5,162.5 123.5,162.5 120.5,162.5C 120.5,163.5 120.5,164.5 120.5,165.5C 119.5,165.5 118.5,165.5 117.5,165.5C 114.57,164.701 111.57,164.368 108.5,164.5C 108.5,165.5 108.5,166.5 108.5,167.5C 108.167,167.5 107.833,167.5 107.5,167.5C 104.612,166.99 102.279,167.656 100.5,169.5C 98.8333,169.5 97.1667,169.5 95.5,169.5C 92.3019,168.964 89.6353,169.631 87.5,171.5C 85.8333,171.5 84.1667,171.5 82.5,171.5C 79.6122,170.99 77.2789,171.656 75.5,173.5C 74.1667,173.5 72.8333,173.5 71.5,173.5C 70.8333,173.5 70.1667,173.5 69.5,173.5C 68.5009,233.331 68.1676,293.331 68.5,353.5C 67.5,353.5 66.5,353.5 65.5,353.5C 64.5,353.5 63.5,353.5 62.5,353.5C 58.646,352.624 54.9793,351.291 51.5,349.5C 50.8166,347.824 49.4832,347.157 47.5,347.5C 46.8333,347.5 46.1667,347.5 45.5,347.5C 45.5983,344.752 44.5983,344.086 42.5,345.5C 41.8333,345.5 41.1667,345.5 40.5,345.5C 40.5,344.5 40.5,343.5 40.5,342.5C 39.1667,342.5 37.8333,342.5 36.5,342.5C 35.8333,342.5 35.1667,342.5 34.5,342.5C 34.1788,340.952 33.1788,340.285 31.5,340.5C 29.2821,340.386 27.2821,339.72 25.5,338.5C 25.5,337.5 25.5,336.5 25.5,335.5C 23.7085,335.366 22.0418,335.699 20.5,336.5C 19.8333,336.5 19.1667,336.5 18.5,336.5C 18.7148,334.821 18.0481,333.821 16.5,333.5C 15.8333,333.5 15.1667,333.5 14.5,333.5C 13.4479,331.744 11.7812,331.077 9.5,331.5C 8.81658,329.824 7.48324,329.157 5.5,329.5C 4.83333,329.5 4.16667,329.5 3.5,329.5C 3.5,328.5 3.5,327.5 3.5,326.5C 2.20895,326.263 1.20895,326.596 0.5,327.5C 0.166667,327.5 -0.166667,327.5 -0.5,327.5C -0.5,326.5 -0.5,325.5 -0.5,324.5C 1.49512,277.845 2.16179,230.845 1.5,183.5C 1.90384,182.244 2.57051,181.077 3.5,180C 3.43007,179.235 3.09674,178.735 2.5,178.5C 3.21119,176.97 4.21119,175.637 5.5,174.5C 8.92582,174.11 10.2592,172.443 9.5,169.5C 10.1667,168.167 10.8333,166.833 11.5,165.5C 14.5,165.167 16.1667,163.5 16.5,160.5C 18.276,155.269 21.276,150.935 25.5,147.5C 29.5758,147.706 30.9092,146.039 29.5,142.5C 30.1667,141.167 30.8333,139.833 31.5,138.5C 34.5,138.167 36.1667,136.5 36.5,133.5C 37.1667,132.167 37.8333,130.833 38.5,129.5C 40.6056,129.321 42.2723,128.321 43.5,126.5C 43.3764,125.893 43.0431,125.56 42.5,125.5C 42.5,124.5 42.5,123.5 42.5,122.5C 43.791,122.737 44.791,122.404 45.5,121.5C 46.4959,121.414 47.3292,121.748 48,122.5C 48.4828,121.552 48.6495,120.552 48.5,119.5C 49.8333,119.5 51.1667,119.5 52.5,119.5C 52.5,118.5 52.5,117.5 52.5,116.5C 52.8333,116.5 53.1667,116.5 53.5,116.5C 55.1667,116.5 56.8333,116.5 58.5,116.5C 58.5,115.5 58.5,114.5 58.5,113.5C 59.8333,113.5 61.1667,113.5 62.5,113.5C 64.0418,114.301 65.7085,114.634 67.5,114.5C 67.5,113.5 67.5,112.5 67.5,111.5C 68.1667,111.5 68.8333,111.5 69.5,111.5C 71.0418,112.301 72.7085,112.634 74.5,112.5C 74.5,111.5 74.5,110.5 74.5,109.5C 75.1667,109.5 75.8333,109.5 76.5,109.5C 78.7812,109.923 80.4479,109.256 81.5,107.5C 82.8333,107.5 84.1667,107.5 85.5,107.5C 87.4832,107.843 88.8166,107.176 89.5,105.5C 90.1667,105.5 90.8333,105.5 91.5,105.5C 93.1667,105.5 94.8333,105.5 96.5,105.5C 96.5,104.5 96.5,103.5 96.5,102.5C 97.8333,102.5 99.1667,102.5 100.5,102.5C 101.919,103.451 103.585,103.784 105.5,103.5C 105.5,102.5 105.5,101.5 105.5,100.5C 106.167,100.5 106.833,100.5 107.5,100.5C 109.781,100.923 111.448,100.256 112.5,98.5C 112.833,98.5 113.167,98.5 113.5,98.5C 115.781,98.9227 117.448,98.256 118.5,96.5C 119.833,96.5 121.167,96.5 122.5,96.5C 124.167,96.5 125.833,96.5 127.5,96.5C 127.5,95.5 127.5,94.5 127.5,93.5C 128.167,93.5 128.833,93.5 129.5,93.5C 131.607,94.4682 133.941,94.8016 136.5,94.5C 136.5,93.5 136.5,92.5 136.5,91.5C 137.167,91.5 137.833,91.5 138.5,91.5C 140.042,92.3007 141.708,92.634 143.5,92.5C 143.5,91.5 143.5,90.5 143.5,89.5C 144.167,89.5 144.833,89.5 145.5,89.5C 147.483,89.8432 148.817,89.1765 149.5,87.5C 150.5,87.5 151.5,87.5 152.5,87.5C 155.082,87.9746 157.082,87.3079 158.5,85.5C 158.833,85.5 159.167,85.5 159.5,85.5C 160.833,85.5 162.167,85.5 163.5,85.5C 172.374,83.0322 181.374,81.0322 190.5,79.5C 190.5,78.5 190.5,77.5 190.5,76.5C 190.833,76.5 191.167,76.5 191.5,76.5C 193.167,76.5 194.833,76.5 196.5,76.5C 196.5,75.5 196.5,74.5 196.5,73.5C 197.167,73.5 197.833,73.5 198.5,73.5C 199.919,74.4511 201.585,74.7845 203.5,74.5C 203.5,73.5 203.5,72.5 203.5,71.5C 204.833,71.5 206.167,71.5 207.5,71.5C 209.821,71.7711 211.821,71.1045 213.5,69.5C 214.5,46.5097 214.833,23.5097 214.5,0.5C 215.833,0.5 217.167,0.5 218.5,0.5 Z"/></g>
<g><path style="opacity:0.101" fill="#8d8d8d" d="M 220.5,0.5 C 221.931,1.0819 223.264,1.91523 224.5,3C 225.252,3.67076 225.586,4.5041 225.5,5.5C 222.5,5.16667 220.833,3.5 220.5,0.5 Z"/></g>
<g><path style="opacity:0.004" fill="#fefffe" d="M 231.5,7.5 C 232.5,7.83333 233.167,8.5 233.5,9.5C 232.167,9.5 231.5,8.83333 231.5,7.5 Z"/></g>
<g><path style="opacity:0.684" fill="#3a3a3a" d="M 226.5,5.5 C 228.322,5.83084 229.989,6.49751 231.5,7.5C 231.5,8.83333 232.167,9.5 233.5,9.5C 235.179,9.28519 236.179,9.95186 236.5,11.5C 233.896,12.5304 231.229,12.5304 228.5,11.5C 227.833,9.5 227.167,7.5 226.5,5.5 Z"/></g>
<g><path style="opacity:0.115" fill="#6d6d6d" d="M 238.5,11.5 C 240.929,12.2648 242.262,13.9315 242.5,16.5C 240.071,15.7352 238.738,14.0685 238.5,11.5 Z"/></g>
<g><path style="opacity:0.244" fill="#4a4a4a" d="M 244.5,16.5 C 246.322,16.8308 247.989,17.4975 249.5,18.5C 249.5,19.8333 250.167,20.5 251.5,20.5C 252.833,20.5 253.5,21.1667 253.5,22.5C 253.44,23.0431 253.107,23.3764 252.5,23.5C 250.068,21.5855 247.402,20.2522 244.5,19.5C 244.5,18.5 244.5,17.5 244.5,16.5 Z"/></g>
<g><path style="opacity:0.026" fill="#cbcccb" d="M 249.5,18.5 C 250.833,18.5 251.5,19.1667 251.5,20.5C 251.5,19.1667 250.833,18.5 249.5,18.5 Z"/></g>
<g><path style="opacity:0.046" fill="#999999" d="M 255.5,22.5 C 256.5,22.5 257.5,22.5 258.5,22.5C 258.5,23.5 258.5,24.5 258.5,25.5C 257.5,25.5 256.5,25.5 255.5,25.5C 255.5,24.5 255.5,23.5 255.5,22.5 Z"/></g>
<g><path style="opacity:0.04" fill="#cfd0cf" d="M 260.5,25.5 C 261.833,25.5 262.5,26.1667 262.5,27.5C 262.5,26.1667 261.833,25.5 260.5,25.5 Z"/></g>
<g><path style="opacity:0.439" fill="#3b3b3b" d="M 255.5,25.5 C 256.5,25.5 257.5,25.5 258.5,25.5C 259.167,25.5 259.833,25.5 260.5,25.5C 260.5,26.8333 261.167,27.5 262.5,27.5C 264.179,27.2852 265.179,27.9519 265.5,29.5C 261.525,29.5141 258.192,28.1807 255.5,25.5 Z"/></g>
<g><path style="opacity:0.026" fill="#c9c9c9" d="M 211.5,-0.5 C 213.833,-0.5 216.167,-0.5 218.5,-0.5C 218.5,-0.166667 218.5,0.166667 218.5,0.5C 217.167,0.5 215.833,0.5 214.5,0.5C 214.833,23.5097 214.5,46.5097 213.5,69.5C 211.821,71.1045 209.821,71.7711 207.5,71.5C 208.183,69.8235 209.517,69.1568 211.5,69.5C 211.5,46.1667 211.5,22.8333 211.5,-0.5 Z"/></g>
<g><path style="opacity:0.635" fill="#555555" d="M 266.5,29.5 C 269.609,30.7079 272.609,32.2079 275.5,34C 276.252,34.6708 276.586,35.5041 276.5,36.5C 273.573,35.3981 270.573,34.3981 267.5,33.5C 266.571,32.3112 266.238,30.9778 266.5,29.5 Z"/></g>
<g><path style="opacity:0.322" fill="#787878" d="M 277.5,36.5 C 280.374,37.0974 282.708,38.4307 284.5,40.5C 282.139,40.3259 279.806,39.9926 277.5,39.5C 277.5,38.5 277.5,37.5 277.5,36.5 Z"/></g>
<g><path style="opacity:0.036" fill="#838383" d="M 284.5,40.5 C 286.179,40.2852 287.179,40.9519 287.5,42.5C 285.402,43.9143 284.402,43.2476 284.5,40.5 Z"/></g>
<g><path style="opacity:0.054" fill="#bdbebd" d="M 289.5,42.5 C 291.048,42.8212 291.715,43.8212 291.5,45.5C 289.952,45.1788 289.285,44.1788 289.5,42.5 Z"/></g>
<g><path style="opacity:0.008" fill="#fefffe" d="M 293.5,45.5 C 294.833,45.5 295.5,46.1667 295.5,47.5C 295.5,46.1667 294.833,45.5 293.5,45.5 Z"/></g>
<g><path style="opacity:0.143" fill="#656565" d="M 295.5,47.5 C 299.484,48.489 302.818,50.489 305.5,53.5C 304.85,53.8039 304.183,54.1373 303.5,54.5C 301.068,52.5855 298.402,51.2522 295.5,50.5C 295.5,49.5 295.5,48.5 295.5,47.5 Z"/></g>
<g><path style="opacity:0.054" fill="#949494" d="M 306.5,53.5 C 308.5,53.5 309.5,54.5 309.5,56.5C 308.5,56.5 307.5,56.5 306.5,56.5C 306.5,55.5 306.5,54.5 306.5,53.5 Z"/></g>
<g><path style="opacity:0.029" fill="#d6d7d6" d="M 311.5,56.5 C 312.833,56.5 313.5,57.1667 313.5,58.5C 313.5,57.1667 312.833,56.5 311.5,56.5 Z"/></g>
<g><path style="opacity:0.404" fill="#3e3e3e" d="M 306.5,56.5 C 307.5,56.5 308.5,56.5 309.5,56.5C 310.167,56.5 310.833,56.5 311.5,56.5C 311.5,57.8333 312.167,58.5 313.5,58.5C 315.179,58.2852 316.179,58.9519 316.5,60.5C 312.525,60.5141 309.192,59.1807 306.5,56.5 Z"/></g>
<g><path style="opacity:0.021" fill="#e9eae9" d="M 322.5,62.5 C 323.906,62.9731 324.573,63.9731 324.5,65.5C 323.833,65.5 323.167,65.5 322.5,65.5C 322.5,64.5 322.5,63.5 322.5,62.5 Z"/></g>
<g><path style="opacity:0.584" fill="#484848" d="M 317.5,60.5 C 319.322,60.8308 320.989,61.4975 322.5,62.5C 322.5,63.5 322.5,64.5 322.5,65.5C 318.828,65.8174 317.162,64.1507 317.5,60.5 Z"/></g>
<g><path style="opacity:0.156" fill="#777777" d="M 329.5,67.5 C 331.461,68.4602 333.127,69.7935 334.5,71.5C 331.412,71.8034 329.746,70.4701 329.5,67.5 Z"/></g>
<g><path style="opacity:0.034" fill="#828282" d="M 335.5,71.5 C 337.179,71.2852 338.179,71.9519 338.5,73.5C 337.791,74.404 336.791,74.7373 335.5,74.5C 335.5,73.5 335.5,72.5 335.5,71.5 Z"/></g>
<g><path style="opacity:0.029" fill="#bcbcbc" d="M 196.5,73.5 C 196.5,74.5 196.5,75.5 196.5,76.5C 194.833,76.5 193.167,76.5 191.5,76.5C 192.048,73.9162 193.715,72.9162 196.5,73.5 Z"/></g>
<g><path style="opacity:0.151" fill="#a7a7a7" d="M 203.5,71.5 C 203.5,72.5 203.5,73.5 203.5,74.5C 201.585,74.7845 199.919,74.4511 198.5,73.5C 199.635,71.7868 201.302,71.1201 203.5,71.5 Z"/></g>
<g><path style="opacity:0.106" fill="#cecece" d="M 187.5,76.5 C 186.448,78.256 184.781,78.9227 182.5,78.5C 183.552,76.744 185.219,76.0773 187.5,76.5 Z"/></g>
<g><path style="opacity:0.1" fill="#6f6f6f" d="M 340.5,73.5 C 342.342,75.0516 344.009,76.7182 345.5,78.5C 341.5,79.1667 339.833,77.5 340.5,73.5 Z"/></g>
<g><path style="opacity:0.057" fill="#d2d2d2" d="M 180.5,78.5 C 179.082,80.3079 177.082,80.9746 174.5,80.5C 175.918,78.6921 177.918,78.0254 180.5,78.5 Z"/></g>
<g><path style="opacity:0.055" fill="#cecece" d="M 172.5,80.5 C 170.721,82.3435 168.388,83.0102 165.5,82.5C 165.611,81.8826 165.944,81.3826 166.5,81C 168.473,80.5045 170.473,80.3379 172.5,80.5 Z"/></g>
<g><path style="opacity:0.098" fill="#595959" d="M 187.5,76.5 C 188.5,76.5 189.5,76.5 190.5,76.5C 190.5,77.5 190.5,78.5 190.5,79.5C 181.374,81.0322 172.374,83.0322 163.5,85.5C 163.5,84.5 163.5,83.5 163.5,82.5C 164.167,82.5 164.833,82.5 165.5,82.5C 168.388,83.0102 170.721,82.3435 172.5,80.5C 173.167,80.5 173.833,80.5 174.5,80.5C 177.082,80.9746 179.082,80.3079 180.5,78.5C 181.167,78.5 181.833,78.5 182.5,78.5C 184.781,78.9227 186.448,78.256 187.5,76.5 Z"/></g>
<g><path style="opacity:0.093" fill="#828282" d="M 351.5,80.5 C 352.931,81.0819 354.264,81.9152 355.5,83C 356.252,83.6708 356.586,84.5041 356.5,85.5C 353.5,85.1667 351.833,83.5 351.5,80.5 Z"/></g>
<g><path style="opacity:0.018" fill="#e0e0e0" d="M 163.5,82.5 C 163.5,83.5 163.5,84.5 163.5,85.5C 162.167,85.5 160.833,85.5 159.5,85.5C 160.262,83.7376 161.596,82.7376 163.5,82.5 Z"/></g>
<g><path style="opacity:0.229" fill="#999999" d="M 158.5,85.5 C 157.082,87.3079 155.082,87.9746 152.5,87.5C 153.99,85.7202 155.99,85.0535 158.5,85.5 Z"/></g>
<g><path style="opacity:0.133" fill="#b9b9b9" d="M 149.5,87.5 C 148.817,89.1765 147.483,89.8432 145.5,89.5C 146.183,87.8235 147.517,87.1568 149.5,87.5 Z"/></g>
<g><path style="opacity:0.021" fill="#dadbda" d="M 362.5,87.5 C 363.833,87.5 364.5,88.1667 364.5,89.5C 364.5,88.1667 363.833,87.5 362.5,87.5 Z"/></g>
<g><path style="opacity:0.167" fill="#808080" d="M 143.5,89.5 C 143.5,90.5 143.5,91.5 143.5,92.5C 141.708,92.634 140.042,92.3007 138.5,91.5C 139.552,89.744 141.219,89.0773 143.5,89.5 Z"/></g>
<g><path style="opacity:0.991" fill="#020202" d="M 483.5,91.5 C 488.833,91.5 494.167,91.5 499.5,91.5C 499.5,194.5 499.5,297.5 499.5,400.5C 498.778,401.551 497.778,402.218 496.5,402.5C 493.714,404.279 490.714,405.612 487.5,406.5C 487.5,407.833 487.5,409.167 487.5,410.5C 486.33,412.279 484.664,413.279 482.5,413.5C 480.989,414.502 479.322,415.169 477.5,415.5C 477.371,417.216 477.038,418.883 476.5,420.5C 474.678,420.831 473.011,421.498 471.5,422.5C 467.919,423.655 465.586,425.988 464.5,429.5C 462.5,430.833 460.5,432.167 458.5,433.5C 455.5,433.833 453.833,435.5 453.5,438.5C 452.167,439.167 450.833,439.833 449.5,440.5C 447.302,440.12 445.635,440.787 444.5,442.5C 443.498,444.011 442.831,445.678 442.5,447.5C 441.486,448.674 440.153,449.34 438.5,449.5C 435.412,449.197 433.746,450.53 433.5,453.5C 431.952,453.821 431.285,454.821 431.5,456.5C 430.167,456.5 429.5,457.167 429.5,458.5C 428.833,458.5 428.167,458.5 427.5,458.5C 424.931,458.738 423.265,460.071 422.5,462.5C 420.952,462.821 420.285,463.821 420.5,465.5C 419.167,466.167 417.833,466.833 416.5,467.5C 412.21,466.766 409.877,468.766 409.5,473.5C 408.764,475.229 407.43,476.229 405.5,476.5C 403.345,475.839 401.345,476.505 399.5,478.5C 398.754,479.736 398.421,481.07 398.5,482.5C 397.021,483.759 395.354,484.759 393.5,485.5C 393.44,484.957 393.107,484.624 392.5,484.5C 389.317,485.823 387.65,488.156 387.5,491.5C 387.167,491.5 386.833,491.5 386.5,491.5C 385.167,491.5 384.5,492.167 384.5,493.5C 383.833,493.5 383.167,493.5 382.5,493.5C 379.5,493.833 377.833,495.5 377.5,498.5C 374.833,498.5 372.167,498.5 369.5,498.5C 368.833,498.5 368.167,498.5 367.5,498.5C 367.5,497.5 367.5,496.5 367.5,495.5C 365.708,495.366 364.042,495.699 362.5,496.5C 362.167,496.5 361.833,496.5 361.5,496.5C 361.5,495.5 361.5,494.5 361.5,493.5C 359.833,493.5 358.167,493.5 356.5,493.5C 353.924,493.532 351.591,492.865 349.5,491.5C 348.817,489.824 347.483,489.157 345.5,489.5C 344.833,489.5 344.167,489.5 343.5,489.5C 343.5,488.5 343.5,487.5 343.5,486.5C 340.979,486.56 338.646,485.894 336.5,484.5C 335.416,484.685 334.416,485.018 333.5,485.5C 332.833,485.5 332.167,485.5 331.5,485.5C 331.5,484.5 331.5,483.5 331.5,482.5C 330.167,482.5 328.833,482.5 327.5,482.5C 326.833,482.5 326.167,482.5 325.5,482.5C 324.448,480.744 322.781,480.077 320.5,480.5C 318.282,480.386 316.282,479.72 314.5,478.5C 314.5,477.5 314.5,476.5 314.5,475.5C 310.528,473.786 306.362,472.119 302,470.5C 300.744,470.648 299.577,470.982 298.5,471.5C 297.833,471.5 297.167,471.5 296.5,471.5C 296.5,470.5 296.5,469.5 296.5,468.5C 294.708,468.366 293.042,468.699 291.5,469.5C 291.167,469.5 290.833,469.5 290.5,469.5C 290.5,468.5 290.5,467.5 290.5,466.5C 289.167,466.5 287.833,466.5 286.5,466.5C 286.5,465.5 286.5,464.5 286.5,463.5C 283.512,463.561 280.679,462.895 278,461.5C 276.93,461.528 276.097,461.861 275.5,462.5C 274.833,462.5 274.167,462.5 273.5,462.5C 273.167,462.5 272.833,462.5 272.5,462.5C 271.448,460.744 269.781,460.077 267.5,460.5C 265.114,460.741 263.114,460.075 261.5,458.5C 261.5,457.5 261.5,456.5 261.5,455.5C 259.585,455.216 257.919,455.549 256.5,456.5C 255.833,456.5 255.167,456.5 254.5,456.5C 254.5,455.5 254.5,454.5 254.5,453.5C 252.833,453.5 251.167,453.5 249.5,453.5C 248.817,451.824 247.483,451.157 245.5,451.5C 244.833,451.5 244.167,451.5 243.5,451.5C 243.5,450.5 243.5,449.5 243.5,448.5C 241.708,448.366 240.042,448.699 238.5,449.5C 238.167,449.5 237.833,449.5 237.5,449.5C 237.5,448.5 237.5,447.5 237.5,446.5C 234.86,446.447 232.36,445.78 230,444.5C 228.93,444.528 228.097,444.861 227.5,445.5C 226.833,445.5 226.167,445.5 225.5,445.5C 225.5,444.5 225.5,443.5 225.5,442.5C 223.833,442.5 222.167,442.5 220.5,442.5C 218.282,442.386 216.282,441.72 214.5,440.5C 214.5,439.5 214.5,438.5 214.5,437.5C 212.708,437.366 211.042,437.699 209.5,438.5C 208.833,438.5 208.167,438.5 207.5,438.5C 207.5,437.5 207.5,436.5 207.5,435.5C 205.708,435.366 204.042,435.699 202.5,436.5C 202.167,436.5 201.833,436.5 201.5,436.5C 201.5,435.5 201.5,434.5 201.5,433.5C 200.5,433.5 199.5,433.5 198.5,433.5C 195.248,433.71 192.248,433.044 189.5,431.5C 188.817,429.824 187.483,429.157 185.5,429.5C 184.833,429.5 184.167,429.5 183.5,429.5C 183.5,428.5 183.5,427.5 183.5,426.5C 180.266,425.424 176.932,424.757 173.5,424.5C 173.5,448.167 173.5,471.833 173.5,495.5C 172.167,495.5 170.833,495.5 169.5,495.5C 168.833,494.167 168.167,492.833 167.5,491.5C 167.5,490.167 166.833,489.5 165.5,489.5C 165.5,489.167 165.5,488.833 165.5,488.5C 166.152,484.44 164.485,482.44 160.5,482.5C 160.5,481.167 159.833,480.5 158.5,480.5C 157.833,479.167 157.167,477.833 156.5,476.5C 156.167,473.5 154.5,471.833 151.5,471.5C 151.5,470.833 151.5,470.167 151.5,469.5C 152.776,468.614 152.776,467.614 151.5,466.5C 150.476,465.147 149.143,464.48 147.5,464.5C 146.833,463.167 146.167,461.833 145.5,460.5C 145.167,457.5 143.5,455.833 140.5,455.5C 139.167,453.5 137.833,451.5 136.5,449.5C 136.5,448.167 135.833,447.5 134.5,447.5C 133.662,447.158 133.328,446.492 133.5,445.5C 133.804,444.85 134.137,444.183 134.5,443.5C 133.147,442.476 132.48,441.143 132.5,439.5C 131.5,439.5 130.5,439.5 129.5,439.5C 127.37,438.036 126.037,436.036 125.5,433.5C 125.179,431.952 124.179,431.285 122.5,431.5C 120.746,429.411 119.413,427.078 118.5,424.5C 118.5,423.167 117.833,422.5 116.5,422.5C 116.5,421.833 116.5,421.167 116.5,420.5C 116.817,416.828 115.151,415.162 111.5,415.5C 110.17,413.508 108.836,411.508 107.5,409.5C 107.5,408.167 106.833,407.5 105.5,407.5C 105.5,406.833 105.5,406.167 105.5,405.5C 104.874,402.393 103.208,400.06 100.5,398.5C 99.8333,398.5 99.1667,398.5 98.5,398.5C 98.5,397.833 98.5,397.167 98.5,396.5C 98.1391,392.806 96.1391,390.473 92.5,389.5C 91.6618,389.158 91.3284,388.492 91.5,387.5C 91.2623,384.931 89.929,383.265 87.5,382.5C 86.8333,381.167 86.1667,379.833 85.5,378.5C 85.1667,375.5 83.5,373.833 80.5,373.5C 80.5,372.833 80.5,372.167 80.5,371.5C 79.962,369.883 79.6287,368.216 79.5,366.5C 78.5,366.5 77.5,366.5 76.5,366.5C 74.7706,365.764 73.7706,364.43 73.5,362.5C 74.0967,362.265 74.4301,361.765 74.5,361C 73.2927,359.7 72.6261,358.2 72.5,356.5C 76.5,356.5 80.5,356.5 84.5,356.5C 88.1667,356.5 91.8333,356.5 95.5,356.5C 97.6353,358.369 100.302,359.036 103.5,358.5C 106.833,358.5 110.167,358.5 113.5,358.5C 115.833,358.5 118.167,358.5 120.5,358.5C 120.414,359.496 120.748,360.329 121.5,361C 127.016,361.817 132.35,361.651 137.5,360.5C 139.167,360.5 140.833,360.5 142.5,360.5C 144.833,360.5 147.167,360.5 149.5,360.5C 149.414,361.496 149.748,362.329 150.5,363C 156.349,363.818 162.015,363.652 167.5,362.5C 168.167,362.5 168.833,362.5 169.5,362.5C 171.5,362.5 173.5,362.5 175.5,362.5C 175.5,363.5 175.5,364.5 175.5,365.5C 178.167,365.5 180.833,365.5 183.5,365.5C 187.833,365.5 192.167,365.5 196.5,365.5C 199.5,365.5 202.5,365.5 205.5,365.5C 207.635,367.369 210.302,368.036 213.5,367.5C 217.167,367.5 220.833,367.5 224.5,367.5C 226.5,367.5 228.5,367.5 230.5,367.5C 230.414,368.496 230.748,369.329 231.5,370C 237.349,370.818 243.015,370.652 248.5,369.5C 249.833,369.5 251.167,369.5 252.5,369.5C 254.5,369.5 256.5,369.5 258.5,369.5C 258.414,370.496 258.748,371.329 259.5,372C 265.016,372.817 270.35,372.651 275.5,371.5C 276.5,371.5 277.5,371.5 278.5,371.5C 281.833,371.5 285.167,371.5 288.5,371.5C 288.5,372.5 288.5,373.5 288.5,374.5C 294.69,374.823 300.69,374.49 306.5,373.5C 306.833,373.5 307.167,373.5 307.5,373.5C 309.5,373.5 311.5,373.5 313.5,373.5C 313.5,374.5 313.5,375.5 313.5,376.5C 316.5,376.5 319.5,376.5 322.5,376.5C 326.167,376.5 329.833,376.5 333.5,376.5C 336.167,376.5 338.833,376.5 341.5,376.5C 343.635,378.369 346.302,379.036 349.5,378.5C 353.167,378.5 356.833,378.5 360.5,378.5C 363.167,378.5 365.833,378.5 368.5,378.5C 370.635,380.369 373.302,381.036 376.5,380.5C 380.167,380.5 383.833,380.5 387.5,380.5C 388.167,380.5 388.833,380.5 389.5,380.5C 391.497,290.506 392.164,200.173 391.5,109.5C 394.625,108.521 397.958,108.187 401.5,108.5C 401.5,107.5 401.5,106.5 401.5,105.5C 403.5,105.5 405.5,105.5 407.5,105.5C 409.167,105.5 410.833,105.5 412.5,105.5C 412.5,104.5 412.5,103.5 412.5,102.5C 415.167,102.5 417.833,102.5 420.5,102.5C 423.391,103.403 426.391,103.736 429.5,103.5C 429.5,102.5 429.5,101.5 429.5,100.5C 431.167,100.5 432.833,100.5 434.5,100.5C 437.082,100.975 439.082,100.308 440.5,98.5C 442.833,98.5 445.167,98.5 447.5,98.5C 447.833,98.5 448.167,98.5 448.5,98.5C 450.948,99.4731 453.615,99.8064 456.5,99.5C 456.5,98.5 456.5,97.5 456.5,96.5C 457.833,96.5 459.167,96.5 460.5,96.5C 463.5,96.5 466.5,96.5 469.5,96.5C 469.5,95.5 469.5,94.5 469.5,93.5C 471.833,93.5 474.167,93.5 476.5,93.5C 478.607,94.4682 480.941,94.8016 483.5,94.5C 483.5,93.5 483.5,92.5 483.5,91.5 Z"/></g>
<g><path style="opacity:0.788" fill="#3a3a3a" d="M 357.5,85.5 C 359.322,85.8308 360.989,86.4975 362.5,87.5C 362.5,88.8333 363.167,89.5 364.5,89.5C 366.179,89.2852 367.179,89.9519 367.5,91.5C 366.533,92.8062 365.199,93.4729 363.5,93.5C 363.5,92.5 363.5,91.5 363.5,90.5C 361.5,89.8333 359.5,89.1667 357.5,88.5C 357.5,87.5 357.5,86.5 357.5,85.5 Z"/></g>
<g><path style="opacity:0.116" fill="#9f9f9f" d="M 127.5,93.5 C 127.5,94.5 127.5,95.5 127.5,96.5C 125.833,96.5 124.167,96.5 122.5,96.5C 123.3,94.2591 124.966,93.2591 127.5,93.5 Z"/></g>
<g><path style="opacity:0.188" fill="#959595" d="M 136.5,91.5 C 136.5,92.5 136.5,93.5 136.5,94.5C 133.941,94.8016 131.607,94.4682 129.5,93.5C 131.279,91.6565 133.612,90.9898 136.5,91.5 Z"/></g>
<g><path style="opacity:0.134" fill="#616161" d="M 369.5,91.5 C 371.929,92.2648 373.262,93.9315 373.5,96.5C 371.071,95.7352 369.738,94.0685 369.5,91.5 Z"/></g>
<g><path style="opacity:0.086" fill="#898989" d="M 483.5,91.5 C 483.5,92.5 483.5,93.5 483.5,94.5C 480.941,94.8016 478.607,94.4682 476.5,93.5C 478.279,91.6565 480.612,90.9898 483.5,91.5 Z"/></g>
<g><path style="opacity:0.047" fill="#9b9b9b" d="M 469.5,93.5 C 469.5,94.5 469.5,95.5 469.5,96.5C 466.5,96.5 463.5,96.5 460.5,96.5C 460.611,95.8826 460.944,95.3826 461.5,95C 464.168,94.433 466.834,93.933 469.5,93.5 Z"/></g>
<g><path style="opacity:0.102" fill="#c2c2c2" d="M 118.5,96.5 C 117.448,98.256 115.781,98.9227 113.5,98.5C 114.635,96.7868 116.302,96.1201 118.5,96.5 Z"/></g>
<g><path style="opacity:0.063" fill="#c2c2c2" d="M 452.5,96.5 C 451.817,98.1765 450.483,98.8432 448.5,98.5C 448.167,98.5 447.833,98.5 447.5,98.5C 448.552,96.744 450.219,96.0773 452.5,96.5 Z"/></g>
<g><path style="opacity:0.133" fill="#939393" d="M 112.5,98.5 C 111.448,100.256 109.781,100.923 107.5,100.5C 108.552,98.744 110.219,98.0773 112.5,98.5 Z"/></g>
<g><path style="opacity:0.448" fill="#393939" d="M 375.5,96.5 C 379.484,97.489 382.818,99.489 385.5,102.5C 384.844,103.278 384.011,103.944 383,104.5C 380.56,102.526 378.06,100.859 375.5,99.5C 375.5,98.5 375.5,97.5 375.5,96.5 Z"/></g>
<g><path style="opacity:0.055" fill="#adadad" d="M 440.5,98.5 C 439.082,100.308 437.082,100.975 434.5,100.5C 435.918,98.6921 437.918,98.0254 440.5,98.5 Z"/></g>
<g><path style="opacity:0.378" fill="#3c3c3c" d="M 452.5,96.5 C 453.833,96.5 455.167,96.5 456.5,96.5C 456.5,97.5 456.5,98.5 456.5,99.5C 453.615,99.8064 450.948,99.4731 448.5,98.5C 450.483,98.8432 451.817,98.1765 452.5,96.5 Z"/></g>
<g><path style="opacity:0.014" fill="#bcbcbc" d="M 96.5,102.5 C 96.5,103.5 96.5,104.5 96.5,105.5C 94.8333,105.5 93.1667,105.5 91.5,105.5C 92.0483,102.916 93.715,101.916 96.5,102.5 Z"/></g>
<g><path style="opacity:0.318" fill="#7a7a7a" d="M 105.5,100.5 C 105.5,101.5 105.5,102.5 105.5,103.5C 103.585,103.784 101.919,103.451 100.5,102.5C 101.552,100.744 103.219,100.077 105.5,100.5 Z"/></g>
<g><path style="opacity:0.052" fill="#888888" d="M 386.5,102.5 C 387.5,102.5 388.5,102.5 389.5,102.5C 389.5,103.5 389.5,104.5 389.5,105.5C 389.5,104.5 389.5,103.5 389.5,102.5C 388.5,102.5 387.5,102.5 386.5,102.5 Z"/></g>
<g><path style="opacity:0.016" fill="#b1b1b1" d="M 412.5,102.5 C 412.5,103.5 412.5,104.5 412.5,105.5C 410.833,105.5 409.167,105.5 407.5,105.5C 408.048,102.916 409.715,101.916 412.5,102.5 Z"/></g>
<g><path style="opacity:0.18" fill="#797979" d="M 429.5,100.5 C 429.5,101.5 429.5,102.5 429.5,103.5C 426.391,103.736 423.391,103.403 420.5,102.5C 422.988,100.612 425.988,99.9455 429.5,100.5 Z"/></g>
<g><path style="opacity:0.163" fill="#8f8f8f" d="M 89.5,105.5 C 88.8166,107.176 87.4832,107.843 85.5,107.5C 86.1834,105.824 87.5168,105.157 89.5,105.5 Z"/></g>
<g><path style="opacity:0.096" fill="#c2c2c2" d="M 391.5,105.5 C 393.833,105.5 396.167,105.5 398.5,105.5C 397.848,106.725 396.681,107.392 395,107.5C 393.319,107.392 392.152,106.725 391.5,105.5 Z"/></g>
<g><path style="opacity:0.106" fill="#909090" d="M 81.5,107.5 C 80.4479,109.256 78.7812,109.923 76.5,109.5C 77.6354,107.787 79.302,107.12 81.5,107.5 Z"/></g>
<g><path style="opacity:0.125" fill="#808080" d="M 74.5,109.5 C 74.5,110.5 74.5,111.5 74.5,112.5C 72.7085,112.634 71.0418,112.301 69.5,111.5C 70.5521,109.744 72.2188,109.077 74.5,109.5 Z"/></g>
<g><path style="opacity:0.069" fill="#9c9c9c" d="M 389.5,109.5 C 389.5,110.167 389.5,110.833 389.5,111.5C 387.167,111.5 384.833,111.5 382.5,111.5C 384.279,109.656 386.612,108.99 389.5,109.5 Z"/></g>
<g><path style="opacity:0.216" fill="#616161" d="M 67.5,111.5 C 67.5,112.5 67.5,113.5 67.5,114.5C 65.7085,114.634 64.0418,114.301 62.5,113.5C 63.6354,111.787 65.302,111.12 67.5,111.5 Z"/></g>
<g><path style="opacity:0.125" fill="#9b9b9b" d="M 378.5,111.5 C 376.721,113.344 374.388,114.01 371.5,113.5C 373.279,111.656 375.612,110.99 378.5,111.5 Z"/></g>
<g><path style="opacity:0.114" fill="#9b9b9b" d="M 58.5,113.5 C 58.5,114.5 58.5,115.5 58.5,116.5C 56.8333,116.5 55.1667,116.5 53.5,116.5C 54.4006,114.273 56.0672,113.273 58.5,113.5 Z"/></g>
<g><path style="opacity:0.012" fill="#b8b8b8" d="M 369.5,113.5 C 369.423,114.75 368.756,115.583 367.5,116C 365.19,116.497 362.857,116.663 360.5,116.5C 360.5,115.5 360.5,114.5 360.5,113.5C 363.5,113.5 366.5,113.5 369.5,113.5 Z"/></g>
<g><path style="opacity:0.486" fill="#343434" d="M 357.5,116.5 C 354.918,116.025 352.918,116.692 351.5,118.5C 350.167,118.5 348.833,118.5 347.5,118.5C 344.612,117.99 342.279,118.656 340.5,120.5C 339.5,120.5 338.5,120.5 337.5,120.5C 337.5,119.5 337.5,118.5 337.5,117.5C 340.833,117.5 344.167,117.5 347.5,117.5C 347.5,116.5 347.5,115.5 347.5,114.5C 351.16,114.159 354.493,114.825 357.5,116.5 Z"/></g>
<g><path style="opacity:0.047" fill="#c3c3c3" d="M 357.5,116.5 C 357.833,116.5 358.167,116.5 358.5,116.5C 358.389,117.117 358.056,117.617 357.5,118C 355.527,118.495 353.527,118.662 351.5,118.5C 352.918,116.692 354.918,116.025 357.5,116.5 Z"/></g>
<g><path style="opacity:0.051" fill="#abacab" d="M 47.5,118.5 C 47.5,119.833 46.8333,120.5 45.5,120.5C 45.5,119.167 46.1667,118.5 47.5,118.5 Z"/></g>
<g><path style="opacity:0.398" fill="#404040" d="M 52.5,116.5 C 52.5,117.5 52.5,118.5 52.5,119.5C 51.1667,119.5 49.8333,119.5 48.5,119.5C 48.6495,120.552 48.4828,121.552 48,122.5C 47.3292,121.748 46.4959,121.414 45.5,121.5C 45.5,121.167 45.5,120.833 45.5,120.5C 46.8333,120.5 47.5,119.833 47.5,118.5C 48.5521,116.744 50.2188,116.077 52.5,116.5 Z"/></g>
<g><path style="opacity:0.055" fill="#c2c2c2" d="M 347.5,118.5 C 347.389,119.117 347.056,119.617 346.5,120C 344.527,120.495 342.527,120.662 340.5,120.5C 342.279,118.656 344.612,117.99 347.5,118.5 Z"/></g>
<g><path style="opacity:0.114" fill="#c3c3c3" d="M 336.5,120.5 C 334.471,122.084 332.138,123.417 329.5,124.5C 328.478,124.145 327.811,123.478 327.5,122.5C 330.145,120.758 333.145,120.091 336.5,120.5 Z"/></g>
<g><path style="opacity:0.09" fill="#b5b5b5" d="M 325.5,122.5 C 323.609,125.172 320.942,126.172 317.5,125.5C 317.5,124.5 317.5,123.5 317.5,122.5C 320.167,122.5 322.833,122.5 325.5,122.5 Z"/></g>
<g><path style="opacity:0.066" fill="#6c6c6c" d="M 42.5,125.5 C 43.0431,125.56 43.3764,125.893 43.5,126.5C 42.2723,128.321 40.6056,129.321 38.5,129.5C 39.1667,127.5 40.5,126.167 42.5,125.5 Z"/></g>
<g><path style="opacity:0.096" fill="#949494" d="M 313.5,125.5 C 311.365,127.369 308.698,128.036 305.5,127.5C 305.5,126.5 305.5,125.5 305.5,124.5C 308.385,124.194 311.052,124.527 313.5,125.5 Z"/></g>
<g><path style="opacity:0.065" fill="#c2c2c2" d="M 302.5,127.5 C 303.167,127.5 303.833,127.5 304.5,127.5C 304.389,128.117 304.056,128.617 303.5,129C 301.19,129.497 298.857,129.663 296.5,129.5C 297.918,127.692 299.918,127.025 302.5,127.5 Z"/></g>
<g><path style="opacity:0.235" fill="#2b2b2b" d="M 302.5,127.5 C 299.918,127.025 297.918,127.692 296.5,129.5C 294.833,129.5 293.167,129.5 291.5,129.5C 285.564,130.639 279.564,131.306 273.5,131.5C 281.223,129.781 289.056,127.781 297,125.5C 299.221,125.393 301.054,126.06 302.5,127.5 Z"/></g>
<g><path style="opacity:0.011" fill="#cecece" d="M 291.5,129.5 C 286.147,132.666 280.147,133.999 273.5,133.5C 273.5,132.833 273.5,132.167 273.5,131.5C 279.564,131.306 285.564,130.639 291.5,129.5 Z"/></g>
<g><path style="opacity:0.066" fill="#787878" d="M 36.5,133.5 C 36.1667,136.5 34.5,138.167 31.5,138.5C 32.0819,137.069 32.9152,135.736 34,134.5C 34.6708,133.748 35.5041,133.414 36.5,133.5 Z"/></g>
<g><path style="opacity:0.035" fill="#b7b7b7" d="M 269.5,133.5 C 269.5,134.5 269.5,135.5 269.5,136.5C 266.618,136.986 263.952,136.986 261.5,136.5C 262.404,135.791 262.737,134.791 262.5,133.5C 264.833,133.5 267.167,133.5 269.5,133.5 Z"/></g>
<g><path style="opacity:0.045" fill="#aeaeae" d="M 260.5,136.5 C 260.389,137.117 260.056,137.617 259.5,138C 256.854,138.497 254.187,138.664 251.5,138.5C 251.5,137.5 251.5,136.5 251.5,135.5C 254.545,135.508 257.545,135.841 260.5,136.5 Z"/></g>
<g><path style="opacity:0.011" fill="#c8c8c8" d="M 249.5,138.5 C 248.666,139.748 247.333,140.415 245.5,140.5C 243.257,141.062 241.257,141.062 239.5,140.5C 242.488,138.727 245.821,138.06 249.5,138.5 Z"/></g>
<g><path style="opacity:0.016" fill="#cacaca" d="M 238.5,140.5 C 236.012,142.388 233.012,143.055 229.5,142.5C 231.988,140.612 234.988,139.945 238.5,140.5 Z"/></g>
<g><path style="opacity:0.114" fill="#b2b2b2" d="M 227.5,142.5 C 227.53,143.497 227.03,144.164 226,144.5C 222.998,144.965 220.165,145.799 217.5,147C 214.183,147.498 210.85,147.665 207.5,147.5C 207.5,146.5 207.5,145.5 207.5,144.5C 214.196,144.07 220.862,143.403 227.5,142.5 Z"/></g>
<g><path style="opacity:0.659" fill="#484848" d="M 29.5,142.5 C 30.9092,146.039 29.5758,147.706 25.5,147.5C 26.2794,145.323 27.6127,143.656 29.5,142.5 Z"/></g>
<g><path style="opacity:0.275" fill="#555555" d="M 207.5,144.5 C 207.5,145.5 207.5,146.5 207.5,147.5C 203.988,146.945 200.988,147.612 198.5,149.5C 198.167,149.5 197.833,149.5 197.5,149.5C 196.833,149.5 196.167,149.5 195.5,149.5C 195.5,148.5 195.5,147.5 195.5,146.5C 199.827,146.984 203.827,146.318 207.5,144.5 Z"/></g>
<g><path style="opacity:0.007" fill="#e4e4e4" d="M 207.5,147.5 C 207.389,148.117 207.056,148.617 206.5,149C 203.854,149.497 201.187,149.664 198.5,149.5C 200.988,147.612 203.988,146.945 207.5,147.5 Z"/></g>
<g><path style="opacity:0.006" fill="#dedede" d="M 195.5,149.5 C 196.167,149.5 196.833,149.5 197.5,149.5C 197.389,150.117 197.056,150.617 196.5,151C 193.183,151.498 189.85,151.665 186.5,151.5C 188.988,149.612 191.988,148.945 195.5,149.5 Z"/></g>
<g><path style="opacity:0.116" fill="#b2b2b2" d="M 182.5,151.5 C 180.721,153.344 178.388,154.01 175.5,153.5C 177.279,151.656 179.612,150.99 182.5,151.5 Z"/></g>
<g><path style="opacity:0.032" fill="#c7c7c7" d="M 173.5,153.5 C 173.047,154.458 172.381,155.292 171.5,156C 168.854,156.497 166.187,156.664 163.5,156.5C 163.5,155.5 163.5,154.5 163.5,153.5C 166.833,153.5 170.167,153.5 173.5,153.5 Z"/></g>
<g><path style="opacity:0.057" fill="#bebebe" d="M 160.5,156.5 C 159.082,158.308 157.082,158.975 154.5,158.5C 155.918,156.692 157.918,156.025 160.5,156.5 Z"/></g>
<g><path style="opacity:0.169" fill="#393939" d="M 160.5,156.5 C 157.918,156.025 155.918,156.692 154.5,158.5C 153.5,158.5 152.5,158.5 151.5,158.5C 147.988,157.945 144.988,158.612 142.5,160.5C 141.833,160.5 141.167,160.5 140.5,160.5C 140.5,159.5 140.5,158.5 140.5,157.5C 143.898,157.82 147.232,157.487 150.5,156.5C 151.527,154.976 153.027,154.309 155,154.5C 157.221,154.393 159.054,155.06 160.5,156.5 Z"/></g>
<g><path style="opacity:0.043" fill="#d0d0d0" d="M 151.5,158.5 C 151.389,159.117 151.056,159.617 150.5,160C 147.854,160.497 145.187,160.664 142.5,160.5C 144.988,158.612 147.988,157.945 151.5,158.5 Z"/></g>
<g><path style="opacity:0.012" fill="#d7d7d7" d="M 140.5,160.5 C 138.012,162.388 135.012,163.055 131.5,162.5C 133.988,160.612 136.988,159.945 140.5,160.5 Z"/></g>
<g><path style="opacity:0.035" fill="#808080" d="M 16.5,160.5 C 16.1667,163.5 14.5,165.167 11.5,165.5C 12.1667,162.833 13.8333,161.167 16.5,160.5 Z"/></g>
<g><path style="opacity:0.012" fill="#d3d3d3" d="M 129.5,162.5 C 129.53,163.497 129.03,164.164 128,164.5C 125.566,165.322 123.066,165.656 120.5,165.5C 120.5,164.5 120.5,163.5 120.5,162.5C 123.5,162.5 126.5,162.5 129.5,162.5 Z"/></g>
<g><path style="opacity:0.044" fill="#aeaeae" d="M 117.5,165.5 C 117.389,166.117 117.056,166.617 116.5,167C 113.854,167.497 111.187,167.664 108.5,167.5C 108.5,166.5 108.5,165.5 108.5,164.5C 111.57,164.368 114.57,164.701 117.5,165.5 Z"/></g>
<g><path style="opacity:0.037" fill="#d6d6d6" d="M 107.5,167.5 C 107.389,168.117 107.056,168.617 106.5,169C 104.527,169.495 102.527,169.662 100.5,169.5C 102.279,167.656 104.612,166.99 107.5,167.5 Z"/></g>
<g><path style="opacity:0.1" fill="#aaaaaa" d="M 95.5,169.5 C 95.3893,170.117 95.056,170.617 94.5,171C 92.1902,171.497 89.8568,171.663 87.5,171.5C 89.6353,169.631 92.3019,168.964 95.5,169.5 Z"/></g>
<g><path style="opacity:0.151" fill="#929292" d="M 82.5,171.5 C 80.7211,173.344 78.3878,174.01 75.5,173.5C 77.2789,171.656 79.6122,170.99 82.5,171.5 Z"/></g>
<g><path style="opacity:0.431" fill="#545454" d="M 9.5,169.5 C 10.2592,172.443 8.92582,174.11 5.5,174.5C 5.73767,171.931 7.071,170.265 9.5,169.5 Z"/></g>
<g><path style="opacity:0.407" fill="#1d1d1d" d="M 1.5,183.5 C 2.16179,230.845 1.49512,277.845 -0.5,324.5C -0.5,324.167 -0.5,323.833 -0.5,323.5C 0.166667,276.833 0.833333,230.167 1.5,183.5 Z"/></g>
<g><path style="opacity:0.297" fill="#323232" d="M 2.5,178.5 C 3.09674,178.735 3.43007,179.235 3.5,180C 2.57051,181.077 1.90384,182.244 1.5,183.5C 0.833333,230.167 0.166667,276.833 -0.5,323.5C -0.5,275.833 -0.5,228.167 -0.5,180.5C 0.222348,179.449 1.22235,178.782 2.5,178.5 Z"/></g>
<g><path style="opacity:0.482" fill="#3d3d3d" d="M 69.5,173.5 C 69.5,234.5 69.5,295.5 69.5,356.5C 68.1667,356.5 66.8333,356.5 65.5,356.5C 65.5,355.5 65.5,354.5 65.5,353.5C 66.5,353.5 67.5,353.5 68.5,353.5C 68.1676,293.331 68.5009,233.331 69.5,173.5 Z"/></g>
<g><path style="opacity:0.016" fill="#e2e2e2" d="M 390.5,109.5 C 390.833,109.5 391.167,109.5 391.5,109.5C 392.164,200.173 391.497,290.506 389.5,380.5C 389.528,290.495 389.528,200.829 389.5,111.5C 390.338,111.158 390.672,110.492 390.5,109.5 Z"/></g>
<g><path style="opacity:0.199" fill="#6f6f6f" d="M 69.5,173.5 C 70.1667,173.5 70.8333,173.5 71.5,173.5C 71.1676,234.002 71.5009,294.336 72.5,354.5C 72.5,355.167 72.5,355.833 72.5,356.5C 72.6261,358.2 73.2927,359.7 74.5,361C 74.4301,361.765 74.0967,362.265 73.5,362.5C 70.6874,361.554 69.354,359.554 69.5,356.5C 69.5,295.5 69.5,234.5 69.5,173.5 Z"/></g>
<g><path style="opacity:0.096" fill="#686868" d="M 3.5,329.5 C 1.82124,329.715 0.821236,329.048 0.5,327.5C 1.20895,326.596 2.20895,326.263 3.5,326.5C 3.5,327.5 3.5,328.5 3.5,329.5 Z"/></g>
<g><path style="opacity:0.233" fill="#5e5e5e" d="M 5.5,329.5 C 7.48324,329.157 8.81658,329.824 9.5,331.5C 7.51676,331.843 6.18342,331.176 5.5,329.5 Z"/></g>
<g><path style="opacity:0.098" fill="#8b8b8b" d="M 9.5,331.5 C 11.7812,331.077 13.4479,331.744 14.5,333.5C 12.2188,333.923 10.5521,333.256 9.5,331.5 Z"/></g>
<g><path style="opacity:0.06" fill="#969796" d="M 16.5,333.5 C 18.0481,333.821 18.7148,334.821 18.5,336.5C 16.9519,336.179 16.2852,335.179 16.5,333.5 Z"/></g>
<g><path style="opacity:0.435" fill="#676767" d="M 25.5,338.5 C 23.2188,338.923 21.5521,338.256 20.5,336.5C 22.0418,335.699 23.7085,335.366 25.5,335.5C 25.5,336.5 25.5,337.5 25.5,338.5 Z"/></g>
<g><path style="opacity:0.041" fill="#a0a0a0" d="M 31.5,340.5 C 33.1788,340.285 34.1788,340.952 34.5,342.5C 32.8212,342.715 31.8212,342.048 31.5,340.5 Z"/></g>
<g><path style="opacity:0.127" fill="#868686" d="M 36.5,342.5 C 37.8333,342.5 39.1667,342.5 40.5,342.5C 40.5,343.5 40.5,344.5 40.5,345.5C 38.368,345.446 37.0347,344.446 36.5,342.5 Z"/></g>
<g><path style="opacity:0.041" fill="#898989" d="M 45.5,347.5 C 43.8212,347.715 42.8212,347.048 42.5,345.5C 44.5983,344.086 45.5983,344.752 45.5,347.5 Z"/></g>
<g><path style="opacity:0.165" fill="#6c6c6c" d="M 47.5,347.5 C 49.4832,347.157 50.8166,347.824 51.5,349.5C 49.5168,349.843 48.1834,349.176 47.5,347.5 Z"/></g>
<g><path style="opacity:0.023" fill="#bbbcbb" d="M 62.5,353.5 C 63.5,353.5 64.5,353.5 65.5,353.5C 65.5,354.5 65.5,355.5 65.5,356.5C 63.5,356.5 62.5,355.5 62.5,353.5 Z"/></g>
<g><path style="opacity:0.052" fill="#b6b6b6" d="M 84.5,356.5 C 80.5,356.5 76.5,356.5 72.5,356.5C 72.5,355.833 72.5,355.167 72.5,354.5C 75.3035,353.362 78.3035,353.195 81.5,354C 83.1193,354.236 84.1193,355.069 84.5,356.5 Z"/></g>
<g><path style="opacity:0.124" fill="#888888" d="M 95.5,356.5 C 98.1667,356.5 100.833,356.5 103.5,356.5C 103.5,357.167 103.5,357.833 103.5,358.5C 100.302,359.036 97.6353,358.369 95.5,356.5 Z"/></g>
<g><path style="opacity:0.049" fill="#cccccc" d="M 103.5,356.5 C 107.329,355.931 110.663,356.598 113.5,358.5C 110.167,358.5 106.833,358.5 103.5,358.5C 103.5,357.833 103.5,357.167 103.5,356.5 Z"/></g>
<g><path style="opacity:0.086" fill="#969696" d="M 124.5,358.5 C 127.167,358.5 129.833,358.5 132.5,358.5C 132.5,359.167 132.5,359.833 132.5,360.5C 129.302,361.036 126.635,360.369 124.5,358.5 Z"/></g>
<g><path style="opacity:0.025" fill="#d8d8d8" d="M 132.5,358.5 C 135.187,358.336 137.854,358.503 140.5,359C 141.416,359.278 142.082,359.778 142.5,360.5C 140.833,360.5 139.167,360.5 137.5,360.5C 135.833,360.5 134.167,360.5 132.5,360.5C 132.5,359.833 132.5,359.167 132.5,358.5 Z"/></g>
<g><path style="opacity:0.355" fill="#474747" d="M 120.5,358.5 C 121.833,358.5 123.167,358.5 124.5,358.5C 126.635,360.369 129.302,361.036 132.5,360.5C 134.167,360.5 135.833,360.5 137.5,360.5C 132.35,361.651 127.016,361.817 121.5,361C 120.748,360.329 120.414,359.496 120.5,358.5 Z"/></g>
<g><path style="opacity:0.044" fill="#bdbdbd" d="M 153.5,360.5 C 158.179,360.334 162.845,360.501 167.5,361C 168.416,361.278 169.082,361.778 169.5,362.5C 168.833,362.5 168.167,362.5 167.5,362.5C 162.381,363.103 157.715,362.436 153.5,360.5 Z"/></g>
<g><path style="opacity:0.197" fill="#5c5c5c" d="M 149.5,360.5 C 150.833,360.5 152.167,360.5 153.5,360.5C 157.715,362.436 162.381,363.103 167.5,362.5C 162.015,363.652 156.349,363.818 150.5,363C 149.748,362.329 149.414,361.496 149.5,360.5 Z"/></g>
<g><path style="opacity:0.106" fill="#707070" d="M 175.5,362.5 C 178.167,362.5 180.833,362.5 183.5,362.5C 183.5,363.5 183.5,364.5 183.5,365.5C 180.833,365.5 178.167,365.5 175.5,365.5C 175.5,364.5 175.5,363.5 175.5,362.5 Z"/></g>
<g><path style="opacity:0.055" fill="#c5c5c5" d="M 183.5,362.5 C 187.182,362.335 190.848,362.501 194.5,363C 195.381,363.708 196.047,364.542 196.5,365.5C 192.167,365.5 187.833,365.5 183.5,365.5C 183.5,364.5 183.5,363.5 183.5,362.5 Z"/></g>
<g><path style="opacity:0.167" fill="#888888" d="M 205.5,365.5 C 208.167,365.5 210.833,365.5 213.5,365.5C 213.5,366.167 213.5,366.833 213.5,367.5C 210.302,368.036 207.635,367.369 205.5,365.5 Z"/></g>
<g><path style="opacity:0.042" fill="#d4d4d4" d="M 213.5,365.5 C 217.649,364.92 221.316,365.586 224.5,367.5C 220.833,367.5 217.167,367.5 213.5,367.5C 213.5,366.833 213.5,366.167 213.5,365.5 Z"/></g>
<g><path style="opacity:0.094" fill="#bebebe" d="M 236.5,367.5 C 241.511,367.334 246.511,367.501 251.5,368C 252.056,368.383 252.389,368.883 252.5,369.5C 251.167,369.5 249.833,369.5 248.5,369.5C 244.029,370.089 240.029,369.423 236.5,367.5 Z"/></g>
<g><path style="opacity:0.118" fill="#545454" d="M 76.5,366.5 C 77.5,366.5 78.5,366.5 79.5,366.5C 79.6287,368.216 79.962,369.883 80.5,371.5C 78.071,370.735 76.7377,369.069 76.5,366.5 Z"/></g>
<g><path style="opacity:0.401" fill="#4e4e4e" d="M 230.5,367.5 C 232.5,367.5 234.5,367.5 236.5,367.5C 240.029,369.423 244.029,370.089 248.5,369.5C 243.015,370.652 237.349,370.818 231.5,370C 230.748,369.329 230.414,368.496 230.5,367.5 Z"/></g>
<g><path style="opacity:0.073" fill="#c1c1c1" d="M 264.5,369.5 C 268.846,369.334 273.179,369.501 277.5,370C 278.056,370.383 278.389,370.883 278.5,371.5C 277.5,371.5 276.5,371.5 275.5,371.5C 271.351,372.08 267.684,371.414 264.5,369.5 Z"/></g>
<g><path style="opacity:0.304" fill="#646464" d="M 258.5,369.5 C 260.5,369.5 262.5,369.5 264.5,369.5C 267.684,371.414 271.351,372.08 275.5,371.5C 270.35,372.651 265.016,372.817 259.5,372C 258.748,371.329 258.414,370.496 258.5,369.5 Z"/></g>
<g><path style="opacity:0.092" fill="#969696" d="M 288.5,371.5 C 291.5,371.5 294.5,371.5 297.5,371.5C 299.988,373.388 302.988,374.055 306.5,373.5C 300.69,374.49 294.69,374.823 288.5,374.5C 288.5,373.5 288.5,372.5 288.5,371.5 Z"/></g>
<g><path style="opacity:0.012" fill="#dfdfdf" d="M 297.5,371.5 C 300.518,371.335 303.518,371.502 306.5,372C 307.056,372.383 307.389,372.883 307.5,373.5C 307.167,373.5 306.833,373.5 306.5,373.5C 302.988,374.055 299.988,373.388 297.5,371.5 Z"/></g>
<g><path style="opacity:0.139" fill="#858585" d="M 313.5,373.5 C 316.5,373.5 319.5,373.5 322.5,373.5C 322.5,374.5 322.5,375.5 322.5,376.5C 319.5,376.5 316.5,376.5 313.5,376.5C 313.5,375.5 313.5,374.5 313.5,373.5 Z"/></g>
<g><path style="opacity:0.045" fill="#cfcfcf" d="M 322.5,373.5 C 325.187,373.336 327.854,373.503 330.5,374C 332.119,374.236 333.119,375.069 333.5,376.5C 329.833,376.5 326.167,376.5 322.5,376.5C 322.5,375.5 322.5,374.5 322.5,373.5 Z"/></g>
<g><path style="opacity:0.053" fill="#868686" d="M 80.5,373.5 C 83.5,373.833 85.1667,375.5 85.5,378.5C 82.7361,378.001 81.0695,376.335 80.5,373.5 Z"/></g>
<g><path style="opacity:0.129" fill="#888888" d="M 341.5,376.5 C 344.167,376.5 346.833,376.5 349.5,376.5C 349.5,377.167 349.5,377.833 349.5,378.5C 346.302,379.036 343.635,378.369 341.5,376.5 Z"/></g>
<g><path style="opacity:0.031" fill="#d6d6d6" d="M 349.5,376.5 C 352.85,376.335 356.183,376.502 359.5,377C 360.056,377.383 360.389,377.883 360.5,378.5C 356.833,378.5 353.167,378.5 349.5,378.5C 349.5,377.833 349.5,377.167 349.5,376.5 Z"/></g>
<g><path style="opacity:0.088" fill="#828282" d="M 368.5,378.5 C 371.167,378.5 373.833,378.5 376.5,378.5C 376.5,379.167 376.5,379.833 376.5,380.5C 373.302,381.036 370.635,380.369 368.5,378.5 Z"/></g>
<g><path style="opacity:0.024" fill="#cccccc" d="M 376.5,378.5 C 379.85,378.335 383.183,378.502 386.5,379C 387.056,379.383 387.389,379.883 387.5,380.5C 383.833,380.5 380.167,380.5 376.5,380.5C 376.5,379.833 376.5,379.167 376.5,378.5 Z"/></g>
<g><path style="opacity:0.057" fill="#848484" d="M 87.5,382.5 C 89.929,383.265 91.2623,384.931 91.5,387.5C 89.4689,386.461 88.1355,384.795 87.5,382.5 Z"/></g>
<g><path style="opacity:0.147" fill="#5f5f5f" d="M 92.5,389.5 C 96.1391,390.473 98.1391,392.806 98.5,396.5C 96.9519,396.179 96.2852,395.179 96.5,393.5C 93.858,393.512 92.5246,392.179 92.5,389.5 Z"/></g>
<g><path style="opacity:0.014" fill="#c7c8c7" d="M 98.5,398.5 C 99.1667,398.5 99.8333,398.5 100.5,398.5C 100.5,399.167 100.5,399.833 100.5,400.5C 99.1667,400.5 98.5,399.833 98.5,398.5 Z"/></g>
<g><path style="opacity:0.169" fill="#444444" d="M 100.5,398.5 C 103.208,400.06 104.874,402.393 105.5,405.5C 104.761,405.631 104.094,405.464 103.5,405C 102.252,403.6 101.252,402.1 100.5,400.5C 100.5,399.833 100.5,399.167 100.5,398.5 Z"/></g>
<g><path style="opacity:0.049" fill="#5a5a5a" d="M 496.5,402.5 C 494.484,406.178 491.484,408.845 487.5,410.5C 487.5,409.167 487.5,407.833 487.5,406.5C 490.714,405.612 493.714,404.279 496.5,402.5 Z"/></g>
<g><path style="opacity:0.045" fill="#b6b7b6" d="M 105.5,407.5 C 106.833,407.5 107.5,408.167 107.5,409.5C 106.167,409.5 105.5,408.833 105.5,407.5 Z"/></g>
<g><path style="opacity:0.074" fill="#858585" d="M 482.5,413.5 C 481.582,416.752 479.582,419.086 476.5,420.5C 477.038,418.883 477.371,417.216 477.5,415.5C 479.322,415.169 480.989,414.502 482.5,413.5 Z"/></g>
<g><path style="opacity:0.103" fill="#585858" d="M 111.5,415.5 C 115.151,415.162 116.817,416.828 116.5,420.5C 113.5,420.167 111.833,418.5 111.5,415.5 Z"/></g>
<g><path style="opacity:0.029" fill="#c5c6c5" d="M 116.5,422.5 C 117.833,422.5 118.5,423.167 118.5,424.5C 117.167,424.5 116.5,423.833 116.5,422.5 Z"/></g>
<g><path style="opacity:0.284" fill="#4b4b4b" d="M 183.5,429.5 C 181.173,429.753 179.173,429.086 177.5,427.5C 176.5,450.824 176.167,474.157 176.5,497.5C 174.139,497.326 171.806,496.993 169.5,496.5C 169.5,496.167 169.5,495.833 169.5,495.5C 170.833,495.5 172.167,495.5 173.5,495.5C 173.5,471.833 173.5,448.167 173.5,424.5C 176.932,424.757 180.266,425.424 183.5,426.5C 183.5,427.5 183.5,428.5 183.5,429.5 Z"/></g>
<g><path style="opacity:0.035" fill="#8f8f8f" d="M 471.5,422.5 C 470.5,426.167 468.167,428.5 464.5,429.5C 465.586,425.988 467.919,423.655 471.5,422.5 Z"/></g>
<g><path style="opacity:0.178" fill="#8f8f8f" d="M 185.5,429.5 C 187.483,429.157 188.817,429.824 189.5,431.5C 187.517,431.843 186.183,431.176 185.5,429.5 Z"/></g>
<g><path style="opacity:0.041" fill="#bcbdbc" d="M 122.5,431.5 C 124.179,431.285 125.179,431.952 125.5,433.5C 123.821,433.715 122.821,433.048 122.5,431.5 Z"/></g>
<g><path style="opacity:0.067" fill="#7e7e7e" d="M 198.5,433.5 C 199.5,433.5 200.5,433.5 201.5,433.5C 201.5,434.5 201.5,435.5 201.5,436.5C 200.5,436.5 199.5,436.5 198.5,436.5C 198.5,435.5 198.5,434.5 198.5,433.5 Z"/></g>
<g><path style="opacity:0.094" fill="#989898" d="M 458.5,433.5 C 458.001,436.264 456.335,437.931 453.5,438.5C 453.833,435.5 455.5,433.833 458.5,433.5 Z"/></g>
<g><path style="opacity:0.141" fill="#838383" d="M 207.5,438.5 C 205.302,438.88 203.635,438.213 202.5,436.5C 204.042,435.699 205.708,435.366 207.5,435.5C 207.5,436.5 207.5,437.5 207.5,438.5 Z"/></g>
<g><path style="opacity:0.663" fill="#565656" d="M 214.5,440.5 C 212.219,440.923 210.552,440.256 209.5,438.5C 211.042,437.699 212.708,437.366 214.5,437.5C 214.5,438.5 214.5,439.5 214.5,440.5 Z"/></g>
<g><path style="opacity:0.113" fill="#656565" d="M 129.5,439.5 C 130.5,439.5 131.5,439.5 132.5,439.5C 132.48,441.143 133.147,442.476 134.5,443.5C 134.137,444.183 133.804,444.85 133.5,445.5C 131.37,444.036 130.037,442.036 129.5,439.5 Z"/></g>
<g><path style="opacity:0.196" fill="#525252" d="M 449.5,440.5 C 449.5,441.833 448.833,442.5 447.5,442.5C 446.5,442.5 445.5,442.5 444.5,442.5C 445.635,440.787 447.302,440.12 449.5,440.5 Z"/></g>
<g><path style="opacity:0.193" fill="#868686" d="M 220.5,442.5 C 222.167,442.5 223.833,442.5 225.5,442.5C 225.5,443.5 225.5,444.5 225.5,445.5C 222.966,445.741 221.3,444.741 220.5,442.5 Z"/></g>
<g><path style="opacity:0.053" fill="#a9a9a9" d="M 444.5,442.5 C 445.5,442.5 446.5,442.5 447.5,442.5C 447.631,443.239 447.464,443.906 447,444.5C 445.6,445.748 444.1,446.748 442.5,447.5C 442.831,445.678 443.498,444.011 444.5,442.5 Z"/></g>
<g><path style="opacity:0.102" fill="#505050" d="M 237.5,449.5 C 237.167,449.5 236.833,449.5 236.5,449.5C 235.448,447.744 233.781,447.077 231.5,447.5C 229.517,447.843 228.183,447.176 227.5,445.5C 228.097,444.861 228.93,444.528 230,444.5C 232.36,445.78 234.86,446.447 237.5,446.5C 237.5,447.5 237.5,448.5 237.5,449.5 Z"/></g>
<g><path style="opacity:0.017" fill="#c7c8c7" d="M 134.5,447.5 C 135.833,447.5 136.5,448.167 136.5,449.5C 135.167,449.5 134.5,448.833 134.5,447.5 Z"/></g>
<g><path style="opacity:0.124" fill="#a9a9a9" d="M 231.5,447.5 C 233.781,447.077 235.448,447.744 236.5,449.5C 234.302,449.88 232.635,449.213 231.5,447.5 Z"/></g>
<g><path style="opacity:0.253" fill="#6d6d6d" d="M 243.5,451.5 C 241.219,451.923 239.552,451.256 238.5,449.5C 240.042,448.699 241.708,448.366 243.5,448.5C 243.5,449.5 243.5,450.5 243.5,451.5 Z"/></g>
<g><path style="opacity:0.096" fill="#717171" d="M 438.5,449.5 C 437.878,451.122 436.878,452.455 435.5,453.5C 434.833,453.5 434.167,453.5 433.5,453.5C 433.746,450.53 435.412,449.197 438.5,449.5 Z"/></g>
<g><path style="opacity:0.32" fill="#6a6a6a" d="M 245.5,451.5 C 247.483,451.157 248.817,451.824 249.5,453.5C 247.517,453.843 246.183,453.176 245.5,451.5 Z"/></g>
<g><path style="opacity:0.09" fill="#adadad" d="M 249.5,453.5 C 251.167,453.5 252.833,453.5 254.5,453.5C 254.5,454.5 254.5,455.5 254.5,456.5C 251.715,457.084 250.048,456.084 249.5,453.5 Z"/></g>
<g><path style="opacity:0.008" fill="#ededed" d="M 433.5,453.5 C 434.167,453.5 434.833,453.5 435.5,453.5C 434.965,455.446 433.632,456.446 431.5,456.5C 431.285,454.821 431.952,453.821 433.5,453.5 Z"/></g>
<g><path style="opacity:0.137" fill="#7c7c7c" d="M 261.5,458.5 C 259.219,458.923 257.552,458.256 256.5,456.5C 257.919,455.549 259.585,455.216 261.5,455.5C 261.5,456.5 261.5,457.5 261.5,458.5 Z"/></g>
<g><path style="opacity:0.005" fill="#fefffe" d="M 431.5,456.5 C 431.167,457.5 430.5,458.167 429.5,458.5C 429.5,457.167 430.167,456.5 431.5,456.5 Z"/></g>
<g><path style="opacity:0.084" fill="#828282" d="M 140.5,455.5 C 143.5,455.833 145.167,457.5 145.5,460.5C 142.5,460.167 140.833,458.5 140.5,455.5 Z"/></g>
<g><path style="opacity:0.127" fill="#a5a5a5" d="M 267.5,460.5 C 269.781,460.077 271.448,460.744 272.5,462.5C 270.219,462.923 268.552,462.256 267.5,460.5 Z"/></g>
<g><path style="opacity:0.075" fill="#919191" d="M 427.5,458.5 C 426.735,460.929 425.069,462.262 422.5,462.5C 423.265,460.071 424.931,458.738 427.5,458.5 Z"/></g>
<g><path style="opacity:0.169" fill="#8b8b8b" d="M 273.5,462.5 C 274.167,462.5 274.833,462.5 275.5,462.5C 276.5,462.5 277.5,462.5 278.5,462.5C 278.5,463.5 278.5,464.5 278.5,465.5C 276.067,465.727 274.401,464.727 273.5,462.5 Z"/></g>
<g><path style="opacity:0.366" fill="#2e2e2e" d="M 275.5,462.5 C 276.097,461.861 276.93,461.528 278,461.5C 280.679,462.895 283.512,463.561 286.5,463.5C 286.5,464.5 286.5,465.5 286.5,466.5C 287.833,466.5 289.167,466.5 290.5,466.5C 290.5,467.5 290.5,468.5 290.5,469.5C 287.892,469.6 285.558,468.933 283.5,467.5C 283.5,466.5 283.5,465.5 283.5,464.5C 282.209,464.263 281.209,464.596 280.5,465.5C 279.833,465.5 279.167,465.5 278.5,465.5C 278.5,464.5 278.5,463.5 278.5,462.5C 277.5,462.5 276.5,462.5 275.5,462.5 Z"/></g>
<g><path style="opacity:0.038" fill="#d2d3d2" d="M 422.5,462.5 C 422.573,464.027 421.906,465.027 420.5,465.5C 420.285,463.821 420.952,462.821 422.5,462.5 Z"/></g>
<g><path style="opacity:0.084" fill="#969696" d="M 283.5,467.5 C 281.821,467.715 280.821,467.048 280.5,465.5C 281.209,464.596 282.209,464.263 283.5,464.5C 283.5,465.5 283.5,466.5 283.5,467.5 Z"/></g>
<g><path style="opacity:0.079" fill="#626262" d="M 147.5,464.5 C 149.143,464.48 150.476,465.147 151.5,466.5C 152.776,467.614 152.776,468.614 151.5,469.5C 149.071,468.735 147.738,467.069 147.5,464.5 Z"/></g>
<g><path style="opacity:0.198" fill="#787878" d="M 296.5,471.5 C 294.219,471.923 292.552,471.256 291.5,469.5C 293.042,468.699 294.708,468.366 296.5,468.5C 296.5,469.5 296.5,470.5 296.5,471.5 Z"/></g>
<g><path style="opacity:0.176" fill="#6c6c6c" d="M 416.5,467.5 C 414.502,469.827 412.168,471.827 409.5,473.5C 409.877,468.766 412.21,466.766 416.5,467.5 Z"/></g>
<g><path style="opacity:0.655" fill="#3f3f3f" d="M 314.5,478.5 C 311.924,478.532 309.591,477.865 307.5,476.5C 307.5,475.5 307.5,474.5 307.5,473.5C 305.833,473.5 304.167,473.5 302.5,473.5C 300.517,473.843 299.183,473.176 298.5,471.5C 299.577,470.982 300.744,470.648 302,470.5C 306.362,472.119 310.528,473.786 314.5,475.5C 314.5,476.5 314.5,477.5 314.5,478.5 Z"/></g>
<g><path style="opacity:0.059" fill="#989898" d="M 151.5,471.5 C 154.5,471.833 156.167,473.5 156.5,476.5C 154.184,475.578 152.517,473.911 151.5,471.5 Z"/></g>
<g><path style="opacity:0.122" fill="#b1b1b1" d="M 302.5,473.5 C 304.167,473.5 305.833,473.5 307.5,473.5C 307.5,474.5 307.5,475.5 307.5,476.5C 305.067,476.727 303.401,475.727 302.5,473.5 Z"/></g>
<g><path style="opacity:0.084" fill="#787878" d="M 405.5,476.5 C 403.467,478.868 401.133,480.868 398.5,482.5C 398.421,481.07 398.754,479.736 399.5,478.5C 401.345,476.505 403.345,475.839 405.5,476.5 Z"/></g>
<g><path style="opacity:0.022" fill="#c8c9c8" d="M 158.5,480.5 C 159.833,480.5 160.5,481.167 160.5,482.5C 159.167,482.5 158.5,481.833 158.5,480.5 Z"/></g>
<g><path style="opacity:0.157" fill="#a0a0a0" d="M 320.5,480.5 C 322.781,480.077 324.448,480.744 325.5,482.5C 323.302,482.88 321.635,482.213 320.5,480.5 Z"/></g>
<g><path style="opacity:0.15" fill="#939393" d="M 327.5,482.5 C 328.833,482.5 330.167,482.5 331.5,482.5C 331.5,483.5 331.5,484.5 331.5,485.5C 329.027,485.912 327.694,484.912 327.5,482.5 Z"/></g>
<g><path style="opacity:0.341" fill="#4e4e4e" d="M 160.5,482.5 C 164.485,482.44 166.152,484.44 165.5,488.5C 162.914,487.362 161.247,485.362 160.5,482.5 Z"/></g>
<g><path style="opacity:0.182" fill="#757575" d="M 343.5,489.5 C 340.368,489.216 337.368,488.383 334.5,487C 333.944,486.617 333.611,486.117 333.5,485.5C 333.611,486.117 333.944,486.617 334.5,487C 337.368,488.383 340.368,489.216 343.5,489.5 Z"/></g>
<g><path style="opacity:0.094" fill="#7f7f7f" d="M 393.5,485.5 C 392.167,488.167 390.167,490.167 387.5,491.5C 387.65,488.156 389.317,485.823 392.5,484.5C 393.107,484.624 393.44,484.957 393.5,485.5 Z"/></g>
<g><path style="opacity:0.073" fill="#a9aaa9" d="M 165.5,489.5 C 166.833,489.5 167.5,490.167 167.5,491.5C 166.167,491.5 165.5,490.833 165.5,489.5 Z"/></g>
<g><path style="opacity:0.192" fill="#8f8f8f" d="M 345.5,489.5 C 347.483,489.157 348.817,489.824 349.5,491.5C 347.517,491.843 346.183,491.176 345.5,489.5 Z"/></g>
<g><path style="opacity:0.006" fill="#d9d9d9" d="M 386.5,491.5 C 386.5,492.833 385.833,493.5 384.5,493.5C 384.5,492.167 385.167,491.5 386.5,491.5 Z"/></g>
<g><path style="opacity:0.132" fill="#909090" d="M 356.5,493.5 C 358.167,493.5 359.833,493.5 361.5,493.5C 361.5,494.5 361.5,495.5 361.5,496.5C 358.966,496.741 357.3,495.741 356.5,493.5 Z"/></g>
<g><path style="opacity:0.139" fill="#767676" d="M 382.5,493.5 C 381.963,496.036 380.63,498.036 378.5,499.5C 375.5,499.5 372.5,499.5 369.5,499.5C 369.5,499.167 369.5,498.833 369.5,498.5C 372.167,498.5 374.833,498.5 377.5,498.5C 377.833,495.5 379.5,493.833 382.5,493.5 Z"/></g>
<g><path style="opacity:0.171" fill="#828282" d="M 367.5,498.5 C 365.302,498.88 363.635,498.213 362.5,496.5C 364.042,495.699 365.708,495.366 367.5,495.5C 367.5,496.5 367.5,497.5 367.5,498.5 Z"/></g>
<g><path style="opacity:0.094" fill="#a1a1a1" d="M 169.5,496.5 C 171.806,496.993 174.139,497.326 176.5,497.5C 176.5,498.167 176.5,498.833 176.5,499.5C 174.833,499.5 173.167,499.5 171.5,499.5C 170.449,498.778 169.782,497.778 169.5,496.5 Z"/></g>
</svg>
