<?xml version="1.0" encoding="UTF-8"?>
<!DOCTYPE svg PUBLIC "-//W3C//DTD SVG 1.1//EN" "http://www.w3.org/Graphics/SVG/1.1/DTD/svg11.dtd">
<svg xmlns="http://www.w3.org/2000/svg" version="1.1" width="500px" height="500px" style="shape-rendering:geometricPrecision; text-rendering:geometricPrecision; image-rendering:optimizeQuality; fill-rule:evenodd; clip-rule:evenodd" xmlns:xlink="http://www.w3.org/1999/xlink">
<g><path style="opacity:0.991" fill="#000000" d="M 235.5,-0.5 C 244.833,-0.5 254.167,-0.5 263.5,-0.5C 265.163,1.53291 267.163,3.36625 269.5,5C 271.066,5.76498 272.399,5.59832 273.5,4.5C 274.167,4.5 274.5,4.83333 274.5,5.5C 275.207,7.1344 276.373,8.46773 278,9.5C 278.464,8.90558 278.631,8.23891 278.5,7.5C 280.752,7.91563 282.252,9.24896 283,11.5C 283.333,10.8333 283.667,10.1667 284,9.5C 287.081,12.2931 290.581,14.4597 294.5,16C 293.346,16.9138 293.513,17.7471 295,18.5C 295.414,18.0426 295.914,17.7093 296.5,17.5C 298.904,18.8432 301.238,20.1766 303.5,21.5C 303.167,21.5 302.833,21.5 302.5,21.5C 301.833,21.5 301.5,21.8333 301.5,22.5C 303.03,24.3465 305.03,25.3465 307.5,25.5C 311.323,25.2519 314.323,26.9185 316.5,30.5C 317.538,32.5195 318.872,32.8528 320.5,31.5C 327.777,35.4881 335.443,39.6548 343.5,44C 342.402,44.7697 342.402,45.603 343.5,46.5C 344.965,47.7368 346.632,48.7368 348.5,49.5C 349.472,46.9017 350.472,46.9017 351.5,49.5C 350.833,49.5 350.5,49.8333 350.5,50.5C 352.395,52.0983 354.562,53.4316 357,54.5C 357.464,53.9056 357.631,53.2389 357.5,52.5C 359.857,53.5944 361.69,55.2611 363,57.5C 363.333,57.1667 363.667,56.8333 364,56.5C 365.067,57.1905 366.234,57.6905 367.5,58C 366.346,58.9138 366.513,59.7471 368,60.5C 370.488,59.5878 372.155,60.5878 373,63.5C 373.333,62.8333 373.667,62.1667 374,61.5C 375.271,62.8825 376.771,63.8825 378.5,64.5C 378.57,67.659 380.237,69.3257 383.5,69.5C 384.167,69.5 384.5,69.1667 384.5,68.5C 385.833,69.1667 387.167,69.8333 388.5,70.5C 388.873,73.8494 390.54,74.8494 393.5,73.5C 395.113,74.6923 396.78,75.6923 398.5,76.5C 398.5,77.5 398.5,78.5 398.5,79.5C 401.482,80.6893 404.482,82.0226 407.5,83.5C 408.167,83.5 408.5,83.1667 408.5,82.5C 412.981,83.9754 416.981,86.3088 420.5,89.5C 420.5,91.5 421.5,92.5 423.5,92.5C 426.285,91.9162 427.952,92.9162 428.5,95.5C 429.688,96.3636 430.855,97.3636 432,98.5C 432.399,98.2716 432.565,97.9382 432.5,97.5C 433.117,97.3893 433.617,97.056 434,96.5C 435.597,98.2188 437.097,99.2188 438.5,99.5C 438.427,101.027 439.094,102.027 440.5,102.5C 442.395,104.098 444.562,105.432 447,106.5C 447.464,105.906 447.631,105.239 447.5,104.5C 448.167,104.5 448.5,104.833 448.5,105.5C 448.5,106.5 448.5,107.5 448.5,108.5C 450.262,108.357 451.929,108.691 453.5,109.5C 455.521,112.188 457.854,114.521 460.5,116.5C 461.5,118.167 462.833,119.5 464.5,120.5C 467.297,120.967 468.631,122.633 468.5,125.5C 468.69,128.855 469.69,131.855 471.5,134.5C 472.831,211.402 472.831,288.402 471.5,365.5C 468.887,368.645 467.221,372.311 466.5,376.5C 466.5,377.167 466.167,377.5 465.5,377.5C 462.138,380.797 459.471,384.131 457.5,387.5C 457.167,387.5 456.833,387.5 456.5,387.5C 407.764,414.705 359.431,442.705 311.5,471.5C 300.002,477.079 289.002,483.412 278.5,490.5C 272.053,494.058 265.386,497.058 258.5,499.5C 252.5,499.5 246.5,499.5 240.5,499.5C 234.704,497.504 229.037,495.004 223.5,492C 217.277,487.389 210.611,483.555 203.5,480.5C 200.78,478.473 197.78,476.807 194.5,475.5C 192.434,473.801 190.1,472.468 187.5,471.5C 182.335,467.414 176.668,464.08 170.5,461.5C 167.992,459.076 164.992,457.41 161.5,456.5C 153.898,451.691 146.231,446.858 138.5,442C 133.447,439.473 128.447,436.973 123.5,434.5C 116.581,428.93 108.914,424.596 100.5,421.5C 100.047,420.542 99.3805,419.708 98.5,419C 93.7146,415.941 88.7146,413.441 83.5,411.5C 80.2463,408.529 76.5796,406.029 72.5,404C 69.2221,402.191 65.8888,400.691 62.5,399.5C 55.6745,394.863 48.6745,390.363 41.5,386C 38.2166,383.228 35.5499,380.061 33.5,376.5C 31.5083,371.433 29.1749,366.766 26.5,362.5C 26.3333,286.833 26.5,211.166 27,135.5C 26.9362,131.362 28.1028,127.696 30.5,124.5C 31.9217,124.291 33.255,123.791 34.5,123C 35.719,120.722 37.0523,118.555 38.5,116.5C 38.5,116.167 38.5,115.833 38.5,115.5C 39.1667,115.5 39.5,115.167 39.5,114.5C 42.4577,112.215 45.791,110.382 49.5,109C 50.2524,108.329 50.5858,107.496 50.5,106.5C 53.1667,106.167 53.1667,105.833 50.5,105.5C 51.2905,104.599 52.2905,103.932 53.5,103.5C 53.369,104.239 53.5357,104.906 54,105.5C 56.6171,104.781 58.7838,103.447 60.5,101.5C 60.5,100.833 60.1667,100.5 59.5,100.5C 60.4616,98.0144 61.2949,98.0144 62,100.5C 62.8452,97.5878 64.5118,96.5878 67,97.5C 68.487,96.7471 68.6537,95.9138 67.5,95C 68.7659,94.6905 69.9326,94.1905 71,93.5C 71.3333,93.8333 71.6667,94.1667 72,94.5C 73.1934,92.3949 74.8601,90.7282 77,89.5C 77.3333,89.8333 77.6667,90.1667 78,90.5C 80.5995,88.1215 83.4328,86.1215 86.5,84.5C 86.8718,86.6559 87.8718,86.6559 89.5,84.5C 89.3764,83.8933 89.0431,83.56 88.5,83.5C 90.8911,81.6378 93.5578,80.3045 96.5,79.5C 99.9213,79.4824 102.588,78.149 104.5,75.5C 105.167,74.8333 105.833,74.1667 106.5,73.5C 106.5,74.1667 106.833,74.5 107.5,74.5C 108.492,74.6716 109.158,74.3382 109.5,73.5C 111.262,72.7377 112.262,71.4044 112.5,69.5C 113.391,68.8902 114.391,68.5569 115.5,68.5C 115.435,68.9382 115.601,69.2716 116,69.5C 117.399,68.7734 118.899,68.2734 120.5,68C 121.337,66.9887 121.67,65.8221 121.5,64.5C 127.198,60.843 133.198,57.5096 139.5,54.5C 139.5,55.1667 139.833,55.5 140.5,55.5C 146.26,52.5898 151.927,49.4232 157.5,46C 158.823,45.1841 159.489,44.0174 159.5,42.5C 163.268,39.7746 167.268,37.2746 171.5,35C 174.792,32.8118 178.125,31.6451 181.5,31.5C 185.472,29.5489 189.472,27.5489 193.5,25.5C 194.548,24.452 195.548,23.452 196.5,22.5C 196.833,22.5 197.167,22.5 197.5,22.5C 198.338,22.1583 198.672,21.4916 198.5,20.5C 201.291,18.2651 204.291,16.2651 207.5,14.5C 207.369,15.2389 207.536,15.9056 208,16.5C 209.878,15.9473 211.378,14.9473 212.5,13.5C 212.414,12.5041 212.748,11.6708 213.5,11C 218.327,7.81523 222.994,5.31523 227.5,3.5C 227.5,4.16667 227.833,4.5 228.5,4.5C 229.492,4.67158 230.158,4.33825 230.5,3.5C 232.795,2.86446 234.461,1.53112 235.5,-0.5 Z M 226.5,104.5 C 227.833,104.833 229.167,105.167 230.5,105.5C 231.791,105.737 232.791,105.404 233.5,104.5C 245.204,104.23 256.871,104.564 268.5,105.5C 269.492,105.672 270.158,105.338 270.5,104.5C 274.002,105.957 277.669,106.957 281.5,107.5C 283.042,106.699 284.708,106.366 286.5,106.5C 286.082,107.222 285.416,107.722 284.5,108C 288.672,109.646 292.672,110.813 296.5,111.5C 297.833,111.833 299.167,112.167 300.5,112.5C 300.842,113.338 301.508,113.672 302.5,113.5C 304.043,115.557 305.043,115.557 305.5,113.5C 305.833,113.5 306.167,113.5 306.5,113.5C 307.382,115.384 308.882,116.717 311,117.5C 311.333,117.167 311.667,116.833 312,116.5C 313.097,118.053 314.43,119.386 316,120.5C 316.333,120.167 316.667,119.833 317,119.5C 317.708,120.381 318.542,121.047 319.5,121.5C 319.842,122.338 320.508,122.672 321.5,122.5C 326.957,125.277 331.957,128.611 336.5,132.5C 337.183,132.137 337.85,131.804 338.5,131.5C 338.468,133.619 339.468,134.952 341.5,135.5C 341.5,136.167 341.833,136.5 342.5,136.5C 343.914,139.21 345.914,140.21 348.5,139.5C 350.672,144.35 354.006,148.35 358.5,151.5C 362.136,157.463 366.47,162.796 371.5,167.5C 370.167,167.833 370.167,168.167 371.5,168.5C 372.263,170.368 373.263,172.035 374.5,173.5C 374.5,174.167 374.5,174.833 374.5,175.5C 371.787,177.172 369.12,178.838 366.5,180.5C 363.515,181.326 360.849,182.659 358.5,184.5C 357.833,184.5 357.5,184.833 357.5,185.5C 354.932,185.594 353.432,186.928 353,189.5C 352.667,188.833 352.333,188.167 352,187.5C 350.681,189.487 348.848,190.654 346.5,191C 344.757,192.11 343.424,193.61 342.5,195.5C 341.893,195.376 341.56,195.043 341.5,194.5C 335.999,196.747 330.999,199.747 326.5,203.5C 324.685,204.63 322.685,205.296 320.5,205.5C 320.649,206.552 320.483,207.552 320,208.5C 319.023,207.226 318.189,207.226 317.5,208.5C 315.612,209.275 313.612,209.275 311.5,208.5C 311.918,207.778 312.584,207.278 313.5,207C 311.414,204.842 309.414,202.675 307.5,200.5C 307.5,199.833 307.167,199.5 306.5,199.5C 305.167,197.5 303.5,195.833 301.5,194.5C 301.167,193.5 300.5,192.833 299.5,192.5C 298.205,191.512 296.872,190.512 295.5,189.5C 294.198,187.178 292.198,185.845 289.5,185.5C 286.992,183.076 283.992,181.41 280.5,180.5C 277.783,178.015 274.783,176.682 271.5,176.5C 270.833,176.5 270.167,176.5 269.5,176.5C 268.458,175.209 267.292,175.209 266,176.5C 265.047,174.408 263.714,174.075 262,175.5C 261.722,174.584 261.222,173.918 260.5,173.5C 258.234,173.141 256.401,173.808 255,175.5C 254.517,174.552 254.351,173.552 254.5,172.5C 249.146,172.569 243.813,172.902 238.5,173.5C 237.833,174.167 237.167,174.833 236.5,175.5C 236.5,174.833 236.167,174.5 235.5,174.5C 234.5,175.167 233.5,175.833 232.5,176.5C 232.5,175.833 232.167,175.5 231.5,175.5C 228.843,175.935 226.509,176.935 224.5,178.5C 224.167,178.5 223.833,178.5 223.5,178.5C 222.659,177.991 222.159,178.657 222,180.5C 220.86,177.982 219.694,177.982 218.5,180.5C 215.008,181.41 212.008,183.076 209.5,185.5C 206.821,185.525 205.488,186.858 205.5,189.5C 205.167,189.5 204.833,189.5 204.5,189.5C 204.167,188.167 203.833,188.167 203.5,189.5C 199.88,191.453 196.88,194.119 194.5,197.5C 193.5,197.833 192.833,198.5 192.5,199.5C 191.599,200.29 190.932,201.29 190.5,202.5C 188.895,203.006 188.561,203.673 189.5,204.5C 188.602,205.158 187.602,205.824 186.5,206.5C 186.863,207.183 187.196,207.85 187.5,208.5C 184.235,209.256 182.901,211.089 183.5,214C 180.943,216.276 179.276,219.11 178.5,222.5C 177.422,224.539 176.422,226.706 175.5,229C 175.728,229.399 176.062,229.565 176.5,229.5C 176.5,229.833 176.5,230.167 176.5,230.5C 175.662,230.842 175.328,231.508 175.5,232.5C 175.5,232.833 175.5,233.167 175.5,233.5C 174.566,234.568 174.232,235.901 174.5,237.5C 173.167,238.833 173.167,240.167 174.5,241.5C 174.5,242.5 174.5,243.5 174.5,244.5C 174.5,248.833 174.5,253.167 174.5,257.5C 173.258,259.389 173.258,261.389 174.5,263.5C 174.5,264.167 174.5,264.833 174.5,265.5C 175.167,266.833 175.833,268.167 176.5,269.5C 176.5,269.833 176.5,270.167 176.5,270.5C 176.062,270.435 175.728,270.601 175.5,271C 177.808,276.28 180.475,281.78 183.5,287.5C 184.409,289.845 186.075,292.178 188.5,294.5C 191.987,300.785 196.32,305.618 201.5,309C 202.167,309.667 202.833,310.333 203.5,311C 206.979,313.271 210.979,315.438 215.5,317.5C 216.058,318.79 217.058,319.623 218.5,320C 220.101,320.273 221.601,320.773 223,321.5C 223.333,321.167 223.667,320.833 224,320.5C 224.308,321.308 224.808,321.975 225.5,322.5C 226.768,321.572 228.101,321.405 229.5,322C 227.205,322.984 227.539,323.817 230.5,324.5C 232.735,324.972 235.068,324.972 237.5,324.5C 237.833,324.5 238.167,324.5 238.5,324.5C 246.189,327.116 254.022,327.116 262,324.5C 263.907,326.103 265.407,325.77 266.5,323.5C 268.224,324.661 269.89,324.495 271.5,323C 269.405,322.444 269.238,321.944 271,321.5C 272.876,323.123 274.21,322.79 275,320.5C 276.808,320.888 278.475,320.888 280,320.5C 283.877,318.063 287.71,315.729 291.5,313.5C 294.382,312.303 296.549,310.303 298,307.5C 298.333,307.833 298.667,308.167 299,308.5C 305.351,302.814 311.017,296.481 316,289.5C 318.194,291.621 320.694,293.288 323.5,294.5C 323.833,295.833 324.167,295.833 324.5,294.5C 329.572,298.996 334.905,302.329 340.5,304.5C 340.833,305.833 341.167,305.833 341.5,304.5C 343.147,306.326 345.147,307.66 347.5,308.5C 347.833,309.833 348.167,309.833 348.5,308.5C 355.969,314.042 363.636,318.708 371.5,322.5C 372.29,323.401 373.29,324.068 374.5,324.5C 373.606,327.392 372.272,330.059 370.5,332.5C 369.171,334.059 367.838,335.725 366.5,337.5C 367.55,339.102 366.883,339.935 364.5,340C 362.332,342.998 359.999,345.831 357.5,348.5C 356.167,348.833 356.167,349.167 357.5,349.5C 354.522,352.036 351.522,354.703 348.5,357.5C 347.833,357.5 347.5,357.833 347.5,358.5C 345.809,359.864 344.142,361.197 342.5,362.5C 340.46,364.177 338.46,365.844 336.5,367.5C 333.712,368.14 331.879,369.807 331,372.5C 330.667,372.167 330.333,371.833 330,371.5C 327.521,373.314 325.021,374.981 322.5,376.5C 319.255,377.445 316.588,379.111 314.5,381.5C 314.44,380.957 314.107,380.624 313.5,380.5C 310.223,382.467 306.889,384.134 303.5,385.5C 301.009,385.829 298.843,386.829 297,388.5C 294.547,388.059 292.047,388.559 289.5,390C 291.595,390.556 291.762,391.056 290,391.5C 285.917,390.549 282.084,391.216 278.5,393.5C 277.707,393.069 276.873,392.735 276,392.5C 271.849,393.386 267.682,394.22 263.5,395C 270.048,395.879 269.881,396.379 263,396.5C 252.5,395.522 242,395.355 231.5,396C 232.833,395.667 234.167,395.333 235.5,395C 231.318,394.22 227.151,393.386 223,392.5C 222.127,392.735 221.293,393.069 220.5,393.5C 217.021,391.421 213.355,390.754 209.5,391.5C 208.304,391.154 208.304,390.654 209.5,390C 208.906,389.536 208.239,389.369 207.5,389.5C 203.519,389.035 199.519,387.701 195.5,385.5C 192.111,384.134 188.777,382.467 185.5,380.5C 184.893,380.624 184.56,380.957 184.5,381.5C 182.38,379.108 179.713,377.441 176.5,376.5C 176.167,375.167 175.833,375.167 175.5,376.5C 173.632,374.301 171.299,372.634 168.5,371.5C 166.882,369.684 164.882,368.351 162.5,367.5C 160.54,365.844 158.54,364.177 156.5,362.5C 155.205,361.512 153.872,360.512 152.5,359.5C 152.167,358.5 151.5,357.833 150.5,357.5C 150.167,356.5 149.5,355.833 148.5,355.5C 147.5,353.833 146.167,352.5 144.5,351.5C 144.5,350.833 144.167,350.5 143.5,350.5C 143.167,349.5 142.5,348.833 141.5,348.5C 141.5,347.833 141.167,347.5 140.5,347.5C 137.556,343.542 134.556,339.542 131.5,335.5C 129.475,332.792 127.475,330.125 125.5,327.5C 125.672,326.508 125.338,325.842 124.5,325.5C 121.986,323.443 120.653,321.11 120.5,318.5C 119.511,314.624 117.845,311.291 115.5,308.5C 115.367,305.634 114.034,303.634 111.5,302.5C 113.587,300.841 113.254,299.174 110.5,297.5C 110.167,297.5 109.833,297.5 109.5,297.5C 110.597,293.547 109.93,289.88 107.5,286.5C 108.167,286.5 108.5,286.167 108.5,285.5C 108.082,284.778 107.416,284.278 106.5,284C 107.801,282.384 107.801,280.884 106.5,279.5C 106.167,275.5 105.833,275.5 105.5,279.5C 105.167,279.5 104.833,279.5 104.5,279.5C 104.325,277.379 104.659,275.379 105.5,273.5C 105.443,272.391 105.11,271.391 104.5,270.5C 104.5,268.833 104.5,267.167 104.5,265.5C 104.5,264.167 104.5,262.833 104.5,261.5C 104.5,260.833 104.5,260.167 104.5,259.5C 104.715,257.821 104.048,256.821 102.5,256.5C 102.5,253.167 102.5,249.833 102.5,246.5C 104.28,245.01 104.946,243.01 104.5,240.5C 104.473,238.801 103.806,237.467 102.5,236.5C 104.048,236.179 104.715,235.179 104.5,233.5C 105.083,229.75 105.083,226.083 104.5,222.5C 104.721,219.903 105.221,219.903 106,222.5C 106.483,221.552 106.649,220.552 106.5,219.5C 108.016,215.752 109.016,212.085 109.5,208.5C 109.5,207.833 109.5,207.167 109.5,206.5C 110.653,205.687 110.653,204.687 109.5,203.5C 109.846,202.304 110.346,202.304 111,203.5C 112.86,198.342 114.693,193.676 116.5,189.5C 119.256,183.458 122.256,177.958 125.5,173C 125.167,172.667 124.833,172.333 124.5,172C 126.644,171.208 127.977,169.708 128.5,167.5C 128.5,167.167 128.5,166.833 128.5,166.5C 129.833,166.5 130.5,165.833 130.5,164.5C 131.167,164.5 131.5,164.167 131.5,163.5C 134.185,160.81 136.518,157.81 138.5,154.5C 140.727,152.393 142.727,150.06 144.5,147.5C 146.5,145.833 148.5,144.167 150.5,142.5C 151.833,141.833 152.833,140.833 153.5,139.5C 158.873,135.156 164.206,130.823 169.5,126.5C 169.833,127.833 170.167,127.833 170.5,126.5C 175.5,123.833 180.5,121.167 185.5,118.5C 186.167,118.167 186.833,117.833 187.5,117.5C 189.583,116.971 191.417,115.971 193,114.5C 193.333,114.833 193.667,115.167 194,115.5C 195.419,114.54 196.919,113.707 198.5,113C 197.304,112.346 197.304,111.846 198.5,111.5C 201.219,112.255 203.719,111.589 206,109.5C 208.542,110.377 210.709,109.711 212.5,107.5C 212.5,107.167 212.5,106.833 212.5,106.5C 212.833,106.5 213.167,106.5 213.5,106.5C 216.458,107.541 219.458,107.541 222.5,106.5C 224.38,106.771 225.713,106.104 226.5,104.5 Z"/></g>
<g><path style="opacity:0.009" fill="#616161" d="M 234.5,-0.5 C 234.833,-0.5 235.167,-0.5 235.5,-0.5C 234.461,1.53112 232.795,2.86446 230.5,3.5C 230.158,4.33825 229.492,4.67158 228.5,4.5C 227.833,4.5 227.5,4.16667 227.5,3.5C 229.449,1.43695 231.782,0.103618 234.5,-0.5 Z"/></g>
<g><path style="opacity:0.447" fill="#4e4e4e" d="M 263.5,-0.5 C 263.833,-0.5 264.167,-0.5 264.5,-0.5C 267.498,1.57159 270.498,3.23826 273.5,4.5C 272.399,5.59832 271.066,5.76498 269.5,5C 267.163,3.36625 265.163,1.53291 263.5,-0.5 Z"/></g>
<g><path style="opacity:0.004" fill="#7f7f7f" d="M 274.5,5.5 C 276.38,5.22911 277.713,5.89578 278.5,7.5C 278.631,8.23891 278.464,8.90558 278,9.5C 276.373,8.46773 275.207,7.1344 274.5,5.5 Z"/></g>
<g><path style="opacity:0.255" fill="#575757" d="M 212.5,13.5 C 211.378,14.9473 209.878,15.9473 208,16.5C 207.536,15.9056 207.369,15.2389 207.5,14.5C 208.935,12.5989 210.602,12.2655 212.5,13.5 Z"/></g>
<g><path style="opacity:0.012" fill="#606060" d="M 302.5,21.5 C 302.833,21.5 303.167,21.5 303.5,21.5C 305.341,22.4023 306.674,23.7356 307.5,25.5C 305.03,25.3465 303.03,24.3465 301.5,22.5C 302.167,22.5 302.5,22.1667 302.5,21.5 Z"/></g>
<g><path style="opacity:0.004" fill="#5d5d5d" d="M 198.5,20.5 C 198.672,21.4916 198.338,22.1583 197.5,22.5C 197.167,21.1667 196.833,21.1667 196.5,22.5C 195.548,23.452 194.548,24.452 193.5,25.5C 189.472,27.5489 185.472,29.5489 181.5,31.5C 180.407,29.4327 180.907,28.766 183,29.5C 187.859,26.3718 192.859,23.0385 198,19.5C 198.399,19.7284 198.565,20.0618 198.5,20.5 Z"/></g>
<g><path style="opacity:0.006" fill="#7e7e7e" d="M 320.5,31.5 C 318.872,32.8528 317.538,32.5195 316.5,30.5C 316.369,29.7611 316.536,29.0944 317,28.5C 318.039,29.7101 319.206,30.7101 320.5,31.5 Z"/></g>
<g><path style="opacity:0.055" fill="#5d5d5d" d="M 348.5,49.5 C 346.632,48.7368 344.965,47.7368 343.5,46.5C 346.46,45.1506 348.127,46.1506 348.5,49.5 Z"/></g>
<g><path style="opacity:0.02" fill="#545454" d="M 159.5,42.5 C 159.489,44.0174 158.823,45.1841 157.5,46C 151.927,49.4232 146.26,52.5898 140.5,55.5C 139.833,55.5 139.5,55.1667 139.5,54.5C 146.338,49.882 153.005,45.882 159.5,42.5 Z"/></g>
<g><path style="opacity:0.043" fill="#5f5f5f" d="M 351.5,49.5 C 353.483,50.4706 355.483,51.4706 357.5,52.5C 357.631,53.2389 357.464,53.9056 357,54.5C 354.562,53.4316 352.395,52.0983 350.5,50.5C 351.167,50.5 351.5,50.1667 351.5,49.5 Z"/></g>
<g><path style="opacity:0.006" fill="#757575" d="M 378.5,64.5 C 380.795,65.4746 382.795,66.8079 384.5,68.5C 383.833,68.5 383.5,68.8333 383.5,69.5C 380.237,69.3257 378.57,67.659 378.5,64.5 Z"/></g>
<g><path style="opacity:0.898" fill="#515151" d="M 121.5,64.5 C 121.67,65.8221 121.337,66.9887 120.5,68C 118.899,68.2734 117.399,68.7734 116,69.5C 115.601,69.2716 115.435,68.9382 115.5,68.5C 116.802,66.1782 118.802,64.8449 121.5,64.5 Z"/></g>
<g><path style="opacity:0.118" fill="#575757" d="M 112.5,69.5 C 112.262,71.4044 111.262,72.7377 109.5,73.5C 109.158,74.3382 108.492,74.6716 107.5,74.5C 106.833,74.5 106.5,74.1667 106.5,73.5C 108.322,71.9899 110.322,70.6566 112.5,69.5 Z"/></g>
<g><path style="opacity:0.027" fill="#797979" d="M 388.5,70.5 C 390.029,71.2839 391.696,72.2839 393.5,73.5C 390.54,74.8494 388.873,73.8494 388.5,70.5 Z"/></g>
<g><path style="opacity:0.004" fill="#5a5a5a" d="M 104.5,75.5 C 102.588,78.149 99.9213,79.4824 96.5,79.5C 97.3921,77.0543 98.8921,76.3877 101,77.5C 101.667,76.1667 102.667,75.1667 104,74.5C 104.399,74.7284 104.565,75.0618 104.5,75.5 Z"/></g>
<g><path style="opacity:0.004" fill="#4c4c4c" d="M 398.5,76.5 C 402.173,78.0002 405.506,80.0002 408.5,82.5C 407.833,82.5 407.5,82.8333 407.5,83.5C 404.482,82.0226 401.482,80.6893 398.5,79.5C 398.5,78.5 398.5,77.5 398.5,76.5 Z"/></g>
<g><path style="opacity:0.212" fill="#767676" d="M 88.5,83.5 C 89.0431,83.56 89.3764,83.8933 89.5,84.5C 87.8718,86.6559 86.8718,86.6559 86.5,84.5C 87.4916,84.6716 88.1583,84.3382 88.5,83.5 Z"/></g>
<g><path style="opacity:0.035" fill="#515151" d="M 420.5,89.5 C 423.195,89.5627 424.195,90.5627 423.5,92.5C 421.5,92.5 420.5,91.5 420.5,89.5 Z"/></g>
<g><path style="opacity:0.004" fill="#595959" d="M 432.5,97.5 C 432.565,97.9382 432.399,98.2716 432,98.5C 430.855,97.3636 429.688,96.3636 428.5,95.5C 430.829,93.9976 432.163,94.6643 432.5,97.5 Z"/></g>
<g><path style="opacity:0.008" fill="#808080" d="M 438.5,99.5 C 440.027,99.427 441.027,100.094 441.5,101.5C 440.833,101.5 440.5,101.833 440.5,102.5C 439.094,102.027 438.427,101.027 438.5,99.5 Z"/></g>
<g><path style="opacity:0.078" fill="#555555" d="M 59.5,100.5 C 60.1667,100.5 60.5,100.833 60.5,101.5C 58.7838,103.447 56.6171,104.781 54,105.5C 53.5357,104.906 53.369,104.239 53.5,103.5C 55.5168,102.471 57.5168,101.471 59.5,100.5 Z"/></g>
<g><path style="opacity:0.006" fill="#c0c0c0" d="M 233.5,102.5 C 233.5,102.833 233.5,103.167 233.5,103.5C 233.5,103.833 233.5,104.167 233.5,104.5C 232.791,105.404 231.791,105.737 230.5,105.5C 230.5,104.5 230.5,103.5 230.5,102.5C 231.5,102.5 232.5,102.5 233.5,102.5 Z"/></g>
<g><path style="opacity:0.006" fill="#636363" d="M 264.5,102.5 C 265.833,102.5 267.167,102.5 268.5,102.5C 268.5,103.5 268.5,104.5 268.5,105.5C 256.871,104.564 245.204,104.23 233.5,104.5C 233.5,104.167 233.5,103.833 233.5,103.5C 244.014,103.828 254.347,103.494 264.5,102.5 Z"/></g>
<g><path style="opacity:0.082" fill="#666666" d="M 441.5,101.5 C 442.222,101.918 442.722,102.584 443,103.5C 443.333,103.167 443.667,102.833 444,102.5C 445.302,103.085 446.469,103.751 447.5,104.5C 447.631,105.239 447.464,105.906 447,106.5C 444.562,105.432 442.395,104.098 440.5,102.5C 441.167,102.5 441.5,102.167 441.5,101.5 Z"/></g>
<g><path style="opacity:0.004" fill="#adadad" d="M 226.5,104.5 C 225.713,106.104 224.38,106.771 222.5,106.5C 222.5,105.833 222.5,105.167 222.5,104.5C 224.035,103.646 225.368,103.646 226.5,104.5 Z"/></g>
<g><path style="opacity:0.004" fill="#818181" d="M 281.5,107.5 C 277.669,106.957 274.002,105.957 270.5,104.5C 271.861,103.58 273.861,103.246 276.5,103.5C 278.858,104.154 280.525,105.487 281.5,107.5 Z"/></g>
<g><path style="opacity:0.016" fill="#505050" d="M 222.5,104.5 C 222.5,105.167 222.5,105.833 222.5,106.5C 219.458,107.541 216.458,107.541 213.5,106.5C 213.611,105.883 213.944,105.383 214.5,105C 217.146,104.503 219.813,104.336 222.5,104.5 Z"/></g>
<g><path style="opacity:0.835" fill="#494949" d="M 286.5,106.5 C 290.746,106.561 294.746,107.561 298.5,109.5C 297.757,110.182 297.091,110.849 296.5,111.5C 292.672,110.813 288.672,109.646 284.5,108C 285.416,107.722 286.082,107.222 286.5,106.5 Z"/></g>
<g><path style="opacity:0.006" fill="#777777" d="M 448.5,105.5 C 451.634,106.901 454.634,108.568 457.5,110.5C 457.427,112.027 458.094,113.027 459.5,113.5C 460.11,114.391 460.443,115.391 460.5,116.5C 457.854,114.521 455.521,112.188 453.5,109.5C 451.929,108.691 450.262,108.357 448.5,108.5C 448.5,107.5 448.5,106.5 448.5,105.5 Z"/></g>
<g><path style="opacity:0.004" fill="#fefffe" d="M 457.5,110.5 C 459.35,111.242 460.016,112.242 459.5,113.5C 458.094,113.027 457.427,112.027 457.5,110.5 Z"/></g>
<g><path style="opacity:0.145" fill="#8b8b8b" d="M 300.5,111.5 C 301.779,110.285 302.779,110.618 303.5,112.5C 302.833,112.5 302.5,112.833 302.5,113.5C 301.508,113.672 300.842,113.338 300.5,112.5C 301.833,112.167 301.833,111.833 300.5,111.5 Z"/></g>
<g><path style="opacity:0.063" fill="#4a4a4a" d="M 50.5,105.5 C 50.5,105.833 50.5,106.167 50.5,106.5C 50.5858,107.496 50.2524,108.329 49.5,109C 45.791,110.382 42.4577,112.215 39.5,114.5C 38.8333,114.5 38.5,114.833 38.5,115.5C 37.1667,115.833 37.1667,116.167 38.5,116.5C 37.0523,118.555 35.719,120.722 34.5,123C 33.255,123.791 31.9217,124.291 30.5,124.5C 34.1858,115.829 40.8525,109.495 50.5,105.5 Z"/></g>
<g><path style="opacity:0.004" fill="#686868" d="M 212.5,106.5 C 212.5,106.833 212.5,107.167 212.5,107.5C 210.709,109.711 208.542,110.377 206,109.5C 203.719,111.589 201.219,112.255 198.5,111.5C 197.304,111.846 197.304,112.346 198.5,113C 196.919,113.707 195.419,114.54 194,115.5C 193.667,115.167 193.333,114.833 193,114.5C 191.417,115.971 189.583,116.971 187.5,117.5C 186.294,116.12 186.627,114.953 188.5,114C 196.234,110.568 204.234,108.068 212.5,106.5 Z"/></g>
<g><path style="opacity:0.004" fill="#8a8a8a" d="M 303.5,112.5 C 304.492,112.328 305.158,112.662 305.5,113.5C 305.043,115.557 304.043,115.557 302.5,113.5C 303.167,113.5 303.5,113.167 303.5,112.5 Z"/></g>
<g><path style="opacity:0.004" fill="#737373" d="M 306.5,113.5 C 311.219,115.015 315.886,116.848 320.5,119C 321.381,119.708 322.047,120.542 322.5,121.5C 321.833,121.5 321.5,121.833 321.5,122.5C 320.508,122.672 319.842,122.338 319.5,121.5C 318.542,121.047 317.708,120.381 317,119.5C 316.667,119.833 316.333,120.167 316,120.5C 314.43,119.386 313.097,118.053 312,116.5C 311.667,116.833 311.333,117.167 311,117.5C 308.882,116.717 307.382,115.384 306.5,113.5 Z"/></g>
<g><path style="opacity:0.094" fill="#5a5a5a" d="M 464.5,120.5 C 462.833,119.5 461.5,118.167 460.5,116.5C 461.281,114.372 462.281,114.205 463.5,116C 463.167,116.333 462.833,116.667 462.5,117C 464.939,117.533 465.605,118.7 464.5,120.5 Z"/></g>
<g><path style="opacity:0.024" fill="#5e5e5e" d="M 468.5,125.5 C 470.5,126.643 471.167,128.143 470.5,130C 471.167,130.333 471.833,130.667 472.5,131C 471.663,132.011 471.33,133.178 471.5,134.5C 469.69,131.855 468.69,128.855 468.5,125.5 Z"/></g>
<g><path style="opacity:0.012" fill="#666666" d="M 322.5,121.5 C 323.873,121.343 325.207,121.51 326.5,122C 330.751,124.945 334.751,128.112 338.5,131.5C 337.85,131.804 337.183,132.137 336.5,132.5C 331.957,128.611 326.957,125.277 321.5,122.5C 322.167,122.5 322.5,122.167 322.5,121.5 Z"/></g>
<g><path style="opacity:0.196" fill="#717171" d="M 185.5,118.5 C 180.5,121.167 175.5,123.833 170.5,126.5C 170.167,125.167 169.833,125.167 169.5,126.5C 164.206,130.823 158.873,135.156 153.5,139.5C 152.833,140.833 151.833,141.833 150.5,142.5C 150.322,138.62 152.322,135.954 156.5,134.5C 164.793,127.012 174.127,121.012 184.5,116.5C 185.298,116.957 185.631,117.624 185.5,118.5 Z"/></g>
<g><path style="opacity:0.012" fill="#5f5f5f" d="M 338.5,131.5 C 340.122,132.122 341.455,133.122 342.5,134.5C 341.833,134.5 341.5,134.833 341.5,135.5C 339.468,134.952 338.468,133.619 338.5,131.5 Z"/></g>
<g><path style="opacity:0.012" fill="#858585" d="M 348.5,139.5 C 345.914,140.21 343.914,139.21 342.5,136.5C 343.117,136.389 343.617,136.056 344,135.5C 345.667,136.733 347.167,138.067 348.5,139.5 Z"/></g>
<g><path style="opacity:0.169" fill="#7e7e7e" d="M 144.5,147.5 C 142.727,150.06 140.727,152.393 138.5,154.5C 138.5,153.833 138.167,153.5 137.5,153.5C 138.867,149.755 141.201,147.755 144.5,147.5 Z"/></g>
<g><path style="opacity:0.008" fill="#5d5d5d" d="M 137.5,153.5 C 138.167,153.5 138.5,153.833 138.5,154.5C 136.518,157.81 134.185,160.81 131.5,163.5C 130.761,163.631 130.094,163.464 129.5,163C 131.253,159.079 133.919,155.913 137.5,153.5 Z"/></g>
<g><path style="opacity:0.031" fill="#7b7b7b" d="M 366.5,158.5 C 366.062,158.435 365.728,158.601 365.5,159C 370.457,162.798 374.123,167.632 376.5,173.5C 375.833,173.5 375.167,173.5 374.5,173.5C 373.263,172.035 372.263,170.368 371.5,168.5C 372.833,168.167 372.833,167.833 371.5,167.5C 366.47,162.796 362.136,157.463 358.5,151.5C 360.817,150.466 361.817,151.466 361.5,154.5C 363.981,154.774 365.647,156.107 366.5,158.5 Z"/></g>
<g><path style="opacity:0.004" fill="#989898" d="M 128.5,164.5 C 128.833,165.833 129.167,165.833 129.5,164.5C 129.833,164.5 130.167,164.5 130.5,164.5C 130.5,165.833 129.833,166.5 128.5,166.5C 127.167,165.833 127.167,165.167 128.5,164.5 Z"/></g>
<g><path style="opacity:0.058" fill="#d7d7d7" d="M 238.5,173.5 C 238.719,174.675 238.386,175.675 237.5,176.5C 236.893,176.376 236.56,176.043 236.5,175.5C 237.167,174.833 237.833,174.167 238.5,173.5 Z"/></g>
<g><path style="opacity:0.506" fill="#969696" d="M 235.5,174.5 C 235.5,175.5 235.5,176.5 235.5,177.5C 234.209,177.737 233.209,177.404 232.5,176.5C 233.5,175.833 234.5,175.167 235.5,174.5 Z"/></g>
<g><path style="opacity:0.49" fill="#989898" d="M 260.5,173.5 C 261.222,173.918 261.722,174.584 262,175.5C 263.714,174.075 265.047,174.408 266,176.5C 267.292,175.209 268.458,175.209 269.5,176.5C 266.656,177.551 263.656,177.551 260.5,176.5C 260.5,175.5 260.5,174.5 260.5,173.5 Z"/></g>
<g><path style="opacity:0.455" fill="#6e6e6e" d="M 231.5,175.5 C 231.5,176.5 231.5,177.5 231.5,178.5C 228.959,179.103 226.626,179.103 224.5,178.5C 226.509,176.935 228.843,175.935 231.5,175.5 Z"/></g>
<g><path style="opacity:0.025" fill="#6f6f6f" d="M 128.5,167.5 C 127.977,169.708 126.644,171.208 124.5,172C 124.833,172.333 125.167,172.667 125.5,173C 122.256,177.958 119.256,183.458 116.5,189.5C 114.693,193.676 112.86,198.342 111,203.5C 110.346,202.304 109.846,202.304 109.5,203.5C 110.653,204.687 110.653,205.687 109.5,206.5C 108.387,205.054 108.22,203.387 109,201.5C 112.849,190.625 117.849,180.292 124,170.5C 124.908,168.561 126.408,167.561 128.5,167.5 Z"/></g>
<g><path style="opacity:0.212" fill="#6b6b6b" d="M 271.5,176.5 C 274.783,176.682 277.783,178.015 280.5,180.5C 283.992,181.41 286.992,183.076 289.5,185.5C 288.833,185.5 288.5,185.833 288.5,186.5C 282.482,183.768 276.482,180.935 270.5,178C 271.056,177.617 271.389,177.117 271.5,176.5 Z"/></g>
<g><path style="opacity:0.141" fill="#5d5d5d" d="M 223.5,178.5 C 223.5,179.5 223.5,180.5 223.5,181.5C 218.91,182.584 214.576,184.251 210.5,186.5C 210.5,185.833 210.167,185.5 209.5,185.5C 212.008,183.076 215.008,181.41 218.5,180.5C 219.694,177.982 220.86,177.982 222,180.5C 222.159,178.657 222.659,177.991 223.5,178.5 Z"/></g>
<g><path style="opacity:0.765" fill="#7f7f7f" d="M 209.5,185.5 C 210.167,185.5 210.5,185.833 210.5,186.5C 209.232,188.047 207.565,189.047 205.5,189.5C 205.488,186.858 206.821,185.525 209.5,185.5 Z"/></g>
<g><path style="opacity:0.012" fill="#5e5e5e" d="M 289.5,185.5 C 292.198,185.845 294.198,187.178 295.5,189.5C 294.833,189.5 294.5,189.833 294.5,190.5C 292.264,189.454 290.264,188.121 288.5,186.5C 289.167,186.5 289.5,186.167 289.5,185.5 Z"/></g>
<g><path style="opacity:0.086" fill="#787878" d="M 295.5,189.5 C 296.872,190.512 298.205,191.512 299.5,192.5C 300.5,192.833 301.167,193.5 301.5,194.5C 297.96,194.623 295.96,192.957 295.5,189.5 Z"/></g>
<g><path style="opacity:0.004" fill="#767676" d="M 203.5,189.5 C 203.5,190.167 203.833,190.5 204.5,190.5C 203.525,192.193 202.192,193.693 200.5,195C 198.139,195.197 196.472,196.364 195.5,198.5C 194.893,198.376 194.56,198.043 194.5,197.5C 196.88,194.119 199.88,191.453 203.5,189.5 Z"/></g>
<g><path style="opacity:0.863" fill="#696969" d="M 301.5,194.5 C 303.5,195.833 305.167,197.5 306.5,199.5C 305.453,200.078 305.62,200.744 307,201.5C 307.399,201.272 307.565,200.938 307.5,200.5C 309.414,202.675 311.414,204.842 313.5,207C 312.584,207.278 311.918,207.778 311.5,208.5C 309.572,205.402 307.072,202.735 304,200.5C 302.878,198.593 302.045,196.593 301.5,194.5 Z"/></g>
<g><path style="opacity:0.02" fill="#c5c5c5" d="M 190.5,202.5 C 191.757,203.623 191.424,204.289 189.5,204.5C 188.561,203.673 188.895,203.006 190.5,202.5 Z"/></g>
<g><path style="opacity:0.482" fill="#646464" d="M 109.5,208.5 C 109.016,212.085 108.016,215.752 106.5,219.5C 106.649,220.552 106.483,221.552 106,222.5C 105.221,219.903 104.721,219.903 104.5,222.5C 103.876,222.083 103.543,221.416 103.5,220.5C 103.441,215.284 105.441,211.284 109.5,208.5 Z"/></g>
<g><path style="opacity:0.122" fill="#797979" d="M 187.5,208.5 C 184.718,213.568 182.052,218.568 179.5,223.5C 179.5,222.833 179.167,222.5 178.5,222.5C 179.276,219.11 180.943,216.276 183.5,214C 182.901,211.089 184.235,209.256 187.5,208.5 Z"/></g>
<g><path style="opacity:0.004" fill="#5a5a5a" d="M 178.5,222.5 C 179.167,222.5 179.5,222.833 179.5,223.5C 179.913,226.32 178.913,228.32 176.5,229.5C 176.062,229.565 175.728,229.399 175.5,229C 176.422,226.706 177.422,224.539 178.5,222.5 Z"/></g>
<g><path style="opacity:0.224" fill="#9f9f9f" d="M 176.5,230.5 C 177.757,231.623 177.424,232.289 175.5,232.5C 175.328,231.508 175.662,230.842 176.5,230.5 Z"/></g>
<g><path style="opacity:0.029" fill="#eeeeee" d="M 104.5,233.5 C 104.715,235.179 104.048,236.179 102.5,236.5C 102.285,234.821 102.952,233.821 104.5,233.5 Z"/></g>
<g><path style="opacity:0.039" fill="#585858" d="M 175.5,233.5 C 177.836,235.073 177.836,236.406 175.5,237.5C 175.167,237.5 174.833,237.5 174.5,237.5C 174.232,235.901 174.566,234.568 175.5,233.5 Z"/></g>
<g><path style="opacity:0.961" fill="#8d8d8d" d="M 174.5,241.5 C 177.167,242.5 177.167,243.5 174.5,244.5C 174.5,243.5 174.5,242.5 174.5,241.5 Z"/></g>
<g><path style="opacity:0.247" fill="#a7a7a7" d="M 104.5,240.5 C 104.946,243.01 104.28,245.01 102.5,246.5C 101.539,244.735 101.205,242.735 101.5,240.5C 102.5,240.5 103.5,240.5 104.5,240.5 Z"/></g>
<g><path style="opacity:0.008" fill="#9d9d9d" d="M 102.5,256.5 C 104.048,256.821 104.715,257.821 104.5,259.5C 103.5,259.5 102.5,259.5 101.5,259.5C 101.263,258.209 101.596,257.209 102.5,256.5 Z"/></g>
<g><path style="opacity:0.173" fill="#6a6a6a" d="M 174.5,257.5 C 174.343,258.873 174.51,260.207 175,261.5C 175.464,260.906 175.631,260.239 175.5,259.5C 176.613,260.946 176.78,262.613 176,264.5C 175.617,263.944 175.117,263.611 174.5,263.5C 173.258,261.389 173.258,259.389 174.5,257.5 Z"/></g>
<g><path style="opacity:0.043" fill="#dddddd" d="M 104.5,261.5 C 104.5,262.833 104.5,264.167 104.5,265.5C 103.414,265.38 102.747,264.713 102.5,263.5C 102.747,262.287 103.414,261.62 104.5,261.5 Z"/></g>
<g><path style="opacity:0.235" fill="#848484" d="M 174.5,265.5 C 175.5,265.5 176.5,265.5 177.5,265.5C 177.768,267.099 177.434,268.432 176.5,269.5C 175.833,268.167 175.167,266.833 174.5,265.5 Z"/></g>
<g><path style="opacity:0.016" fill="#ababab" d="M 104.5,270.5 C 105.11,271.391 105.443,272.391 105.5,273.5C 103.448,272.947 103.115,271.947 104.5,270.5 Z"/></g>
<g><path style="opacity:0.004" fill="#6e6e6e" d="M 176.5,270.5 C 178.074,270.937 179.241,271.937 180,273.5C 181.442,277.609 182.942,281.609 184.5,285.5C 183.662,285.842 183.328,286.508 183.5,287.5C 180.475,281.78 177.808,276.28 175.5,271C 175.728,270.601 176.062,270.435 176.5,270.5 Z"/></g>
<g><path style="opacity:0.006" fill="#616161" d="M 104.5,279.5 C 104.833,279.5 105.167,279.5 105.5,279.5C 105.833,283.5 106.167,283.5 106.5,279.5C 107.801,280.884 107.801,282.384 106.5,284C 107.416,284.278 108.082,284.778 108.5,285.5C 105.221,284.969 103.887,282.969 104.5,279.5 Z"/></g>
<g><path style="opacity:0.337" fill="#818181" d="M 107.5,286.5 C 109.93,289.88 110.597,293.547 109.5,297.5C 108.072,294.587 107.072,291.421 106.5,288C 106.57,287.235 106.903,286.735 107.5,286.5 Z"/></g>
<g><path style="opacity:0.008" fill="#a4a4a4" d="M 184.5,285.5 C 186.664,287.822 188.331,290.489 189.5,293.5C 188.833,293.5 188.5,293.833 188.5,294.5C 186.075,292.178 184.409,289.845 183.5,287.5C 184.338,287.158 184.672,286.492 184.5,285.5 Z"/></g>
<g><path style="opacity:0.051" fill="#a1a1a1" d="M 377.5,324.5 C 376.5,324.5 375.5,324.5 374.5,324.5C 373.29,324.068 372.29,323.401 371.5,322.5C 363.636,318.708 355.969,314.042 348.5,308.5C 348.167,307.167 347.833,307.167 347.5,308.5C 345.147,307.66 343.147,306.326 341.5,304.5C 341.167,303.167 340.833,303.167 340.5,304.5C 334.905,302.329 329.572,298.996 324.5,294.5C 324.167,293.167 323.833,293.167 323.5,294.5C 320.694,293.288 318.194,291.621 316,289.5C 311.017,296.481 305.351,302.814 299,308.5C 298.667,308.167 298.333,307.833 298,307.5C 296.549,310.303 294.382,312.303 291.5,313.5C 287.71,315.729 283.877,318.063 280,320.5C 278.475,320.888 276.808,320.888 275,320.5C 274.21,322.79 272.876,323.123 271,321.5C 269.238,321.944 269.405,322.444 271.5,323C 269.89,324.495 268.224,324.661 266.5,323.5C 265.407,325.77 263.907,326.103 262,324.5C 254.022,327.116 246.189,327.116 238.5,324.5C 270.784,325.691 296.118,313.025 314.5,286.5C 333.67,297.919 353.003,309.086 372.5,320C 374.692,321.067 376.358,322.567 377.5,324.5 Z"/></g>
<g><path style="opacity:0.004" fill="#6b6b6b" d="M 109.5,297.5 C 109.833,297.5 110.167,297.5 110.5,297.5C 113.254,299.174 113.587,300.841 111.5,302.5C 110.662,302.158 110.328,301.492 110.5,300.5C 110.938,300.565 111.272,300.399 111.5,300C 110.244,299.583 109.577,298.75 109.5,297.5 Z"/></g>
<g><path style="opacity:0.451" fill="#646464" d="M 111.5,302.5 C 114.034,303.634 115.367,305.634 115.5,308.5C 117.845,311.291 119.511,314.624 120.5,318.5C 119.833,318.5 119.5,318.833 119.5,319.5C 118.542,319.047 117.708,318.381 117,317.5C 116.726,314.285 115.393,311.619 113,309.5C 112.023,307.26 111.523,304.927 111.5,302.5 Z"/></g>
<g><path style="opacity:0.451" fill="#a0a0a0" d="M 189.5,293.5 C 191.063,294.945 192.396,296.611 193.5,298.5C 202.224,307.042 212.224,313.875 223.5,319C 227.5,320 231.5,321 235.5,322C 236.756,322.417 237.423,323.25 237.5,324.5C 235.068,324.972 232.735,324.972 230.5,324.5C 227.539,323.817 227.205,322.984 229.5,322C 228.101,321.405 226.768,321.572 225.5,322.5C 224.808,321.975 224.308,321.308 224,320.5C 223.667,320.833 223.333,321.167 223,321.5C 221.601,320.773 220.101,320.273 218.5,320C 217.058,319.623 216.058,318.79 215.5,317.5C 210.979,315.438 206.979,313.271 203.5,311C 202.833,310.333 202.167,309.667 201.5,309C 196.32,305.618 191.987,300.785 188.5,294.5C 189.167,294.5 189.5,294.167 189.5,293.5 Z"/></g>
<g><path style="opacity:0.147" fill="#717171" d="M 120.5,318.5 C 120.653,321.11 121.986,323.443 124.5,325.5C 123.833,325.5 123.5,325.833 123.5,326.5C 121.412,324.664 120.079,322.331 119.5,319.5C 120.167,319.5 120.5,319.167 120.5,318.5 Z"/></g>
<g><path style="opacity:1" fill="#545454" d="M 374.5,324.5 C 375.5,324.5 376.5,324.5 377.5,324.5C 376.286,327.253 374.786,329.92 373,332.5C 372.23,333.598 371.397,333.598 370.5,332.5C 372.272,330.059 373.606,327.392 374.5,324.5 Z"/></g>
<g><path style="opacity:0.239" fill="#6d6d6d" d="M 124.5,325.5 C 125.338,325.842 125.672,326.508 125.5,327.5C 127.475,330.125 129.475,332.792 131.5,335.5C 130.603,336.598 129.77,336.598 129,335.5C 127.799,333.091 126.133,331.091 124,329.5C 123.517,328.552 123.351,327.552 123.5,326.5C 124.167,326.5 124.5,326.167 124.5,325.5 Z"/></g>
<g><path style="opacity:0.212" fill="#6d6d6d" d="M 26.5,362.5 C 29.1749,366.766 31.5083,371.433 33.5,376.5C 33.1667,376.5 32.8333,376.5 32.5,376.5C 30.5475,375.374 29.0475,373.708 28,371.5C 27.2996,368.629 26.7996,365.629 26.5,362.5 Z"/></g>
<g><path style="opacity:0.012" fill="#9c9c9c" d="M 471.5,365.5 C 472.098,367.357 472.098,369.023 471.5,370.5C 470.735,373.426 469.068,375.426 466.5,376.5C 467.221,372.311 468.887,368.645 471.5,365.5 Z"/></g>
<g><path style="opacity:0.157" fill="#c4c4c4" d="M 465.5,377.5 C 466.54,379.719 466.04,381.719 464,383.5C 462.044,385.548 459.877,387.214 457.5,388.5C 457.5,388.167 457.5,387.833 457.5,387.5C 459.471,384.131 462.138,380.797 465.5,377.5 Z"/></g>
<g><path style="opacity:0.239" fill="#aeaeae" d="M 32.5,376.5 C 32.8333,376.5 33.1667,376.5 33.5,376.5C 35.5499,380.061 38.2166,383.228 41.5,386C 48.6745,390.363 55.6745,394.863 62.5,399.5C 60.7768,400.072 59.2768,400.072 58,399.5C 55.7417,397.57 53.2417,396.07 50.5,395C 49.8742,394.25 49.3742,393.416 49,392.5C 48.6667,392.833 48.3333,393.167 48,393.5C 42.2434,389.748 37.0768,385.248 32.5,380C 33.6843,378.855 33.6843,377.688 32.5,376.5 Z"/></g>
<g><path style="opacity:0.004" fill="#909190" d="M 433.5,402.5 C 433.833,402.5 434.167,402.5 434.5,402.5C 434.315,403.17 433.981,403.17 433.5,402.5 Z"/></g>
<g><path style="opacity:0.027" fill="#a3a3a3" d="M 62.5,399.5 C 65.8888,400.691 69.2221,402.191 72.5,404C 76.5796,406.029 80.2463,408.529 83.5,411.5C 80.4877,412.431 77.9877,411.431 76,408.5C 74.0573,408.959 72.724,407.959 72,405.5C 69.6696,406.156 68.0029,405.156 67,402.5C 64.4478,403.487 62.9478,402.487 62.5,399.5 Z"/></g>
<g><path style="opacity:0.02" fill="#a3a3a3" d="M 456.5,387.5 C 456.5,388.167 456.833,388.5 457.5,388.5C 455.034,389.381 452.7,391.214 450.5,394C 444.702,397.382 439.368,400.215 434.5,402.5C 434.167,401.167 433.833,401.167 433.5,402.5C 430.274,404.702 427.107,407.035 424,409.5C 423.667,409.167 423.333,408.833 423,408.5C 418.771,410.459 414.938,412.793 411.5,415.5C 411.167,414.167 410.833,414.167 410.5,415.5C 403.421,421.587 395.421,426.087 386.5,429C 386.833,429.333 387.167,429.667 387.5,430C 384.606,431.793 381.606,433.293 378.5,434.5C 378.167,433.167 377.833,433.167 377.5,434.5C 373.111,438.676 368.445,441.676 363.5,443.5C 363.167,442.167 362.833,442.167 362.5,443.5C 360.093,444.769 357.426,446.436 354.5,448.5C 354.167,447.167 353.833,447.167 353.5,448.5C 351.196,450.583 348.696,452.583 346,454.5C 345.667,453.833 345.333,453.167 345,452.5C 344.487,454.521 343.32,456.021 341.5,457C 340.551,457.617 339.718,457.451 339,456.5C 334.101,460.752 328.267,464.419 321.5,467.5C 321.167,466.167 320.833,466.167 320.5,467.5C 316.449,471.029 311.949,474.029 307,476.5C 306.667,476.167 306.333,475.833 306,475.5C 305.535,476.931 304.701,478.097 303.5,479C 300.867,479.423 298.701,480.59 297,482.5C 296.667,482.167 296.333,481.833 296,481.5C 291.23,485.467 286.063,488.8 280.5,491.5C 280.158,490.662 279.492,490.328 278.5,490.5C 289.002,483.412 300.002,477.079 311.5,471.5C 359.431,442.705 407.764,414.705 456.5,387.5 Z"/></g>
<g><path style="opacity:0.008" fill="#b5b6b5" d="M 410.5,415.5 C 410.833,415.5 411.167,415.5 411.5,415.5C 411.315,416.17 410.981,416.17 410.5,415.5 Z"/></g>
<g><path style="opacity:0.11" fill="#a6a6a6" d="M 83.5,411.5 C 88.7146,413.441 93.7146,415.941 98.5,419C 99.3805,419.708 100.047,420.542 100.5,421.5C 99.1751,422.953 98.3418,422.619 98,420.5C 97,420.5 96,420.5 95,420.5C 93.4301,419.386 92.0968,418.053 91,416.5C 90.6667,416.833 90.3333,417.167 90,417.5C 87.2425,416.055 85.0759,414.055 83.5,411.5 Z"/></g>
<g><path style="opacity:0.063" fill="#989898" d="M 100.5,421.5 C 108.914,424.596 116.581,428.93 123.5,434.5C 122.85,434.804 122.183,435.137 121.5,435.5C 118.262,433.725 115.262,431.725 112.5,429.5C 112.167,428.167 111.833,428.167 111.5,429.5C 109.118,428.649 107.118,427.316 105.5,425.5C 105.167,424.167 104.833,424.167 104.5,425.5C 102.5,424.833 101.167,423.5 100.5,421.5 Z"/></g>
<g><path style="opacity:0.004" fill="#fefffe" d="M 104.5,425.5 C 104.833,425.5 105.167,425.5 105.5,425.5C 105.315,426.17 104.981,426.17 104.5,425.5 Z"/></g>
<g><path style="opacity:0.004" fill="#7f807f" d="M 111.5,429.5 C 111.833,429.5 112.167,429.5 112.5,429.5C 112.315,430.17 111.981,430.17 111.5,429.5 Z"/></g>
<g><path style="opacity:0.004" fill="#939493" d="M 377.5,434.5 C 377.833,434.5 378.167,434.5 378.5,434.5C 378.315,435.17 377.981,435.17 377.5,434.5 Z"/></g>
<g><path style="opacity:0.004" fill="#fefffe" d="M 362.5,443.5 C 362.833,443.5 363.167,443.5 363.5,443.5C 363.315,444.17 362.981,444.17 362.5,443.5 Z"/></g>
<g><path style="opacity:0.047" fill="#a4a4a4" d="M 123.5,434.5 C 128.447,436.973 133.447,439.473 138.5,442C 146.231,446.858 153.898,451.691 161.5,456.5C 160.504,456.414 159.671,456.748 159,457.5C 147.379,450.231 135.879,443.564 124.5,437.5C 123.614,436.675 123.281,435.675 123.5,434.5 Z"/></g>
<g><path style="opacity:0.008" fill="#bebfbe" d="M 353.5,448.5 C 353.833,448.5 354.167,448.5 354.5,448.5C 354.315,449.17 353.981,449.17 353.5,448.5 Z"/></g>
<g><path style="opacity:0.004" fill="#fefffe" d="M 161.5,457.5 C 160.833,458.167 160.833,458.167 161.5,457.5 Z"/></g>
<g><path style="opacity:0.337" fill="#a0a0a0" d="M 161.5,457.5 C 161.5,457.167 161.5,456.833 161.5,456.5C 164.992,457.41 167.992,459.076 170.5,461.5C 169.833,461.5 169.5,461.833 169.5,462.5C 166.284,460.799 163.617,459.132 161.5,457.5 Z"/></g>
<g><path style="opacity:0.149" fill="#a6a6a6" d="M 170.5,461.5 C 176.668,464.08 182.335,467.414 187.5,471.5C 190.1,472.468 192.434,473.801 194.5,475.5C 193.833,475.5 193.5,475.833 193.5,476.5C 191.418,476.376 189.918,475.376 189,473.5C 188.667,473.833 188.333,474.167 188,474.5C 184.926,471.909 181.759,469.576 178.5,467.5C 178.167,466.167 177.833,466.167 177.5,467.5C 174.306,465.833 171.64,464.167 169.5,462.5C 170.167,462.5 170.5,462.167 170.5,461.5 Z"/></g>
<g><path style="opacity:0.004" fill="#7f807f" d="M 177.5,467.5 C 177.833,467.5 178.167,467.5 178.5,467.5C 178.315,468.17 177.981,468.17 177.5,467.5 Z"/></g>
<g><path style="opacity:0.008" fill="#a9aaa9" d="M 320.5,467.5 C 320.833,467.5 321.167,467.5 321.5,467.5C 321.315,468.17 320.981,468.17 320.5,467.5 Z"/></g>
<g><path style="opacity:0.008" fill="#a9aaa9" d="M 193.5,476.5 C 193.833,476.5 194.167,476.5 194.5,476.5C 194.315,477.17 193.981,477.17 193.5,476.5 Z"/></g>
<g><path style="opacity:0.016" fill="#b8b8b8" d="M 194.5,476.5 C 194.5,476.167 194.5,475.833 194.5,475.5C 197.78,476.807 200.78,478.473 203.5,480.5C 199.671,480.682 196.671,479.348 194.5,476.5 Z"/></g>
<g><path style="opacity:0.004" fill="#7f807f" d="M 201.5,481.5 C 202.833,482.167 202.833,482.167 201.5,481.5 Z"/></g>
<g><path style="opacity:0.082" fill="#9c9c9c" d="M 203.5,480.5 C 210.611,483.555 217.277,487.389 223.5,492C 229.037,495.004 234.704,497.504 240.5,499.5C 238.833,499.5 237.167,499.5 235.5,499.5C 235.167,498.167 234.833,498.167 234.5,499.5C 233.833,499.5 233.167,499.5 232.5,499.5C 228.391,497.677 224.391,494.843 220.5,491C 217.535,491.444 215.035,490.277 213,487.5C 211.057,487.959 209.724,486.959 209,484.5C 208.667,484.833 208.333,485.167 208,485.5C 207.097,484.299 205.931,483.465 204.5,483C 203.748,482.329 203.414,481.496 203.5,480.5 Z"/></g>
<g><path style="opacity:0.004" fill="#7f807f" d="M 280.5,491.5 C 279.833,492.167 279.833,492.167 280.5,491.5 Z"/></g>
<g><path style="opacity:0.016" fill="#9a9a9a" d="M 278.5,490.5 C 277.969,492.544 276.802,494.211 275,495.5C 274.586,495.043 274.086,494.709 273.5,494.5C 271.716,496.517 269.716,498.184 267.5,499.5C 266.833,499.5 266.167,499.5 265.5,499.5C 265.167,498.167 264.833,498.167 264.5,499.5C 262.5,499.5 260.5,499.5 258.5,499.5C 265.386,497.058 272.053,494.058 278.5,490.5 Z"/></g>
</svg>
