<?xml version="1.0" encoding="UTF-8"?>
<!DOCTYPE svg PUBLIC "-//W3C//DTD SVG 1.1//EN" "http://www.w3.org/Graphics/SVG/1.1/DTD/svg11.dtd">
<svg xmlns="http://www.w3.org/2000/svg" version="1.1" width="512px" height="369px" style="shape-rendering:geometricPrecision; text-rendering:geometricPrecision; image-rendering:optimizeQuality; fill-rule:evenodd; clip-rule:evenodd" xmlns:xlink="http://www.w3.org/1999/xlink">
<g><path style="opacity:0.928" fill="#000000" d="M 231.5,-0.5 C 248.833,-0.5 266.167,-0.5 283.5,-0.5C 284.65,15.4259 284.817,31.4259 284,47.5C 283.5,48 283,48.5 282.5,49C 265.833,49.6667 249.167,49.6667 232.5,49C 231.692,48.6924 231.025,48.1924 230.5,47.5C 229.35,32.5448 229.183,17.5448 230,2.5C 230.513,1.47344 231.013,0.473444 231.5,-0.5 Z"/></g>
<g><path style="opacity:0.946" fill="#000000" d="M 106.5,57.5 C 123.547,57.181 140.547,57.5143 157.5,58.5C 158.192,59.0253 158.692,59.6919 159,60.5C 159.667,75.1667 159.667,89.8333 159,104.5C 158.5,105 158,105.5 157.5,106C 140.167,106.667 122.833,106.667 105.5,106C 104.841,98.0759 104.507,90.0759 104.5,82C 104.531,73.601 105.198,65.4343 106.5,57.5 Z"/></g>
<g><path style="opacity:0.95" fill="#000000" d="M 169.5,57.5 C 186.513,57.1672 203.513,57.5005 220.5,58.5C 220.808,59.3081 221.308,59.9747 222,60.5C 222.167,67.6667 222.333,74.8333 222.5,82C 222.636,89.9323 222.136,97.7657 221,105.5C 203.564,106.824 186.064,106.824 168.5,105.5C 167.35,90.2113 167.183,74.878 168,59.5C 168.717,58.9558 169.217,58.2891 169.5,57.5 Z"/></g>
<g><path style="opacity:0.946" fill="#000000" d="M 231.5,57.5 C 248.503,57.3334 265.503,57.5001 282.5,58C 283,58.5 283.5,59 284,59.5C 284.667,74.8333 284.667,90.1667 284,105.5C 266.574,106.658 249.074,106.825 231.5,106C 231,105.5 230.5,105 230,104.5C 229.333,89.8333 229.333,75.1667 230,60.5C 230.513,59.4734 231.013,58.4734 231.5,57.5 Z"/></g>
<g><path style="opacity:0.984" fill="#000000" d="M 511.5,140.5 C 511.5,143.167 511.5,145.833 511.5,148.5C 495.375,180.483 469.041,195.483 432.5,193.5C 394.412,300.523 318.412,358.856 204.5,368.5C 186.833,368.5 169.167,368.5 151.5,368.5C 130.611,366.039 109.944,361.872 89.5,356C 65.6358,347.473 46.1358,332.973 31,312.5C 14.0372,284.446 3.53723,254.113 -0.5,221.5C -0.5,208.5 -0.5,195.5 -0.5,182.5C 1.59981,180.502 3.59981,178.335 5.5,176C 7.24635,175.529 8.91302,174.862 10.5,174C 125.5,173.667 240.5,173.333 355.5,173C 367.131,172.415 378.131,169.582 388.5,164.5C 380.388,149.916 377.222,134.25 379,117.5C 381.106,99.3707 387.939,83.3707 399.5,69.5C 423.806,82.6175 438.639,102.618 444,129.5C 461.646,126.315 479.146,127.148 496.5,132C 501.869,134.381 506.869,137.214 511.5,140.5 Z"/></g>
<g><path style="opacity:0.947" fill="#000000" d="M 43.5,115.5 C 60.8461,115.167 78.1795,115.5 95.5,116.5C 96.1515,124.287 96.4848,132.121 96.5,140C 96.6372,148.265 96.1372,156.432 95,164.5C 78.2406,165.658 61.4073,165.825 44.5,165C 44,164.5 43.5,164 43,163.5C 42.1831,147.426 42.3498,131.426 43.5,115.5 Z"/></g>
<g><path style="opacity:0.929" fill="#000000" d="M 105.5,115.5 C 122.837,115.333 140.17,115.5 157.5,116C 158.126,116.75 158.626,117.584 159,118.5C 159.167,125.667 159.333,132.833 159.5,140C 159.636,147.932 159.136,155.766 158,163.5C 157.25,164.126 156.416,164.626 155.5,165C 139.167,165.667 122.833,165.667 106.5,165C 106,164.5 105.5,164 105,163.5C 104.183,147.426 104.35,131.426 105.5,115.5 Z"/></g>
<g><path style="opacity:0.934" fill="#000000" d="M 169.5,115.5 C 186.503,115.333 203.503,115.5 220.5,116C 221.191,117.067 221.691,118.234 222,119.5C 222.167,126.5 222.333,133.5 222.5,140.5C 222.635,148.266 222.135,155.933 221,163.5C 220.5,164 220,164.5 219.5,165C 203.167,165.667 186.833,165.667 170.5,165C 169.667,164.167 168.833,163.333 168,162.5C 167.333,147.5 167.333,132.5 168,117.5C 168.717,116.956 169.217,116.289 169.5,115.5 Z"/></g>
<g><path style="opacity:0.929" fill="#000000" d="M 231.5,115.5 C 248.837,115.333 266.17,115.5 283.5,116C 284.657,131.759 284.824,147.592 284,163.5C 283.25,164.126 282.416,164.626 281.5,165C 265.167,165.667 248.833,165.667 232.5,165C 231.667,164.167 230.833,163.333 230,162.5C 229.333,147.833 229.333,133.167 230,118.5C 230.513,117.473 231.013,116.473 231.5,115.5 Z"/></g>
<g><path style="opacity:0.947" fill="#000000" d="M 294.5,115.5 C 311.846,115.167 329.179,115.5 346.5,116.5C 347.151,124.287 347.485,132.121 347.5,140C 347.637,148.265 347.137,156.432 346,164.5C 329.241,165.658 312.407,165.825 295.5,165C 295,164.5 294.5,164 294,163.5C 293.183,147.426 293.35,131.426 294.5,115.5 Z"/></g>
</svg>
