<?xml version="1.0" encoding="UTF-8"?>
<!DOCTYPE svg PUBLIC "-//W3C//DTD SVG 1.1//EN" "http://www.w3.org/Graphics/SVG/1.1/DTD/svg11.dtd">
<svg xmlns="http://www.w3.org/2000/svg" version="1.1" width="512px" height="512px" style="shape-rendering:geometricPrecision; text-rendering:geometricPrecision; image-rendering:optimizeQuality; fill-rule:evenodd; clip-rule:evenodd" xmlns:xlink="http://www.w3.org/1999/xlink">
<g><path style="opacity:0.987" fill="#000000" d="M 226.5,-0.5 C 245.833,-0.5 265.167,-0.5 284.5,-0.5C 375.4,12.845 442.567,59.845 486,140.5C 498.42,168.05 506.92,196.717 511.5,226.5C 511.5,245.833 511.5,265.167 511.5,284.5C 498.169,375.361 451.169,442.528 370.5,486C 342.951,498.42 314.285,506.92 284.5,511.5C 265.167,511.5 245.833,511.5 226.5,511.5C 135.53,498.13 68.3629,451.13 25,370.5C 12.5804,342.951 4.08045,314.285 -0.5,284.5C -0.5,265.167 -0.5,245.833 -0.5,226.5C 12.8875,135.478 59.8875,68.3117 140.5,25C 168.038,12.5809 196.705,4.08094 226.5,-0.5 Z M 279.5,55.5 C 280.499,107.331 280.832,159.331 280.5,211.5C 308.841,211.167 337.175,211.5 365.5,212.5C 324.922,293.989 284.089,375.322 243,456.5C 242.5,404.168 242.333,351.834 242.5,299.5C 213.5,299.5 184.5,299.5 155.5,299.5C 155.343,298.127 155.51,296.793 156,295.5C 197.405,215.693 238.571,135.693 279.5,55.5 Z"/></g>
</svg>
