<?xml version="1.0" encoding="UTF-8"?>
<!DOCTYPE svg PUBLIC "-//W3C//DTD SVG 1.1//EN" "http://www.w3.org/Graphics/SVG/1.1/DTD/svg11.dtd">
<svg xmlns="http://www.w3.org/2000/svg" version="1.1" width="500px" height="500px" style="shape-rendering:geometricPrecision; text-rendering:geometricPrecision; image-rendering:optimizeQuality; fill-rule:evenodd; clip-rule:evenodd" xmlns:xlink="http://www.w3.org/1999/xlink">
<g><path style="opacity:0.004" fill="#fefffe" d="M 146.5,4.5 C 147.833,5.16667 147.833,5.16667 146.5,4.5 Z"/></g>
<g><path style="opacity:0.004" fill="#fefffe" d="M 234.5,9.5 C 235.833,10.1667 235.833,10.1667 234.5,9.5 Z"/></g>
<g><path style="opacity:0.004" fill="#fefffe" d="M 341.5,12.5 C 342.833,13.1667 342.833,13.1667 341.5,12.5 Z"/></g>
<g><path style="opacity:0.004" fill="#fefffe" d="M 312.5,17.5 C 313.833,18.1667 313.833,18.1667 312.5,17.5 Z"/></g>
<g><path style="opacity:0.004" fill="#fefffe" d="M 259.5,19.5 C 260.833,20.1667 260.833,20.1667 259.5,19.5 Z"/></g>
<g><path style="opacity:0.004" fill="#fefffe" d="M 406.5,21.5 C 407.833,22.1667 407.833,22.1667 406.5,21.5 Z"/></g>
<g><path style="opacity:0.004" fill="#fefffe" d="M 20.5,27.5 C 21.8333,28.1667 21.8333,28.1667 20.5,27.5 Z"/></g>
<g><path style="opacity:0.004" fill="#fefffe" d="M 319.5,32.5 C 320.833,33.1667 320.833,33.1667 319.5,32.5 Z"/></g>
<g><path style="opacity:0.974" fill="#010101" d="M 499.5,441.5 C 499.5,444.167 499.5,446.833 499.5,449.5C 498.601,452.99 496.268,455.157 492.5,456C 483.833,457.667 475.167,459.333 466.5,461C 463.321,462.558 460.321,464.391 457.5,466.5C 446.926,462.394 437.093,463.06 428,468.5C 427.667,468.167 427.333,467.833 427,467.5C 422.757,469.688 418.257,471.188 413.5,472C 355.022,481.303 296.688,480.303 238.5,469C 205.938,461.602 175.938,448.602 148.5,430C 135.838,420.321 123.505,410.155 111.5,399.5C 60.4074,342.983 27.9074,277.65 14,203.5C 10.4088,189.877 5.57544,176.877 -0.5,164.5C -0.5,161.167 -0.5,157.833 -0.5,154.5C 3.11721,142.426 10.2839,133.759 21,128.5C 20.7093,125.705 20.2093,122.871 19.5,120C 20.1262,114.425 23.1262,110.758 28.5,109C 31.334,108.955 33.834,108.121 36,106.5C 37.3946,107.815 38.3946,107.481 39,105.5C 39.3333,105.833 39.6667,106.167 40,106.5C 48.1043,99.4399 48.9376,91.7733 42.5,83.5C 46.1019,78.1898 50.7686,74.0231 56.5,71C 60.4621,68.0661 61.9621,64.2328 61,59.5C 53.6743,55.1653 49.6743,48.832 49,40.5C 53.3343,33.717 59.501,31.217 67.5,33C 69.676,33.1629 71.5093,33.9963 73,35.5C 73.3333,35.1667 73.6667,34.8333 74,34.5C 75.152,36.6487 76.652,38.482 78.5,40C 77.1667,43 77.1667,46 78.5,49C 72.7345,58.8193 76.2345,63.6527 89,63.5C 94.1703,63.1095 99.1703,62.7762 104,62.5C 108.899,66.259 109.732,70.759 106.5,76C 112.315,81.1058 118.982,83.2725 126.5,82.5C 130.353,84.1056 134.353,85.2722 138.5,86C 142.91,88.0851 145.41,91.5851 146,96.5C 147.619,97.083 149.452,97.083 151.5,96.5C 154.246,98.6229 157.079,100.623 160,102.5C 160.333,102.167 160.667,101.833 161,101.5C 163.567,104.731 166.734,107.231 170.5,109C 185.591,113.53 200.091,118.697 214,124.5C 219.918,128.419 224.418,133.586 227.5,140C 225.367,142.217 222.7,143.384 219.5,143.5C 209.869,141.845 200.535,139.178 191.5,135.5C 188.572,135.896 185.572,136.063 182.5,136C 180.622,137.543 179.122,139.376 178,141.5C 177.979,147.221 177.812,152.888 177.5,158.5C 178.947,184.367 181.114,210.034 184,235.5C 186.16,249.499 188.827,263.166 192,276.5C 194.732,283.363 197.066,290.363 199,297.5C 199.814,299.282 200.981,300.782 202.5,302C 202.5,303.333 202.5,304.667 202.5,306C 220.193,337.646 243.526,365.646 272.5,390C 279.465,394.393 286.299,398.893 293,403.5C 295.021,402.764 296.521,403.597 297.5,406C 323.296,419.488 349.796,428.322 377,432.5C 384.667,424.833 392.333,417.167 400,409.5C 401.749,410.299 403.082,409.632 404,407.5C 405.543,408.285 407.21,408.285 409,407.5C 414.905,407.249 417.238,409.916 416,415.5C 412.547,420.621 408.714,425.454 404.5,430C 404.165,431.164 404.165,432.497 404.5,434C 406.953,434.738 409.453,435.238 412,435.5C 418.256,434.517 424.423,434.183 430.5,434.5C 432.898,436.054 435.398,437.388 438,438.5C 445.017,439.936 451.017,437.936 456,432.5C 460.619,435.67 465.786,437.336 471.5,437.5C 479.137,436.398 486.803,436.232 494.5,437C 496.659,438.059 498.326,439.559 499.5,441.5 Z M 56.5,44.5 C 55.9094,43.8485 55.2427,43.1818 54.5,42.5C 58.8084,34.4432 64.3084,33.4432 71,39.5C 71.6667,41.1667 71.6667,42.8333 71,44.5C 66.4989,43.8749 61.6655,43.8749 56.5,44.5 Z M 69.5,67.5 C 72.0009,67.5109 72.1676,68.1776 70,69.5C 69.5357,68.9056 69.369,68.2389 69.5,67.5 Z M 84.5,68.5 C 93.6194,69.5995 93.4527,70.9328 84,72.5C 83.1667,72.1667 82.3333,71.8333 81.5,71.5C 82.3398,70.265 83.3398,69.265 84.5,68.5 Z M 105.5,89.5 C 104.504,89.4142 103.671,89.7476 103,90.5C 101.733,92.4236 101.733,94.0903 103,95.5C 103.667,96.8333 103.667,98.1667 103,99.5C 100.936,100.591 98.7695,100.758 96.5,100C 92.3095,97.3097 88.9762,93.8097 86.5,89.5C 85.4383,86.8971 85.2716,84.2305 86,81.5C 90.8015,82.9969 95.6349,84.4969 100.5,86C 102.346,87.0298 104.013,88.1964 105.5,89.5 Z M 105.5,89.5 C 106.289,89.7828 106.956,90.2828 107.5,91C 106.184,91.5281 105.517,91.0281 105.5,89.5 Z M 81.5,91.5 C 83.6298,93.1271 85.6298,94.9604 87.5,97C 78.7688,96.1958 70.1021,96.5291 61.5,98C 68.3891,96.0915 75.0558,93.9248 81.5,91.5 Z M 122.5,102.5 C 122.077,103.265 121.743,104.098 121.5,105C 123.981,107.438 125.481,110.271 126,113.5C 123.002,111.332 120.169,108.999 117.5,106.5C 120.793,112.561 119.46,117.228 113.5,120.5C 108.778,118.24 105.278,114.24 103,108.5C 101.657,109.214 100.324,108.88 99,107.5C 97.5855,110.002 97.4188,112.668 98.5,115.5C 97.7784,115.082 97.2784,114.416 97,113.5C 96.6667,113.833 96.3333,114.167 96,114.5C 92.2346,112.038 88.0679,111.038 83.5,111.5C 73.9417,112.345 64.6084,114.345 55.5,117.5C 53.6274,117.518 53.2941,117.018 54.5,116C 76.679,110.382 98.5123,104.549 120,98.5C 123.197,98.6631 124.031,99.9964 122.5,102.5 Z M 54.5,144.5 C 52.4048,143.588 50.4048,142.421 48.5,141C 56.2285,138.784 64.3951,136.617 73,134.5C 89.4601,130.044 106.127,125.378 123,120.5C 123.561,121.022 124.228,121.355 125,121.5C 128.861,119.921 132.861,118.588 137,117.5C 139.036,117.954 140.87,118.787 142.5,120C 141.565,122.381 141.232,124.881 141.5,127.5C 154.207,129.226 156.207,126.059 147.5,118C 146.207,117.51 144.873,117.343 143.5,117.5C 152.628,115.974 161.961,114.974 171.5,114.5C 187.186,114.524 189.852,120.691 179.5,133C 175.404,135.715 171.071,137.881 166.5,139.5C 165.833,139.167 165.167,138.833 164.5,138.5C 152.461,144.339 139.961,147.005 127,146.5C 120.541,148.703 114.041,149.536 107.5,149C 101.351,150.984 95.8507,152.484 91,153.5C 90.5581,155.679 89.5581,156.345 88,155.5C 87.3333,156.167 86.6667,156.833 86,157.5C 84.8735,151.732 81.7069,147.565 76.5,145C 71.9812,144.017 69.6479,145.85 69.5,150.5C 73.6132,151.459 77.4465,153.126 81,155.5C 81.3742,156.416 81.8742,157.25 82.5,158C 81.1828,159.767 79.5161,161.101 77.5,162C 73.5376,163.478 69.2042,164.978 64.5,166.5C 63.5,166 62.5,165.5 61.5,165C 62.7982,162.605 61.9649,161.438 59,161.5C 54.5314,162.439 50.0314,163.106 45.5,163.5C 45.7564,165.792 45.4231,167.959 44.5,170C 41.7706,170.195 38.9373,170.028 36,169.5C 33.3287,167.494 30.662,165.494 28,163.5C 24.9414,157.539 26.7748,154.039 33.5,153C 32.9535,152.075 32.2868,151.242 31.5,150.5C 28.9665,151.788 26.4665,151.788 24,150.5C 20.7959,153.369 17.9626,156.535 15.5,160C 15.4129,165.438 15.5796,170.938 16,176.5C 9.29696,169.971 7.79696,162.638 11.5,154.5C 17.8315,148.23 25.3315,145.23 34,145.5C 35.0852,144.707 36.2519,144.04 37.5,143.5C 37.0569,149.307 39.3902,153.473 44.5,156C 48.3797,157.64 52.3797,158.307 56.5,158C 59.1997,157.051 60.033,155.217 59,152.5C 58.6667,152.833 58.3333,153.167 58,153.5C 56.8904,151.963 55.3904,151.297 53.5,151.5C 53.3505,150.448 53.5172,149.448 54,148.5C 55.3033,147.888 56.4699,147.554 57.5,147.5C 56.6602,146.265 55.6602,145.265 54.5,144.5 Z M 39.5,120.5 C 43.2434,120.459 43.4101,121.126 40,122.5C 39.5357,121.906 39.369,121.239 39.5,120.5 Z M 35.5,121.5 C 36.675,121.281 37.675,121.614 38.5,122.5C 35.1312,124.864 31.4645,126.031 27.5,126C 30.3591,124.74 33.0258,123.24 35.5,121.5 Z M 210.5,129.5 C 214.105,129.799 217.439,130.965 220.5,133C 221.591,135.064 221.758,137.231 221,139.5C 218.548,136.179 215.382,133.679 211.5,132C 210.748,131.329 210.414,130.496 210.5,129.5 Z M 171.5,179.5 C 171.149,181.869 170.982,184.203 171,186.5C 171.333,186.167 171.667,185.833 172,185.5C 173,186.833 174,188.167 175,189.5C 175.667,198.167 175.667,206.833 175,215.5C 174.598,216.872 174.098,218.205 173.5,219.5C 174.628,220.262 175.795,220.929 177,221.5C 177.848,227.487 177.348,233.32 175.5,239C 180.879,239.626 181.879,242.126 178.5,246.5C 177.914,246.291 177.414,245.957 177,245.5C 172.739,249.563 171.406,254.563 173,260.5C 174.419,256.657 176.586,253.324 179.5,250.5C 181.242,252.406 182.242,254.74 182.5,257.5C 182.392,258.442 182.059,259.275 181.5,260C 183.726,267.307 186.059,274.64 188.5,282C 188.167,282.333 187.833,282.667 187.5,283C 190.315,288.45 192.149,294.283 193,300.5C 194.182,302.344 195.349,304.177 196.5,306C 195.048,307.845 193.215,309.345 191,310.5C 190.187,312.436 189.687,314.436 189.5,316.5C 194.542,316.015 198.376,318.015 201,322.5C 201.617,323.449 201.451,324.282 200.5,325C 202.886,326.844 204.053,329.344 204,332.5C 204.241,329.711 204.908,327.044 206,324.5C 208.492,328.491 211.658,331.825 215.5,334.5C 222.895,349.263 232.728,362.263 245,373.5C 245.536,375.567 245.036,377.401 243.5,379C 256.188,395.301 271.688,405.468 290,409.5C 296.3,410.882 301.133,414.382 304.5,420C 312.784,428.207 322.617,431.373 334,429.5C 334.009,433.178 335.843,435.345 339.5,436C 347.499,438.565 355.499,441.065 363.5,443.5C 355.759,448.73 347.926,448.73 340,443.5C 337.816,444.108 335.816,443.441 334,441.5C 327.384,441.745 321.217,439.911 315.5,436C 308.671,433.39 301.671,431.39 294.5,430C 291.466,429.34 288.633,429.84 286,431.5C 285.667,431.167 285.333,430.833 285,430.5C 282.889,433.379 280.722,433.712 278.5,431.5C 278.414,430.504 278.748,429.671 279.5,429C 278.833,428.333 278.167,428.333 277.5,429C 274.251,432.919 270.418,436.086 266,438.5C 262.327,435.372 259.494,432.039 257.5,428.5C 254.338,425.942 251.171,425.942 248,428.5C 244.911,427.04 242.078,425.207 239.5,423C 240.5,422 241.5,421 242.5,420C 240.956,419.71 239.623,419.044 238.5,418C 241.14,415.644 242.807,413.144 243.5,410.5C 237.932,411.016 232.432,410.349 227,408.5C 224.845,409.683 222.845,409.35 221,407.5C 216.759,408.202 212.925,407.035 209.5,404C 207.647,401.96 206.314,399.627 205.5,397C 206.263,396.056 207.263,395.556 208.5,395.5C 212.181,396.27 215.848,397.103 219.5,398C 217.115,398.055 215.781,399.222 215.5,401.5C 216.885,403.705 218.885,405.205 221.5,406C 226.472,407.582 231.472,407.748 236.5,406.5C 237.932,406.267 238.432,405.6 238,404.5C 231.167,399 225,392.833 219.5,386C 213.476,382.053 208.309,378.553 204,375.5C 203.667,375.833 203.333,376.167 203,376.5C 195.136,371.994 186.636,367.994 177.5,364.5C 169.419,361.287 161.419,357.12 153.5,352C 161.023,352.425 167.689,355.091 173.5,360C 175.8,360.658 178.133,361.158 180.5,361.5C 182.374,361.61 183.874,360.944 185,359.5C 185.251,357.567 185.751,355.734 186.5,354C 184.291,349.724 180.958,345.724 176.5,342C 171.696,340.821 167.363,339.321 163.5,337.5C 159.981,334.146 156.314,330.98 152.5,328C 158.084,327.923 162.751,325.923 166.5,322C 165.167,320.667 165.167,319.333 166.5,318C 161.364,311.031 155.697,304.531 149.5,298.5C 149.694,300.263 149.694,302.097 149.5,304C 151.301,304.317 151.634,304.984 150.5,306C 152.301,306.317 152.634,306.984 151.5,308C 154.275,310.38 154.942,313.213 153.5,316.5C 151.37,312.667 149.536,308.667 148,304.5C 144.977,301.155 141.311,298.822 137,297.5C 135.932,300.487 135.099,303.154 134.5,305.5C 133.104,300.384 130.27,299.384 126,302.5C 122.694,301.86 120.694,299.86 120,296.5C 119.667,292.833 119.333,289.167 119,285.5C 113.424,280.146 108.257,274.48 103.5,268.5C 108.264,271.737 113.097,272.07 118,269.5C 118.667,268.167 118.667,266.833 118,265.5C 115.249,261.598 112.749,257.598 110.5,253.5C 114.164,252.133 114.497,249.966 111.5,247C 110.423,246.53 109.423,246.697 108.5,247.5C 108.5,248.5 108.5,249.5 108.5,250.5C 105.387,253.092 102.054,256.258 98.5,260C 97.2068,260.49 95.8734,260.657 94.5,260.5C 94.6446,254.138 94.8113,247.805 95,241.5C 93.7581,242.872 92.2581,243.872 90.5,244.5C 89.4077,249.492 89.4077,254.492 90.5,259.5C 88.2075,259.756 86.0408,259.423 84,258.5C 82.6346,259.593 82.3013,260.926 83,262.5C 88.0354,267.703 93.202,272.703 98.5,277.5C 94.5676,277.26 91.7343,278.927 90,282.5C 88.7949,281.929 87.6283,281.262 86.5,280.5C 84.7684,275.473 82.935,270.473 81,265.5C 78.7928,262.436 75.9594,260.436 72.5,259.5C 73.3287,256.531 73.4954,253.531 73,250.5C 70.3953,247.62 67.7286,245.62 65,244.5C 63.7295,243.295 63.0628,241.962 63,240.5C 65.3824,237.573 67.8824,234.739 70.5,232C 72.5,231.333 74.5,231.333 76.5,232C 78.0456,234.257 79.7123,236.424 81.5,238.5C 76.8191,240.273 75.3191,243.606 77,248.5C 78.0252,251.878 80.0252,254.545 83,256.5C 83.772,256.355 84.4387,256.022 85,255.5C 85.6667,248.833 85.6667,242.167 85,235.5C 81.3893,228.112 75.5559,225.112 67.5,226.5C 65.9707,226.471 64.804,225.804 64,224.5C 62.3035,222.44 61.1369,220.107 60.5,217.5C 60.6082,216.558 60.9415,215.725 61.5,215C 63.1341,214.506 64.8008,214.34 66.5,214.5C 65.4582,209.867 67.1249,206.701 71.5,205C 74.8608,204.663 78.1942,204.163 81.5,203.5C 86.1271,200.917 87.2938,197.25 85,192.5C 81.9069,188.213 80.2402,183.547 80,178.5C 81.0852,177.707 82.2519,177.04 83.5,176.5C 84.96,178.422 86.6267,179.089 88.5,178.5C 92.1919,177.436 95.8586,176.269 99.5,175C 101.921,172.906 104.588,171.24 107.5,170C 106.663,168.989 106.33,167.822 106.5,166.5C 110.142,165.92 113.809,165.42 117.5,165C 119.376,162.954 121.376,161.121 123.5,159.5C 128.294,160.981 133.127,162.314 138,163.5C 138.5,163.167 139,162.833 139.5,162.5C 138.469,161.3 137.635,159.966 137,158.5C 135.927,159.28 134.76,159.113 133.5,158C 133.833,157 134.167,156 134.5,155C 136.101,154.727 137.601,154.227 139,153.5C 140.68,154.603 142.18,154.27 143.5,152.5C 144.167,152.833 144.833,153.167 145.5,153.5C 152.723,151.637 159.89,149.637 167,147.5C 170.593,148.294 172.593,150.628 173,154.5C 172.822,159.864 172.989,165.198 173.5,170.5C 173.14,173.702 172.474,176.702 171.5,179.5 Z M 85.5,167.5 C 86.5735,168.251 86.7401,169.251 86,170.5C 84.2716,169.648 84.105,168.648 85.5,167.5 Z M 26.5,171.5 C 27.3764,171.369 28.0431,171.702 28.5,172.5C 27.7246,176.251 26.3912,176.418 24.5,173C 25.4158,172.722 26.0825,172.222 26.5,171.5 Z M 167.5,172.5 C 168.239,172.369 168.906,172.536 169.5,173C 167.879,176.709 166.379,180.542 165,184.5C 164.043,181.621 164.543,179.121 166.5,177C 165.257,175.184 165.59,173.684 167.5,172.5 Z M 59.5,183.5 C 64.8076,182.05 70.141,182.384 75.5,184.5C 76.9958,187.175 76.3292,189.175 73.5,190.5C 72.1575,189.098 71.3242,189.431 71,191.5C 68.9114,191.255 66.9114,191.255 65,191.5C 64.0754,190.953 63.2421,190.287 62.5,189.5C 65.1071,188.682 67.7737,188.182 70.5,188C 67.0395,185.934 63.3728,184.434 59.5,183.5 Z M 45.5,188.5 C 52.4993,188.493 53.166,190.493 47.5,194.5C 43.8054,192.975 43.1387,190.975 45.5,188.5 Z M 56.5,194.5 C 59.2933,194.74 59.7933,195.74 58,197.5C 56.9326,196.809 55.7659,196.309 54.5,196C 55.4158,195.722 56.0825,195.222 56.5,194.5 Z M 51.5,197.5 C 52.782,198.708 52.782,200.042 51.5,201.5C 50.3744,200.192 50.3744,198.858 51.5,197.5 Z M 42.5,210.5 C 44.2884,209.378 46.2884,209.211 48.5,210C 52.5084,210.49 53.1751,211.99 50.5,214.5C 47.7802,213.14 45.1136,211.807 42.5,210.5 Z M 28.5,216.5 C 29.4959,216.414 30.3292,216.748 31,217.5C 31.8372,219.351 32.6705,221.184 33.5,223C 29.1602,223.142 27.4935,220.976 28.5,216.5 Z M 45.5,216.5 C 46.766,217.09 48.0993,217.59 49.5,218C 50.8333,219 50.8333,220 49.5,221C 50.1667,221.333 50.8333,221.667 51.5,222C 48.4164,222.631 45.7497,221.798 43.5,219.5C 44.1925,218.482 44.8592,217.482 45.5,216.5 Z M 42.5,225.5 C 44.6661,224.371 46.6661,224.871 48.5,227C 46.4278,227.036 44.4278,226.536 42.5,225.5 Z M 42.5,258.5 C 42.5,257.833 42.1667,257.5 41.5,257.5C 41.2041,255.597 40.5375,253.93 39.5,252.5C 39.4035,249.044 38.4035,245.877 36.5,243C 36.8333,242.667 37.1667,242.333 37.5,242C 35.2469,239.575 34.4136,236.742 35,233.5C 35.9277,235.307 37.0944,236.974 38.5,238.5C 39.6682,243.97 41.8348,249.304 45,254.5C 45.7975,256.259 45.6309,257.926 44.5,259.5C 43.8165,259.137 43.1499,258.804 42.5,258.5 Z M 33.5,242.5 C 35.6956,245.558 37.3622,248.891 38.5,252.5C 37.4786,254.523 37.8119,256.523 39.5,258.5C 38.5041,258.586 37.6708,258.252 37,257.5C 34.94,252.38 32.6067,247.38 30,242.5C 30.1703,237.448 31.337,237.448 33.5,242.5 Z M 41.5,257.5 C 42.1667,257.5 42.5,257.833 42.5,258.5C 46.7688,267.554 50.4355,276.888 53.5,286.5C 50.3787,284.874 48.0454,282.374 46.5,279C 46.8333,278.667 47.1667,278.333 47.5,278C 46.6919,277.692 46.0253,277.192 45.5,276.5C 42.93,270.856 40.5967,265.356 38.5,260C 39.056,259.617 39.3893,259.117 39.5,258.5C 40.1667,258.167 40.8333,257.833 41.5,257.5 Z M 66.5,263.5 C 68.8568,263.337 71.1902,263.503 73.5,264C 70.8566,267.157 68.5233,266.99 66.5,263.5 Z M 95.5,265.5 C 96.7733,266.077 96.7733,266.743 95.5,267.5C 94.537,267.03 94.537,266.363 95.5,265.5 Z M 106.5,277.5 C 108.113,277.944 109.28,278.944 110,280.5C 110.908,285.956 112.241,291.289 114,296.5C 118.693,300.195 122.193,304.861 124.5,310.5C 124,310.833 123.5,311.167 123,311.5C 115.865,309.472 109.532,306.139 104,301.5C 103.667,301.833 103.333,302.167 103,302.5C 99.041,300.211 94.8744,298.378 90.5,297C 88.8022,293.649 87.1355,290.316 85.5,287C 85.6667,286.167 85.8333,285.333 86,284.5C 87.2504,285.573 88.5838,285.573 90,284.5C 95.7519,287.806 101.919,289.806 108.5,290.5C 108.244,288.208 108.577,286.041 109.5,284C 106.889,282.299 105.889,280.132 106.5,277.5 Z M 45.5,283.5 C 47.8182,286.718 49.8182,289.718 51.5,292.5C 54.6443,299.459 57.811,306.459 61,313.5C 68.5275,321.195 74.6942,329.862 79.5,339.5C 87.3811,344.235 91.8811,351.235 93,360.5C 94.8705,366.307 98.5372,370.307 104,372.5C 104.718,371.549 105.551,371.383 106.5,372C 108.738,374.104 109.738,376.438 109.5,379C 112.509,381.677 115.176,384.677 117.5,388C 119.833,388.333 122.167,388.667 124.5,389C 122.053,390.229 121.887,391.729 124,393.5C 127.167,396.667 130.333,399.833 133.5,403C 140.505,404.927 146.338,408.761 151,414.5C 151.667,415.5 151.667,416.5 151,417.5C 148.325,417.536 145.492,417.036 142.5,416C 140.939,415.682 139.772,414.849 139,413.5C 138.667,413.833 138.333,414.167 138,414.5C 131.865,409.366 126.031,403.866 120.5,398C 112.02,392.02 104.687,384.854 98.5,376.5C 93.458,369.006 89.1247,361.672 85.5,354.5C 86.7152,353.221 86.3818,352.221 84.5,351.5C 67.722,331.522 54.3887,309.355 44.5,285C 45.056,284.617 45.3893,284.117 45.5,283.5 Z M 84.5,300.5 C 85.675,300.281 86.675,300.614 87.5,301.5C 85.9483,302.798 84.9483,302.465 84.5,300.5 Z M 89.5,317.5 C 87.5767,317.205 85.9101,316.372 84.5,315C 87.0186,314.259 88.6852,315.092 89.5,317.5 Z M 143.5,314.5 C 146.757,314.174 148.257,315.507 148,318.5C 146.184,317.671 144.351,316.837 142.5,316C 143.056,315.617 143.389,315.117 143.5,314.5 Z M 118.5,321.5 C 117.859,320.518 117.193,319.518 116.5,318.5C 117.667,318.167 118.833,317.833 120,317.5C 125.659,318.942 131.159,320.775 136.5,323C 133.96,324.431 131.627,326.098 129.5,328C 130.505,329.672 131.839,331.005 133.5,332C 131.5,332.333 129.5,332.667 127.5,333C 130.131,335.977 133.131,338.477 136.5,340.5C 136.291,341.086 135.957,341.586 135.5,342C 138.343,344.511 140.843,347.344 143,350.5C 143.684,351.784 143.517,352.951 142.5,354C 144.5,356 146.5,358 148.5,360C 146.177,359.694 143.844,359.028 141.5,358C 135.869,353.869 129.869,350.369 123.5,347.5C 122.758,345.892 122.591,344.225 123,342.5C 119.5,339.667 116,336.833 112.5,334C 113.449,333.383 114.282,333.549 115,334.5C 115.667,333.5 115.667,332.5 115,331.5C 112.065,329.273 110.065,326.606 109,323.5C 110.692,325.245 112.525,325.578 114.5,324.5C 113.355,323.109 113.355,321.776 114.5,320.5C 115.736,321.246 117.07,321.579 118.5,321.5 Z M 103.5,327.5 C 100.153,327.217 97.4865,325.717 95.5,323C 98.8933,323.091 101.56,324.591 103.5,327.5 Z M 85.5,330.5 C 87.1898,330.856 88.1898,331.856 88.5,333.5C 86.8102,333.144 85.8102,332.144 85.5,330.5 Z M 114.5,340.5 C 116.359,341.594 118.359,342.427 120.5,343C 121.517,344.049 121.684,345.216 121,346.5C 117.685,345.683 115.518,343.683 114.5,340.5 Z M 173.5,357.5 C 174.497,356.287 175.497,356.454 176.5,358C 175.423,358.47 174.423,358.303 173.5,357.5 Z M 154.5,364.5 C 158.712,364.06 162.712,365.227 166.5,368C 162.138,368.076 158.138,366.909 154.5,364.5 Z M 141.5,366.5 C 141.735,365.903 142.235,365.57 143,365.5C 144.5,366 146,366.5 147.5,367C 145.402,367.678 143.402,367.511 141.5,366.5 Z M 131.5,370.5 C 135.182,370.335 138.848,370.501 142.5,371C 144.676,371.163 146.509,371.996 148,373.5C 149.395,372.185 150.395,372.519 151,374.5C 151.333,374.167 151.667,373.833 152,373.5C 156.387,375.229 160.553,377.229 164.5,379.5C 163.91,380.799 162.91,381.632 161.5,382C 158.833,382.167 156.167,382.333 153.5,382.5C 150.387,382.438 147.554,381.771 145,380.5C 144.586,380.957 144.086,381.291 143.5,381.5C 141.205,379.52 138.539,378.353 135.5,378C 132.976,376.117 131.642,373.617 131.5,370.5 Z M 187.5,382.5 C 182.93,384.067 178.264,383.567 173.5,381C 170.647,378.089 167.647,375.422 164.5,373C 166.553,372.675 168.553,373.009 170.5,374C 175.763,377.86 181.43,380.693 187.5,382.5 Z M 177.5,373.5 C 179.628,372.371 181.961,372.204 184.5,373C 189.819,375.754 195.486,377.754 201.5,379C 192.878,379.677 184.878,377.844 177.5,373.5 Z M 254.5,381.5 C 255.995,381.415 256.995,382.081 257.5,383.5C 256.167,384.833 254.833,384.833 253.5,383.5C 253.863,382.817 254.196,382.15 254.5,381.5 Z M 179.5,386.5 C 183.595,387.693 187.595,389.193 191.5,391C 186.448,391.963 182.448,390.463 179.5,386.5 Z M 179.5,398.5 C 183.607,399.483 187.607,400.983 191.5,403C 193.255,403.72 194.089,404.887 194,406.5C 189.926,404.808 185.76,403.308 181.5,402C 180.177,401.184 179.511,400.017 179.5,398.5 Z M 193.5,398.5 C 198.995,401.433 198.662,401.933 192.5,400C 193.056,399.617 193.389,399.117 193.5,398.5 Z M 170.5,401.5 C 172.429,401.231 174.095,401.731 175.5,403C 174.667,403.167 173.833,403.333 173,403.5C 171.624,403.316 170.791,402.649 170.5,401.5 Z M 410.5,410.5 C 412.465,410.948 412.798,411.948 411.5,413.5C 410.614,412.675 410.281,411.675 410.5,410.5 Z M 167.5,414.5 C 172.1,414.345 172.433,415.012 168.5,416.5C 166.279,416.561 165.946,415.895 167.5,414.5 Z M 192.5,414.5 C 196.588,414.218 197.088,414.885 194,416.5C 192.97,416.164 192.47,415.497 192.5,414.5 Z M 202.5,416.5 C 205.969,415.887 207.969,417.221 208.5,420.5C 206.345,420.628 204.345,420.128 202.5,419C 201.402,418.23 201.402,417.397 202.5,416.5 Z M 229.5,421.5 C 231.966,420.366 234.633,420.199 237.5,421C 234.881,422.696 232.214,422.863 229.5,421.5 Z M 165.5,424.5 C 166.077,423.227 166.743,423.227 167.5,424.5C 167.03,425.463 166.363,425.463 165.5,424.5 Z M 176.5,427.5 C 177.773,428.077 177.773,428.743 176.5,429.5C 175.537,429.03 175.537,428.363 176.5,427.5 Z M 168.5,430.5 C 168.56,429.957 168.893,429.624 169.5,429.5C 194.899,442.032 220.899,453.199 247.5,463C 266.519,466.941 285.686,468.108 305,466.5C 316.594,469.652 328.427,470.319 340.5,468.5C 345.531,469.152 350.531,469.985 355.5,471C 352.247,472.036 348.914,472.703 345.5,473C 331.5,473.667 317.5,473.667 303.5,473C 279.669,470.792 256.002,467.458 232.5,463C 209.288,456.378 187.288,447.045 166.5,435C 165.304,434.346 165.304,433.846 166.5,433.5C 178.514,440.183 190.848,445.683 203.5,450C 202.5,449 201.5,448 200.5,447C 189.117,442.809 178.45,437.309 168.5,430.5 Z M 189.5,431.5 C 190.5,431.5 191.5,431.5 192.5,431.5C 192.435,434.998 191.101,435.498 188.5,433C 189.056,432.617 189.389,432.117 189.5,431.5 Z M 276.5,433.5 C 276.728,435.355 276.061,436.188 274.5,436C 275.066,435.005 275.733,434.172 276.5,433.5 Z M 291.5,443.5 C 292.833,443.167 292.833,442.833 291.5,442.5C 293.862,440.756 296.195,438.923 298.5,437C 300.134,436.506 301.801,436.34 303.5,436.5C 306.042,442.344 304.542,446.678 299,449.5C 297.365,445.23 294.865,444.563 291.5,447.5C 289.066,445.853 289.066,444.52 291.5,443.5 Z M 313.5,440.5 C 316.205,440.38 316.872,441.38 315.5,443.5C 313.424,445.288 311.257,446.954 309,448.5C 308.691,447.234 308.191,446.067 307.5,445C 309.03,442.749 311.03,441.249 313.5,440.5 Z M 379.5,440.5 C 393.639,440.017 407.639,441.184 421.5,444C 418.184,446.102 414.518,447.269 410.5,447.5C 400.956,446.089 391.456,445.756 382,446.5C 379.931,445.736 377.764,445.236 375.5,445C 376.357,442.981 377.691,441.481 379.5,440.5 Z M 453.5,441.5 C 457.3,441.819 457.466,442.819 454,444.5C 453.517,443.552 453.351,442.552 453.5,441.5 Z M 430.5,442.5 C 432.048,442.821 432.715,443.821 432.5,445.5C 429.752,445.598 429.086,444.598 430.5,442.5 Z M 475.5,442.5 C 480.267,442.191 484.934,442.691 489.5,444C 481.163,446.005 472.83,446.338 464.5,445C 468.312,444.205 471.979,443.371 475.5,442.5 Z M 210.5,446.5 C 212.035,445.212 213.701,445.212 215.5,446.5C 213.905,447.434 212.239,447.434 210.5,446.5 Z M 323.5,446.5 C 324.873,446.343 326.207,446.51 327.5,447C 322.354,452.571 321.021,452.405 323.5,446.5 Z M 264.5,447.5 C 267.018,448.759 266.852,450.093 264,451.5C 263.805,450.181 263.972,448.847 264.5,447.5 Z M 314.5,447.5 C 315.799,449.153 315.466,450.653 313.5,452C 308.462,452.159 308.295,450.993 313,448.5C 314.107,449.712 314.607,449.379 314.5,447.5 Z M 230.5,452.5 C 231.15,452.196 231.817,451.863 232.5,451.5C 237.78,452.856 243.114,454.023 248.5,455C 253.767,455.93 258.767,457.597 263.5,460C 254.29,460.299 245.29,458.966 236.5,456C 234.273,455.059 232.273,453.892 230.5,452.5 Z M 327.5,454.5 C 326.466,452.2 327.133,451.534 329.5,452.5C 329.145,453.522 328.478,454.189 327.5,454.5 Z M 337.5,451.5 C 336.473,452.848 335.14,453.348 333.5,453C 334.563,451.812 335.897,451.312 337.5,451.5 Z M 342.5,451.5 C 343.552,451.351 344.552,451.517 345.5,452C 343.31,454.024 340.977,455.857 338.5,457.5C 337.479,456.998 337.312,456.332 338,455.5C 339.397,453.93 340.897,452.596 342.5,451.5 Z M 361.5,471.5 C 362.601,470.402 363.934,470.235 365.5,471C 364.436,472.511 363.103,472.677 361.5,471.5 Z"/></g>
<g><path style="opacity:0.004" fill="#fefffe" d="M 108.5,38.5 C 109.833,39.1667 109.833,39.1667 108.5,38.5 Z"/></g>
<g><path style="opacity:0.004" fill="#fefffe" d="M 176.5,39.5 C 177.833,40.1667 177.833,40.1667 176.5,39.5 Z"/></g>
<g><path style="opacity:0.004" fill="#fefffe" d="M 492.5,40.5 C 493.833,41.1667 493.833,41.1667 492.5,40.5 Z"/></g>
<g><path style="opacity:0.004" fill="#fefffe" d="M 446.5,48.5 C 447.833,49.1667 447.833,49.1667 446.5,48.5 Z"/></g>
<g><path style="opacity:0.004" fill="#fefffe" d="M 329.5,55.5 C 330.833,56.1667 330.833,56.1667 329.5,55.5 Z"/></g>
<g><path style="opacity:0.004" fill="#fefffe" d="M 212.5,67.5 C 213.833,68.1667 213.833,68.1667 212.5,67.5 Z"/></g>
<g><path style="opacity:0.004" fill="#fefffe" d="M 2.5,73.5 C 3.83333,74.1667 3.83333,74.1667 2.5,73.5 Z"/></g>
<g><path style="opacity:0.004" fill="#fefffe" d="M 265.5,79.5 C 266.833,80.1667 266.833,80.1667 265.5,79.5 Z"/></g>
<g><path style="opacity:0.004" fill="#fefffe" d="M 275.5,83.5 C 276.833,84.1667 276.833,84.1667 275.5,83.5 Z"/></g>
<g><path style="opacity:0.004" fill="#fefffe" d="M 308.5,87.5 C 309.833,88.1667 309.833,88.1667 308.5,87.5 Z"/></g>
<g><path style="opacity:0.004" fill="#fefffe" d="M 485.5,88.5 C 486.833,89.1667 486.833,89.1667 485.5,88.5 Z"/></g>
<g><path style="opacity:0.004" fill="#fefffe" d="M 173.5,106.5 C 174.833,107.167 174.833,107.167 173.5,106.5 Z"/></g>
<g><path style="opacity:0.841" fill="#040303" d="M 158.5,121.5 C 159.167,121.5 159.5,121.167 159.5,120.5C 160.695,120.322 161.862,119.989 163,119.5C 164.28,119.613 165.113,120.28 165.5,121.5C 163.389,122.949 161.056,123.949 158.5,124.5C 157.833,125.833 157.167,127.167 156.5,128.5C 155.692,128.192 155.025,127.692 154.5,127C 155.965,125.226 157.298,123.392 158.5,121.5 Z"/></g>
<g><path style="opacity:0.004" fill="#fefffe" d="M 478.5,123.5 C 479.833,124.167 479.833,124.167 478.5,123.5 Z"/></g>
<g><path style="opacity:0.902" fill="#040303" d="M 94.5,134.5 C 96.0904,132.766 98.0904,131.6 100.5,131C 101.035,128.891 102.035,128.391 103.5,129.5C 109.576,129.184 115.41,128.184 121,126.5C 121.309,127.766 121.809,128.933 122.5,130C 119.449,131.723 116.282,133.223 113,134.5C 111.352,132.972 109.352,132.305 107,132.5C 102.918,133.62 98.7518,134.287 94.5,134.5 Z"/></g>
<g><path style="opacity:0.004" fill="#fefffe" d="M 406.5,130.5 C 407.833,131.167 407.833,131.167 406.5,130.5 Z"/></g>
<g><path style="opacity:0.004" fill="#fefffe" d="M 428.5,131.5 C 429.833,132.167 429.833,132.167 428.5,131.5 Z"/></g>
<g><path style="opacity:0.004" fill="#fefffe" d="M 415.5,132.5 C 416.833,133.167 416.833,133.167 415.5,132.5 Z"/></g>
<g><path style="opacity:0.7" fill="#070707" d="M 94.5,134.5 C 95.3768,137.244 94.3768,137.911 91.5,136.5C 91.8916,134.129 92.8916,133.462 94.5,134.5 Z"/></g>
<g><path style="opacity:0.977" fill="#040404" d="M 80.5,138.5 C 85.5504,137.835 88.5504,139.835 89.5,144.5C 85.1694,145.892 81.5027,144.725 78.5,141C 79.3805,140.292 80.0472,139.458 80.5,138.5 Z"/></g>
<g><path style="opacity:0.516" fill="#0c0c0c" d="M 71.5,138.5 C 75.2654,139.475 75.2654,140.808 71.5,142.5C 70.6919,142.192 70.0253,141.692 69.5,141C 70.756,140.583 71.4226,139.75 71.5,138.5 Z"/></g>
<g><path style="opacity:0.004" fill="#fefffe" d="M 338.5,144.5 C 339.833,145.167 339.833,145.167 338.5,144.5 Z"/></g>
<g><path style="opacity:0.004" fill="#fefffe" d="M 243.5,145.5 C 244.833,146.167 244.833,146.167 243.5,145.5 Z"/></g>
<g><path style="opacity:0.004" fill="#fefffe" d="M 318.5,154.5 C 319.833,155.167 319.833,155.167 318.5,154.5 Z"/></g>
<g><path style="opacity:0.004" fill="#fefffe" d="M 332.5,155.5 C 333.833,156.167 333.833,156.167 332.5,155.5 Z"/></g>
<g><path style="opacity:0.004" fill="#fefffe" d="M 455.5,162.5 C 456.833,163.167 456.833,163.167 455.5,162.5 Z"/></g>
<g><path style="opacity:0.905" fill="#030202" d="M 167.5,172.5 C 168.209,171.596 169.209,171.263 170.5,171.5C 170.279,174.279 170.612,176.946 171.5,179.5C 168.82,183.091 166.487,187.091 164.5,191.5C 162.149,192.713 160.316,192.047 159,189.5C 158.166,183.012 158.832,176.679 161,170.5C 164.722,165.098 166.888,165.765 167.5,172.5 Z M 167.5,172.5 C 165.59,173.684 165.257,175.184 166.5,177C 164.543,179.121 164.043,181.621 165,184.5C 166.379,180.542 167.879,176.709 169.5,173C 168.906,172.536 168.239,172.369 167.5,172.5 Z"/></g>
<g><path style="opacity:0.004" fill="#fefffe" d="M 351.5,172.5 C 352.833,173.167 352.833,173.167 351.5,172.5 Z"/></g>
<g><path style="opacity:0.004" fill="#fefffe" d="M 486.5,188.5 C 487.833,189.167 487.833,189.167 486.5,188.5 Z"/></g>
<g><path style="opacity:0.947" fill="#030202" d="M 102.5,189.5 C 105.244,192.989 109.078,195.989 114,198.5C 114.311,199.742 113.811,200.742 112.5,201.5C 113.145,202.646 113.978,203.646 115,204.5C 115.667,205.5 115.667,206.5 115,207.5C 111.333,205.167 107.667,202.833 104,200.5C 103.58,196.809 103.08,193.142 102.5,189.5 Z"/></g>
<g><path style="opacity:0.954" fill="#040404" d="M 114.5,188.5 C 116.969,189.607 117.969,191.607 117.5,194.5C 115.176,194.338 113.509,193.172 112.5,191C 113.381,190.292 114.047,189.458 114.5,188.5 Z"/></g>
<g><path style="opacity:0.004" fill="#fefffe" d="M 272.5,195.5 C 273.833,196.167 273.833,196.167 272.5,195.5 Z"/></g>
<g><path style="opacity:0.098" fill="#151515" d="M 152.5,198.5 C 155.251,199.703 155.751,201.369 154,203.5C 152.991,201.975 152.491,200.308 152.5,198.5 Z"/></g>
<g><path style="opacity:0.004" fill="#fefffe" d="M 208.5,203.5 C 209.833,204.167 209.833,204.167 208.5,203.5 Z"/></g>
<g><path style="opacity:0.87" fill="#020202" d="M 113.5,209.5 C 114.936,210.429 116.269,211.595 117.5,213C 113.011,213.281 109.011,211.948 105.5,209C 103.099,207.961 100.766,207.794 98.5,208.5C 104.577,211.535 109.911,215.535 114.5,220.5C 113.833,220.833 113.167,221.167 112.5,221.5C 107.056,219.865 101.723,218.032 96.5,216C 94.583,213.502 92.9164,210.835 91.5,208C 93.4406,207.257 95.2739,207.424 97,208.5C 97.4922,207.451 97.3256,206.451 96.5,205.5C 97.1667,205.167 97.8333,204.833 98.5,204.5C 103.592,205.975 108.592,207.642 113.5,209.5 Z"/></g>
<g><path style="opacity:0.884" fill="#0b0b0b" d="M 158.5,212.5 C 156.763,210.36 155.596,208.027 155,205.5C 157.238,207.309 158.405,209.642 158.5,212.5 Z"/></g>
<g><path style="opacity:0.887" fill="#010101" d="M 84.5,212.5 C 87.508,213.42 90.3413,214.754 93,216.5C 93.3333,216.167 93.6667,215.833 94,215.5C 96.0064,218.672 98.5064,221.338 101.5,223.5C 98.8097,224.602 96.1431,224.436 93.5,223C 89.8926,219.902 86.8926,216.402 84.5,212.5 Z"/></g>
<g><path style="opacity:0.004" fill="#fefffe" d="M 335.5,214.5 C 336.833,215.167 336.833,215.167 335.5,214.5 Z"/></g>
<g><path style="opacity:0.004" fill="#fefffe" d="M 285.5,216.5 C 286.833,217.167 286.833,217.167 285.5,216.5 Z"/></g>
<g><path style="opacity:0.004" fill="#fefffe" d="M 265.5,218.5 C 266.833,219.167 266.833,219.167 265.5,218.5 Z"/></g>
<g><path style="opacity:0.908" fill="#020202" d="M 86.5,220.5 C 91.3332,221.841 94.6665,225.341 96.5,231C 94.4465,235.206 91.4465,236.206 87.5,234C 84.2951,229.968 80.9618,226.135 77.5,222.5C 77.8333,222.167 78.1667,221.833 78.5,221.5C 81.136,222.971 83.636,224.637 86,226.5C 86.008,224.179 85.1747,222.179 83.5,220.5C 82.6971,219.577 82.5304,218.577 83,217.5C 84.0391,218.71 85.2058,219.71 86.5,220.5 Z"/></g>
<g><path style="opacity:0.877" fill="#010101" d="M 98.5,229.5 C 100.048,229.821 100.715,230.821 100.5,232.5C 97.7524,232.598 97.0857,231.598 98.5,229.5 Z"/></g>
<g><path style="opacity:0.863" fill="#030303" d="M 102.5,228.5 C 105.315,229.901 106.648,231.901 106.5,234.5C 104.167,233.168 102.834,231.168 102.5,228.5 Z"/></g>
<g><path style="opacity:0.812" fill="#060606" d="M 170.5,240.5 C 168.444,239.407 167.444,237.574 167.5,235C 167.423,232.949 167.923,231.116 169,229.5C 169.42,233.191 169.92,236.858 170.5,240.5 Z"/></g>
<g><path style="opacity:0.004" fill="#fefffe" d="M 202.5,229.5 C 203.833,230.167 203.833,230.167 202.5,229.5 Z"/></g>
<g><path style="opacity:0.92" fill="#010101" d="M 152.5,231.5 C 154.311,233.385 155.478,235.719 156,238.5C 160.938,240.752 162.104,244.252 159.5,249C 160.456,251.241 161.789,253.741 163.5,256.5C 162.313,257.519 161.313,258.686 160.5,260C 160.833,260.333 161.167,260.667 161.5,261C 160.5,261.5 159.5,262 158.5,262.5C 151.467,255.12 148.467,246.287 149.5,236C 150.883,234.729 151.883,233.229 152.5,231.5 Z"/></g>
<g><path style="opacity:0.838" fill="#070707" d="M 170.5,240.5 C 171.194,237.579 172.027,234.579 173,231.5C 173.962,235.819 173.295,239.819 171,243.5C 170.517,242.552 170.351,241.552 170.5,240.5 Z"/></g>
<g><path style="opacity:0.942" fill="#030202" d="M 132.5,264.5 C 131.542,264.047 130.708,263.381 130,262.5C 128.984,263.634 128.317,263.301 128,261.5C 126.809,263.847 124.976,264.68 122.5,264C 120.128,260.97 117.795,257.97 115.5,255C 115.957,254.586 116.291,254.086 116.5,253.5C 115.816,250.581 114.482,248.081 112.5,246C 112.689,241.806 112.689,237.639 112.5,233.5C 114.815,240.292 117.982,246.625 122,252.5C 121.415,247.913 119.915,243.58 117.5,239.5C 117.833,238.833 118.167,238.167 118.5,237.5C 124.191,242.471 129.524,247.638 134.5,253C 133.786,254.343 134.12,255.676 135.5,257C 134.672,257.915 133.672,258.581 132.5,259C 132.854,260.626 132.854,262.459 132.5,264.5 Z"/></g>
<g><path style="opacity:0.004" fill="#fefffe" d="M 350.5,238.5 C 351.833,239.167 351.833,239.167 350.5,238.5 Z"/></g>
<g><path style="opacity:0.928" fill="#040404" d="M 98.5,240.5 C 101.428,242.124 102.095,244.457 100.5,247.5C 99.914,247.291 99.414,246.957 99,246.5C 98.5045,244.527 98.3379,242.527 98.5,240.5 Z"/></g>
<g><path style="opacity:0.004" fill="#fefffe" d="M 457.5,248.5 C 458.833,249.167 458.833,249.167 457.5,248.5 Z"/></g>
<g><path style="opacity:0.004" fill="#fefffe" d="M 411.5,255.5 C 412.833,256.167 412.833,256.167 411.5,255.5 Z"/></g>
<g><path style="opacity:0.004" fill="#fefffe" d="M 304.5,258.5 C 305.833,259.167 305.833,259.167 304.5,258.5 Z"/></g>
<g><path style="opacity:0.098" fill="#171717" d="M 176.5,256.5 C 177.844,258.185 177.677,259.852 176,261.5C 176.019,259.893 176.185,258.226 176.5,256.5 Z"/></g>
<g><path style="opacity:0.004" fill="#fefffe" d="M 381.5,266.5 C 382.833,267.167 382.833,267.167 381.5,266.5 Z"/></g>
<g><path style="opacity:0.004" fill="#fefffe" d="M 212.5,282.5 C 213.833,283.167 213.833,283.167 212.5,282.5 Z"/></g>
<g><path style="opacity:0.004" fill="#fefffe" d="M 430.5,288.5 C 431.833,289.167 431.833,289.167 430.5,288.5 Z"/></g>
<g><path style="opacity:0.796" fill="#020202" d="M 147.5,290.5 C 149.446,291.254 150.279,292.588 150,294.5C 148.519,293.529 147.685,292.196 147.5,290.5 Z"/></g>
<g><path style="opacity:0.004" fill="#fefffe" d="M 373.5,292.5 C 374.833,293.167 374.833,293.167 373.5,292.5 Z"/></g>
<g><path style="opacity:0.004" fill="#fefffe" d="M 463.5,294.5 C 464.833,295.167 464.833,295.167 463.5,294.5 Z"/></g>
<g><path style="opacity:0.849" fill="#030303" d="M 184.5,295.5 C 186.911,295.137 188.411,296.137 189,298.5C 189.667,301.833 189.667,305.167 189,308.5C 186.123,304.663 184.623,300.33 184.5,295.5 Z"/></g>
<g><path style="opacity:0.004" fill="#fefffe" d="M 302.5,304.5 C 303.833,305.167 303.833,305.167 302.5,304.5 Z"/></g>
<g><path style="opacity:0.004" fill="#fefffe" d="M 424.5,305.5 C 425.833,306.167 425.833,306.167 424.5,305.5 Z"/></g>
<g><path style="opacity:0.676" fill="#020202" d="M 194.5,321.5 C 196.976,323.121 197.142,325.121 195,327.5C 193.204,325.598 193.037,323.598 194.5,321.5 Z"/></g>
<g><path style="opacity:0.004" fill="#fefffe" d="M 276.5,331.5 C 277.833,332.167 277.833,332.167 276.5,331.5 Z"/></g>
<g><path style="opacity:0.004" fill="#fefffe" d="M 416.5,334.5 C 417.833,335.167 417.833,335.167 416.5,334.5 Z"/></g>
<g><path style="opacity:0.726" fill="#040105" d="M 208.5,339.5 C 209.458,339.953 210.292,340.619 211,341.5C 211.333,341.167 211.667,340.833 212,340.5C 213.128,342.345 213.628,344.345 213.5,346.5C 211.692,346.509 210.025,346.009 208.5,345C 207.494,343.525 207.494,341.692 208.5,339.5 Z"/></g>
<g><path style="opacity:0.004" fill="#fefffe" d="M 311.5,340.5 C 312.833,341.167 312.833,341.167 311.5,340.5 Z"/></g>
<g><path style="opacity:0.004" fill="#fefffe" d="M 357.5,340.5 C 358.833,341.167 358.833,341.167 357.5,340.5 Z"/></g>
<g><path style="opacity:0.004" fill="#fefffe" d="M 461.5,344.5 C 462.833,345.167 462.833,345.167 461.5,344.5 Z"/></g>
<g><path style="opacity:0.004" fill="#fefffe" d="M 280.5,347.5 C 281.833,348.167 281.833,348.167 280.5,347.5 Z"/></g>
<g><path style="opacity:0.371" fill="#020101" d="M 216.5,350.5 C 217.613,351.946 217.78,353.613 217,355.5C 215.964,353.701 215.797,352.034 216.5,350.5 Z"/></g>
<g><path style="opacity:0.004" fill="#fefffe" d="M 259.5,354.5 C 260.833,355.167 260.833,355.167 259.5,354.5 Z"/></g>
<g><path style="opacity:0.83" fill="#030202" d="M 221.5,358.5 C 222.675,358.281 223.675,358.614 224.5,359.5C 227.006,363.166 229.673,366.666 232.5,370C 232.406,371.422 232.072,372.922 231.5,374.5C 228.015,371.516 224.682,368.349 221.5,365C 220.377,363.125 220.377,360.958 221.5,358.5 Z"/></g>
<g><path style="opacity:0.004" fill="#fefffe" d="M 440.5,359.5 C 441.833,360.167 441.833,360.167 440.5,359.5 Z"/></g>
<g><path style="opacity:0.004" fill="#fefffe" d="M 354.5,383.5 C 355.833,384.167 355.833,384.167 354.5,383.5 Z"/></g>
<g><path style="opacity:0.004" fill="#fefffe" d="M 333.5,388.5 C 334.833,389.167 334.833,389.167 333.5,388.5 Z"/></g>
<g><path style="opacity:0.004" fill="#fefffe" d="M 334.5,414.5 C 335.833,415.167 335.833,415.167 334.5,414.5 Z"/></g>
<g><path style="opacity:0.004" fill="#fefffe" d="M 129.5,419.5 C 130.833,420.167 130.833,420.167 129.5,419.5 Z"/></g>
<g><path style="opacity:0.996" fill="#e3e3e3" d="M 389.5,421.5 C 393.099,421.262 393.433,422.262 390.5,424.5C 388.481,423.867 388.147,422.867 389.5,421.5 Z"/></g>
<g><path style="opacity:0.004" fill="#fefffe" d="M 121.5,426.5 C 122.833,427.167 122.833,427.167 121.5,426.5 Z"/></g>
<g><path style="opacity:0.004" fill="#fefffe" d="M 447.5,426.5 C 448.833,427.167 448.833,427.167 447.5,426.5 Z"/></g>
<g><path style="opacity:0.004" fill="#fefffe" d="M 10.5,433.5 C 11.8333,434.167 11.8333,434.167 10.5,433.5 Z"/></g>
<g><path style="opacity:0.004" fill="#fefffe" d="M 127.5,437.5 C 128.833,438.167 128.833,438.167 127.5,437.5 Z"/></g>
<g><path style="opacity:0.004" fill="#fefffe" d="M 445.5,466.5 C 446.833,467.167 446.833,467.167 445.5,466.5 Z"/></g>
<g><path style="opacity:0.004" fill="#fefffe" d="M 102.5,474.5 C 103.833,475.167 103.833,475.167 102.5,474.5 Z"/></g>
<g><path style="opacity:0.004" fill="#fefffe" d="M 268.5,476.5 C 269.833,477.167 269.833,477.167 268.5,476.5 Z"/></g>
<g><path style="opacity:0.004" fill="#fefffe" d="M 201.5,478.5 C 202.833,479.167 202.833,479.167 201.5,478.5 Z"/></g>
<g><path style="opacity:0.004" fill="#fefffe" d="M 240.5,478.5 C 241.833,479.167 241.833,479.167 240.5,478.5 Z"/></g>
<g><path style="opacity:0.004" fill="#fefffe" d="M 484.5,492.5 C 485.833,493.167 485.833,493.167 484.5,492.5 Z"/></g>
<g><path style="opacity:0.004" fill="#fefffe" d="M 438.5,499.5 C 437.833,498.167 437.833,498.167 438.5,499.5 Z"/></g>
</svg>
