<?xml version="1.0" encoding="UTF-8"?>
<!DOCTYPE svg PUBLIC "-//W3C//DTD SVG 1.1//EN" "http://www.w3.org/Graphics/SVG/1.1/DTD/svg11.dtd">
<svg xmlns="http://www.w3.org/2000/svg" version="1.1" width="172px" height="172px" style="shape-rendering:geometricPrecision; text-rendering:geometricPrecision; image-rendering:optimizeQuality; fill-rule:evenodd; clip-rule:evenodd" xmlns:xlink="http://www.w3.org/1999/xlink">
<g><path style="opacity:1" fill="#000000" d="M 171.5,81.5 C 171.5,84.5 171.5,87.5 171.5,90.5C 144.833,117.833 117.833,144.833 90.5,171.5C 87.5,171.5 84.5,171.5 81.5,171.5C 54.895,145.395 28.395,119.062 2,92.5C 0,88.1667 0,83.8333 2,79.5C 19.6667,61.8333 37.3333,44.1667 55,26.5C 61.3333,32.8333 67.6667,39.1667 74,45.5C 72.5148,52.5421 74.6814,58.2087 80.5,62.5C 81.6662,78.4896 81.8329,94.4896 81,110.5C 71.7478,117.488 71.2478,124.988 79.5,133C 90.078,137.21 96.7447,133.71 99.5,122.5C 98.7821,117.4 96.2821,113.4 92,110.5C 91.1671,95.1558 91.3338,79.8225 92.5,64.5C 98.6521,70.1518 104.652,75.9851 110.5,82C 107.853,92.0287 111.686,97.862 122,99.5C 131.82,98.0051 135.82,92.3385 134,82.5C 130.288,75.5617 124.455,72.7284 116.5,74C 110.667,68.1667 104.833,62.3333 99,56.5C 100.493,43.3264 94.6597,37.4931 81.5,39C 75.3333,32.8333 69.1667,26.6667 63,20.5C 62.3333,19.8333 62.3333,19.1667 63,18.5C 68.5,13 74,7.5 79.5,2C 83.8333,0 88.1667,0 92.5,2C 119.062,28.395 145.395,54.895 171.5,81.5 Z"/></g>
</svg>
