<?xml version="1.0" encoding="UTF-8"?>
<!DOCTYPE svg PUBLIC "-//W3C//DTD SVG 1.1//EN" "http://www.w3.org/Graphics/SVG/1.1/DTD/svg11.dtd">
<svg xmlns="http://www.w3.org/2000/svg" version="1.1" width="300px" height="262px" style="shape-rendering:geometricPrecision; text-rendering:geometricPrecision; image-rendering:optimizeQuality; fill-rule:evenodd; clip-rule:evenodd" xmlns:xlink="http://www.w3.org/1999/xlink">
<g><path style="opacity:0.004" fill="#fefffe" d="M 113.5,-0.5 C 113.833,-0.5 114.167,-0.5 114.5,-0.5C 114.315,0.170143 113.981,0.170143 113.5,-0.5 Z"/></g>
<g><path style="opacity:0.996" fill="#000000" d="M 145.5,-0.5 C 148.167,-0.5 150.833,-0.5 153.5,-0.5C 200.981,26.1615 248.147,53.4949 295,81.5C 296.801,84.4375 298.301,87.4375 299.5,90.5C 299.5,92.8333 299.5,95.1667 299.5,97.5C 298.031,101.096 296.031,104.43 293.5,107.5C 280.861,115.155 268.194,122.822 255.5,130.5C 267.833,137.667 280.167,144.833 292.5,152C 295.738,154.998 298.071,158.498 299.5,162.5C 299.5,165.5 299.5,168.5 299.5,171.5C 297.977,176.017 295.311,179.85 291.5,183C 245.386,209.719 199.053,235.886 152.5,261.5C 150.167,261.5 147.833,261.5 145.5,261.5C 99.2614,235.041 52.9281,208.541 6.5,182C 3.04803,178.743 0.7147,174.91 -0.5,170.5C -0.5,168.167 -0.5,165.833 -0.5,163.5C 1.39738,158.079 4.73071,153.579 9.5,150C 20.8424,143.663 32.1758,137.329 43.5,131C 31.3319,123.415 18.9985,116.082 6.5,109C 3.26226,106.002 0.928927,102.502 -0.5,98.5C -0.5,95.1667 -0.5,91.8333 -0.5,88.5C 1.12261,84.3552 3.78928,80.8552 7.5,78C 22.3932,69.7258 37.0599,61.2258 51.5,52.5C 69.5353,42.1515 87.5353,31.8181 105.5,21.5C 118.9,14.1365 132.233,6.80318 145.5,-0.5 Z M 147.5,41.5 C 149.655,41.372 151.655,41.872 153.5,43C 182.833,60 212.167,77 241.5,94C 233.167,98.8333 224.833,103.667 216.5,108.5C 196.491,96.4936 176.158,84.9936 155.5,74C 150.411,73.1743 145.411,73.5076 140.5,75C 121.415,86.2929 102.249,97.4595 83,108.5C 75.1667,104 67.3333,99.5 59.5,95C 58.2888,94.1072 58.2888,93.2739 59.5,92.5C 89.2235,75.9783 118.557,58.9783 147.5,41.5 Z M 148.5,114.5 C 157.592,119.075 166.592,123.908 175.5,129C 176.451,129.718 176.617,130.551 176,131.5C 167.086,136.373 158.252,141.373 149.5,146.5C 140.335,141.419 131.335,136.085 122.5,130.5C 131.195,125.156 139.861,119.822 148.5,114.5 Z M 81.5,152.5 C 102.005,164.144 122.672,175.644 143.5,187C 147.5,187.667 151.5,187.667 155.5,187C 175.748,175.626 195.915,164.126 216,152.5C 224.167,157.333 232.333,162.167 240.5,167C 210.456,185.021 180.123,202.521 149.5,219.5C 118.879,202.856 88.5462,185.689 58.5,168C 57.1667,167.333 57.1667,166.667 58.5,166C 66.5587,161.978 74.2253,157.478 81.5,152.5 Z"/></g>
<g><path style="opacity:0.004" fill="#fefffe" d="M 122.5,0.5 C 123.833,1.16667 123.833,1.16667 122.5,0.5 Z"/></g>
<g><path style="opacity:0.004" fill="#fefffe" d="M 272.5,6.5 C 273.833,7.16667 273.833,7.16667 272.5,6.5 Z"/></g>
<g><path style="opacity:0.004" fill="#fefffe" d="M 236.5,7.5 C 237.833,8.16667 237.833,8.16667 236.5,7.5 Z"/></g>
<g><path style="opacity:0.004" fill="#fefffe" d="M 266.5,19.5 C 267.833,20.1667 267.833,20.1667 266.5,19.5 Z"/></g>
<g><path style="opacity:0.004" fill="#fefffe" d="M 105.5,21.5 C 104.833,20.1667 104.833,20.1667 105.5,21.5 Z"/></g>
<g><path style="opacity:0.004" fill="#fefffe" d="M 293.5,21.5 C 294.833,22.1667 294.833,22.1667 293.5,21.5 Z"/></g>
<g><path style="opacity:0.004" fill="#fefffe" d="M 53.5,30.5 C 54.8333,31.1667 54.8333,31.1667 53.5,30.5 Z"/></g>
<g><path style="opacity:0.004" fill="#fefffe" d="M 272.5,32.5 C 273.833,33.1667 273.833,33.1667 272.5,32.5 Z"/></g>
<g><path style="opacity:0.004" fill="#fefffe" d="M 68.5,35.5 C 69.8333,36.1667 69.8333,36.1667 68.5,35.5 Z"/></g>
<g><path style="opacity:0.004" fill="#fefffe" d="M 233.5,40.5 C 234.833,41.1667 234.833,41.1667 233.5,40.5 Z"/></g>
<g><path style="opacity:0.004" fill="#fefffe" d="M 2.5,43.5 C 3.83333,44.1667 3.83333,44.1667 2.5,43.5 Z"/></g>
<g><path style="opacity:0.004" fill="#fefffe" d="M 23.5,43.5 C 24.8333,44.1667 24.8333,44.1667 23.5,43.5 Z"/></g>
<g><path style="opacity:0.004" fill="#fefffe" d="M 284.5,50.5 C 285.833,51.1667 285.833,51.1667 284.5,50.5 Z"/></g>
<g><path style="opacity:0.004" fill="#fefffe" d="M 51.5,52.5 C 50.8333,51.1667 50.8333,51.1667 51.5,52.5 Z"/></g>
<g><path style="opacity:0.004" fill="#fefffe" d="M 290.5,58.5 C 291.833,59.1667 291.833,59.1667 290.5,58.5 Z"/></g>
<g><path style="opacity:0.004" fill="#fefffe" d="M 284.5,63.5 C 285.833,64.1667 285.833,64.1667 284.5,63.5 Z"/></g>
<g><path style="opacity:0.004" fill="#fefffe" d="M 293.5,107.5 C 294.833,108.167 294.833,108.167 293.5,107.5 Z"/></g>
<g><path style="opacity:0.004" fill="#fefffe" d="M 14.5,118.5 C 15.8333,119.167 15.8333,119.167 14.5,118.5 Z"/></g>
<g><path style="opacity:0.004" fill="#fefffe" d="M 296.5,129.5 C 297.833,130.167 297.833,130.167 296.5,129.5 Z"/></g>
<g><path style="opacity:0.004" fill="#fefffe" d="M 284.5,142.5 C 285.833,143.167 285.833,143.167 284.5,142.5 Z"/></g>
<g><path style="opacity:0.004" fill="#fefffe" d="M 284.5,191.5 C 285.833,192.167 285.833,192.167 284.5,191.5 Z"/></g>
<g><path style="opacity:0.004" fill="#fefffe" d="M 23.5,195.5 C 24.8333,196.167 24.8333,196.167 23.5,195.5 Z"/></g>
<g><path style="opacity:0.004" fill="#fefffe" d="M 254.5,206.5 C 255.833,207.167 255.833,207.167 254.5,206.5 Z"/></g>
<g><path style="opacity:0.004" fill="#fefffe" d="M 29.5,218.5 C 30.8333,219.167 30.8333,219.167 29.5,218.5 Z"/></g>
<g><path style="opacity:0.004" fill="#fefffe" d="M 68.5,225.5 C 69.8333,226.167 69.8333,226.167 68.5,225.5 Z"/></g>
<g><path style="opacity:0.004" fill="#fefffe" d="M 11.5,228.5 C 12.8333,229.167 12.8333,229.167 11.5,228.5 Z"/></g>
<g><path style="opacity:0.004" fill="#fefffe" d="M 89.5,232.5 C 90.8333,233.167 90.8333,233.167 89.5,232.5 Z"/></g>
<g><path style="opacity:0.004" fill="#fefffe" d="M 68.5,235.5 C 69.8333,236.167 69.8333,236.167 68.5,235.5 Z"/></g>
<g><path style="opacity:0.004" fill="#fefffe" d="M 77.5,239.5 C 78.8333,240.167 78.8333,240.167 77.5,239.5 Z"/></g>
<g><path style="opacity:0.004" fill="#fefffe" d="M 218.5,239.5 C 219.833,240.167 219.833,240.167 218.5,239.5 Z"/></g>
<g><path style="opacity:0.004" fill="#fefffe" d="M 41.5,240.5 C 42.8333,241.167 42.8333,241.167 41.5,240.5 Z"/></g>
<g><path style="opacity:0.004" fill="#fefffe" d="M 269.5,242.5 C 270.833,243.167 270.833,243.167 269.5,242.5 Z"/></g>
<g><path style="opacity:0.004" fill="#fefffe" d="M 8.5,244.5 C 9.83333,245.167 9.83333,245.167 8.5,244.5 Z"/></g>
<g><path style="opacity:0.004" fill="#fefffe" d="M 41.5,254.5 C 42.8333,255.167 42.8333,255.167 41.5,254.5 Z"/></g>
<g><path style="opacity:0.004" fill="#fefffe" d="M 95.5,259.5 C 96.8333,260.167 96.8333,260.167 95.5,259.5 Z"/></g>
</svg>
