<?xml version="1.0" encoding="UTF-8"?>
<!DOCTYPE svg PUBLIC "-//W3C//DTD SVG 1.1//EN" "http://www.w3.org/Graphics/SVG/1.1/DTD/svg11.dtd">
<svg xmlns="http://www.w3.org/2000/svg" version="1.1" width="500px" height="500px" style="shape-rendering:geometricPrecision; text-rendering:geometricPrecision; image-rendering:optimizeQuality; fill-rule:evenodd; clip-rule:evenodd" xmlns:xlink="http://www.w3.org/1999/xlink">
<g><path style="opacity:0.99" fill="#000000" d="M -0.5,-0.5 C 166.167,-0.5 332.833,-0.5 499.5,-0.5C 499.5,166.167 499.5,332.833 499.5,499.5C 332.833,499.5 166.167,499.5 -0.5,499.5C -0.5,332.833 -0.5,166.167 -0.5,-0.5 Z M 332.5,255.5 C 322.364,262.644 311.864,268.31 301,272.5C 299.883,272.335 298.716,272.002 297.5,271.5C 296.808,272.025 296.308,272.692 296,273.5C 294.602,272.949 293.268,272.616 292,272.5C 290.559,273.26 289.059,273.926 287.5,274.5C 281.5,273.167 275.5,273.167 269.5,274.5C 266.835,273.152 264.169,272.819 261.5,273.5C 259.533,272.047 257.367,271.047 255,270.5C 253.984,271.634 253.317,271.301 253,269.5C 252,269.833 251,270.167 250,270.5C 249.683,268.699 249.016,268.366 248,269.5C 244.304,266.708 239.97,264.042 235,261.5C 234.667,261.833 234.333,262.167 234,262.5C 232.318,259.319 229.818,256.986 226.5,255.5C 222.432,252.115 218.766,248.282 215.5,244C 218.463,240.304 221.463,236.804 224.5,233.5C 228.067,230.023 231.4,226.356 234.5,222.5C 236.137,220.525 237.804,218.525 239.5,216.5C 240.167,216.5 240.5,216.167 240.5,215.5C 241.222,215.082 241.722,214.416 242,213.5C 244.37,216.039 246.87,218.372 249.5,220.5C 254.242,224.889 259.576,228.556 265.5,231.5C 266.086,231.291 266.586,230.957 267,230.5C 269.619,232.032 272.453,233.032 275.5,233.5C 278.412,233.255 281.412,233.255 284.5,233.5C 294.563,231.339 301.563,225.673 305.5,216.5C 307.455,214.332 308.121,211.998 307.5,209.5C 308.028,208.279 308.695,207.113 309.5,206C 308.555,158.728 308.222,111.228 308.5,63.5C 323.5,63.5 338.5,63.5 353.5,63.5C 353.667,111.168 353.5,158.834 353,206.5C 352.727,208.101 352.227,209.601 351.5,211C 351.833,211.333 352.167,211.667 352.5,212C 350.686,214.557 350.352,217.224 351.5,220C 349.545,222.168 348.879,224.502 349.5,227C 347.699,227.317 347.366,227.984 348.5,229C 346.105,234.457 343.438,239.791 340.5,245C 340.833,245.333 341.167,245.667 341.5,246C 339.25,246.611 337.583,247.944 336.5,250C 336.833,250.333 337.167,250.667 337.5,251C 335.34,251.996 333.673,253.496 332.5,255.5 Z M 79.5,66.5 C 113.167,66.5 146.833,66.5 180.5,66.5C 180.5,78.1667 180.5,89.8333 180.5,101.5C 171.167,101.5 161.833,101.5 152.5,101.5C 152.5,146.167 152.5,190.833 152.5,235.5C 161.751,235.182 170.917,235.515 180,236.5C 180.5,248.495 180.667,260.495 180.5,272.5C 146.833,272.5 113.167,272.5 79.5,272.5C 79.5,260.167 79.5,247.833 79.5,235.5C 89.0834,235.818 98.5834,235.485 108,234.5C 108.5,190.168 108.667,145.835 108.5,101.5C 98.8333,101.5 89.1667,101.5 79.5,101.5C 79.5,89.8333 79.5,78.1667 79.5,66.5 Z M 48.5,408.5 C 110.501,408.333 172.501,408.5 234.5,409C 233.515,418.417 233.182,427.917 233.5,437.5C 171.833,437.5 110.167,437.5 48.5,437.5C 48.5,427.833 48.5,418.167 48.5,408.5 Z"/></g>
</svg>
