<?xml version="1.0" encoding="UTF-8"?>
<!DOCTYPE svg PUBLIC "-//W3C//DTD SVG 1.1//EN" "http://www.w3.org/Graphics/SVG/1.1/DTD/svg11.dtd">
<svg xmlns="http://www.w3.org/2000/svg" version="1.1" width="500px" height="500px" style="shape-rendering:geometricPrecision; text-rendering:geometricPrecision; image-rendering:optimizeQuality; fill-rule:evenodd; clip-rule:evenodd" xmlns:xlink="http://www.w3.org/1999/xlink">
<g><path style="opacity:1" fill="#000000" d="M 404.5,80.5 C 416.634,85.7305 428.634,91.5638 440.5,98C 447.178,104.189 451.678,111.689 454,120.5C 456.606,136.397 459.939,152.064 464,167.5C 472.06,198.78 479.394,230.447 486,262.5C 486.598,265.308 487.765,267.808 489.5,270C 488.424,271.726 488.257,273.559 489,275.5C 490.526,279.003 492.026,282.336 493.5,285.5C 495.453,286.626 496.953,288.292 498,290.5C 498.183,293.365 498.683,296.031 499.5,298.5C 499.5,304.833 499.5,311.167 499.5,317.5C 498.883,317.389 498.383,317.056 498,316.5C 496.588,319.536 495.088,322.536 493.5,325.5C 486.547,332.459 479.88,339.792 473.5,347.5C 470.218,352.945 466.385,357.945 462,362.5C 461.517,363.448 461.351,364.448 461.5,365.5C 460.325,365.281 459.325,365.614 458.5,366.5C 439.939,389.921 421.439,413.588 403,437.5C 399.581,439.065 397.581,441.732 397,445.5C 391.33,449.18 387.33,454.18 385,460.5C 379.343,465.496 374.343,471.163 370,477.5C 361.992,485.007 352.492,489.34 341.5,490.5C 277.159,489.629 212.825,489.462 148.5,490C 142.476,487.49 136.81,484.324 131.5,480.5C 98.8932,439.392 65.7265,398.725 32,358.5C 27.101,349.772 20.9343,342.106 13.5,335.5C 9.80772,330.795 6.47439,325.795 3.5,320.5C 2.4763,319.147 1.14297,318.48 -0.5,318.5C -0.5,314.833 -0.5,311.167 -0.5,307.5C 0.495904,307.586 1.32924,307.252 2,306.5C 13.3267,256.821 24.9933,207.487 37,158.5C 40.0474,142.991 43.3807,127.658 47,112.5C 49.2145,105.531 53.3811,100.031 59.5,96C 80.2168,86.3742 101.217,77.0409 122.5,68C 123.5,67 124.5,66 125.5,65C 134.853,60.9635 144.186,56.9635 153.5,53C 164.222,46.642 175.556,41.3086 187.5,37C 199.547,31.4238 211.214,25.0905 222.5,18C 227.486,16.3863 232.32,14.553 237,12.5C 238.364,13.2583 239.531,12.7583 240.5,11C 253.867,9.95437 266.034,12.4544 277,18.5C 279.953,20.4528 283.119,21.9528 286.5,23C 290.09,26.1429 294.09,28.6429 298.5,30.5C 330.983,45.1521 362.983,60.6521 394.5,77C 397.74,78.3999 401.073,79.5666 404.5,80.5 Z M 398.5,126.5 C 406.832,124.826 412.165,127.993 414.5,136C 413.295,140.242 410.961,143.742 407.5,146.5C 398.174,151.83 389.174,157.663 380.5,164C 377.905,168.225 375.239,172.392 372.5,176.5C 372.957,177.298 373.624,177.631 374.5,177.5C 382.834,192.569 389.501,208.236 394.5,224.5C 394.5,225.167 394.5,225.833 394.5,226.5C 394.389,227.117 394.056,227.617 393.5,228C 394.667,228.5 395.5,229.333 396,230.5C 396.189,235.251 396.855,239.917 398,244.5C 398.797,256.287 398.464,267.954 397,279.5C 402.018,283.521 407.518,286.688 413.5,289C 423.414,290.745 433.414,291.745 443.5,292C 454.4,297.513 455.066,304.013 445.5,311.5C 441.893,312.489 438.226,312.823 434.5,312.5C 434.167,312.5 433.833,312.5 433.5,312.5C 432.571,311.685 431.571,310.852 430.5,310C 421.287,306.926 412.12,304.093 403,301.5C 399.304,303.721 395.47,304.554 391.5,304C 387.029,316.772 381.363,328.939 374.5,340.5C 363.174,357.16 349.174,371.16 332.5,382.5C 331.833,382.5 331.5,382.833 331.5,383.5C 329.718,384.72 327.718,385.386 325.5,385.5C 325.334,390.844 325.501,396.177 326,401.5C 332.112,412.075 338.446,422.408 345,432.5C 345.907,442.26 341.574,446.593 332,445.5C 329.33,444.329 326.996,442.662 325,440.5C 321.399,428.454 316.732,416.788 311,405.5C 309.89,403.963 308.39,403.297 306.5,403.5C 305.058,402.18 304.392,400.514 304.5,398.5C 298.619,399.28 292.952,400.947 287.5,403.5C 262.138,408.981 236.805,408.815 211.5,403C 208.212,401.418 204.879,400.085 201.5,399C 199.19,398.503 196.857,398.337 194.5,398.5C 194.785,402.038 193.118,403.871 189.5,404C 182.456,415.365 177.456,427.532 174.5,440.5C 173.833,440.5 173.5,440.833 173.5,441.5C 166.59,448.891 160.09,448.224 154,439.5C 153.389,435.133 154.389,431.133 157,427.5C 162.339,418.83 167.672,410.163 173,401.5C 173.499,396.177 173.666,390.844 173.5,385.5C 171.217,385.392 169.217,384.559 167.5,383C 160.976,377.642 154.31,372.475 147.5,367.5C 140.071,359.415 133.071,351.082 126.5,342.5C 126.5,341.833 126.167,341.5 125.5,341.5C 122.107,334.288 118.274,327.288 114,320.5C 112.356,314.724 110.19,309.224 107.5,304C 105.633,303.289 104.133,303.789 103,305.5C 100.276,304.224 97.276,303.558 94,303.5C 91.1667,303.667 88.3333,303.833 85.5,304C 79.3795,306.227 73.3795,308.727 67.5,311.5C 56.0539,315.858 49.0539,312.525 46.5,301.5C 48.3696,296.797 51.703,293.63 56.5,292C 65.5,291.667 74.5,291.333 83.5,291C 87.9507,290.384 91.7841,288.551 95,285.5C 95.4828,284.552 95.6495,283.552 95.5,282.5C 99.7037,282.627 102.037,280.627 102.5,276.5C 100.55,266.933 100.05,257.266 101,247.5C 101.742,237.141 103.575,227.141 106.5,217.5C 107.167,217.5 107.5,217.167 107.5,216.5C 111.628,202.148 117.628,188.648 125.5,176C 123.281,172.658 121.281,169.158 119.5,165.5C 118.817,165.137 118.15,164.804 117.5,164.5C 112.125,158.973 105.792,154.807 98.5,152C 95.3196,149.323 91.9863,146.823 88.5,144.5C 83.1873,137.845 84.1873,132.012 91.5,127C 94.5,126.333 97.5,126.333 100.5,127C 109.651,135.317 118.651,143.817 127.5,152.5C 132.209,153.211 136.709,154.545 141,156.5C 152.982,145.255 166.149,135.588 180.5,127.5C 181.167,127.5 181.5,127.167 181.5,126.5C 190.484,122.838 199.484,119.171 208.5,115.5C 208.833,115.5 209.167,115.5 209.5,115.5C 218.793,113.982 228.127,112.315 237.5,110.5C 239.958,104.988 241.625,99.3218 242.5,93.5C 240.892,82.8601 239.725,72.1934 239,61.5C 239.885,59 241.052,56.6667 242.5,54.5C 244.935,53.647 247.269,52.647 249.5,51.5C 255.69,52.5142 259.19,56.1808 260,62.5C 259.194,73.6609 258.027,84.8275 256.5,96C 257.801,100.954 259.468,105.787 261.5,110.5C 278.054,112.646 294.054,116.812 309.5,123C 318.418,127.463 327.085,132.463 335.5,138C 343.346,143.856 350.846,150.022 358,156.5C 362.291,154.545 366.791,153.211 371.5,152.5C 380.244,143.42 389.244,134.754 398.5,126.5 Z"/></g>
<g><path style="opacity:0.004" fill="#fefffe" d="M 117.5,20.5 C 118.833,21.1667 118.833,21.1667 117.5,20.5 Z"/></g>
<g><path style="opacity:0.004" fill="#fefffe" d="M 474.5,22.5 C 475.833,23.1667 475.833,23.1667 474.5,22.5 Z"/></g>
<g><path style="opacity:0.004" fill="#fefffe" d="M 357.5,24.5 C 358.833,25.1667 358.833,25.1667 357.5,24.5 Z"/></g>
<g><path style="opacity:0.004" fill="#fefffe" d="M -0.5,25.5 C 0.833333,26.1667 0.833333,26.1667 -0.5,25.5 Z"/></g>
<g><path style="opacity:0.004" fill="#fefffe" d="M 90.5,29.5 C 91.8333,30.1667 91.8333,30.1667 90.5,29.5 Z"/></g>
<g><path style="opacity:0.004" fill="#fefffe" d="M 74.5,31.5 C 75.8333,32.1667 75.8333,32.1667 74.5,31.5 Z"/></g>
<g><path style="opacity:0.004" fill="#fefffe" d="M 449.5,46.5 C 450.833,47.1667 450.833,47.1667 449.5,46.5 Z"/></g>
<g><path style="opacity:0.535" fill="#272728" d="M 398.5,126.5 C 389.244,134.754 380.244,143.42 371.5,152.5C 366.791,153.211 362.291,154.545 358,156.5C 350.846,150.022 343.346,143.856 335.5,138C 327.085,132.463 318.418,127.463 309.5,123C 294.054,116.812 278.054,112.646 261.5,110.5C 259.468,105.787 257.801,100.954 256.5,96C 258.027,84.8275 259.194,73.6609 260,62.5C 259.19,56.1808 255.69,52.5142 249.5,51.5C 247.269,52.647 244.935,53.647 242.5,54.5C 241.052,56.6667 239.885,59 239,61.5C 239.725,72.1934 240.892,82.8601 242.5,93.5C 241.625,99.3218 239.958,104.988 237.5,110.5C 228.127,112.315 218.793,113.982 209.5,115.5C 209.804,114.85 210.137,114.183 210.5,113.5C 213.785,112.676 217.118,112.176 220.5,112C 220.957,111.586 221.291,111.086 221.5,110.5C 226.167,109.833 230.833,109.167 235.5,108.5C 238.018,102.336 239.018,95.8362 238.5,89C 237.392,78.8442 236.892,68.6775 237,58.5C 241.526,49.1776 248.36,47.011 257.5,52C 258.833,52.6667 258.833,53.3333 257.5,54C 258.448,54.4828 259.448,54.6495 260.5,54.5C 261.912,58.9615 262.578,63.6281 262.5,68.5C 261.061,79.9088 260.061,91.4088 259.5,103C 260.448,103.483 261.448,103.649 262.5,103.5C 262.357,105.262 262.691,106.929 263.5,108.5C 271.892,108.908 279.892,110.408 287.5,113C 313.258,120.011 335.591,132.844 354.5,151.5C 355.833,152.167 357.167,152.833 358.5,153.5C 361.974,151.938 365.64,151.105 369.5,151C 377.833,142.833 386.167,134.667 394.5,126.5C 395.808,125.374 397.142,125.374 398.5,126.5 Z"/></g>
<g><path style="opacity:0.224" fill="#282828" d="M 405.5,78.5 C 405.672,79.4916 405.338,80.1583 404.5,80.5C 401.073,79.5666 397.74,78.3999 394.5,77C 362.983,60.6521 330.983,45.1521 298.5,30.5C 294.09,28.6429 290.09,26.1429 286.5,23C 283.119,21.9528 279.953,20.4528 277,18.5C 266.034,12.4544 253.867,9.95437 240.5,11C 239.531,12.7583 238.364,13.2583 237,12.5C 232.32,14.553 227.486,16.3863 222.5,18C 211.214,25.0905 199.547,31.4238 187.5,37C 175.556,41.3086 164.222,46.642 153.5,53C 144.186,56.9635 134.853,60.9635 125.5,65C 124.5,66 123.5,67 122.5,68C 101.217,77.0409 80.2168,86.3742 59.5,96C 53.3811,100.031 49.2145,105.531 47,112.5C 43.3807,127.658 40.0474,142.991 37,158.5C 24.9933,207.487 13.3267,256.821 2,306.5C 1.32924,307.252 0.495904,307.586 -0.5,307.5C -0.5,306.167 -0.5,304.833 -0.5,303.5C 3.90305,288.518 7.40305,273.185 10,257.5C 10.4186,256.328 11.0853,255.328 12,254.5C 15.8966,231.982 20.8966,209.982 27,188.5C 32.6319,163.517 38.2986,138.517 44,113.5C 45.1549,109.326 46.8215,105.326 49,101.5C 52.0422,98.0673 55.5422,95.234 59.5,93C 92.7641,77.7041 126.097,62.3708 159.5,47C 175.933,38.4495 192.6,30.4495 209.5,23C 213.511,19.7781 217.844,17.1114 222.5,15C 228.704,13.1134 234.704,10.7801 240.5,8C 246.5,7.33333 252.5,7.33333 258.5,8C 266.149,10.9994 273.816,13.9994 281.5,17C 292.699,24.5165 304.699,30.5165 317.5,35C 336.898,45.6976 356.898,55.3643 377.5,64C 386.544,69.5807 395.877,74.414 405.5,78.5 Z"/></g>
<g><path style="opacity:0.48" fill="#272727" d="M 208.5,115.5 C 199.484,119.171 190.484,122.838 181.5,126.5C 181.5,125.5 181.5,124.5 181.5,123.5C 182.833,123.5 184.167,123.5 185.5,123.5C 185.5,122.5 185.5,121.5 185.5,120.5C 192.596,118.782 199.596,116.782 206.5,114.5C 207.416,114.543 208.083,114.876 208.5,115.5 Z"/></g>
<g><path style="opacity:1" fill="#010101" d="M 192.5,153.5 C 192.833,152.5 193.5,151.833 194.5,151.5C 195.172,152.267 196.005,152.934 197,153.5C 209.005,147.62 221.338,143.62 234,141.5C 234.167,142.667 234.333,143.833 234.5,145C 233.461,148.117 232.627,151.284 232,154.5C 232.164,171.616 230.998,188.616 228.5,205.5C 224.695,209.871 220.362,210.537 215.5,207.5C 214.914,207.709 214.414,208.043 214,208.5C 212.136,204.369 208.97,202.036 204.5,201.5C 204.439,199.408 203.439,197.908 201.5,197C 189.872,189.337 178.205,181.67 166.5,174C 170.755,169.907 175.421,166.407 180.5,163.5C 181.727,162.41 182.56,161.076 183,159.5C 183.414,159.957 183.914,160.291 184.5,160.5C 187.774,159.129 190.774,157.296 193.5,155C 192.944,154.617 192.611,154.117 192.5,153.5 Z"/></g>
<g><path style="opacity:1" fill="#010101" d="M 333.5,174.5 C 333.158,175.338 332.492,175.672 331.5,175.5C 330.749,174.427 329.749,174.26 328.5,175C 312.849,186.826 296.849,198.159 280.5,209C 276.163,210.418 272.829,209.252 270.5,205.5C 269.833,200.167 269.167,194.833 268.5,189.5C 267.808,188.975 267.308,188.308 267,187.5C 266.667,175.167 266.333,162.833 266,150.5C 264.625,148.063 264.125,145.397 264.5,142.5C 267.187,142.336 269.854,142.503 272.5,143C 281.36,146.104 290.36,149.104 299.5,152C 311.474,158.497 322.807,165.997 333.5,174.5 Z"/></g>
<g><path style="opacity:0.499" fill="#222222" d="M 88.5,144.5 C 91.9863,146.823 95.3196,149.323 98.5,152C 105.792,154.807 112.125,158.973 117.5,164.5C 116.022,164.762 114.689,164.429 113.5,163.5C 107.137,158.316 100.137,154.149 92.5,151C 90.8333,149.333 89.1667,147.667 87.5,146C 88.056,145.617 88.3893,145.117 88.5,144.5 Z"/></g>
<g><path style="opacity:0.784" fill="#232324" d="M 374.5,177.5 C 373.624,177.631 372.957,177.298 372.5,176.5C 375.239,172.392 377.905,168.225 380.5,164C 389.174,157.663 398.174,151.83 407.5,146.5C 410.961,143.742 413.295,140.242 414.5,136C 412.165,127.993 406.832,124.826 398.5,126.5C 399.244,124.547 400.744,123.547 403,123.5C 415.518,125.955 419.018,132.955 413.5,144.5C 412.448,144.351 411.448,144.517 410.5,145C 410.833,145.333 411.167,145.667 411.5,146C 410.167,146.667 409.167,147.667 408.5,149C 399.093,154.247 390.093,160.08 381.5,166.5C 380.692,168.423 380.192,170.423 380,172.5C 378.188,174.3 376.355,175.967 374.5,177.5 Z"/></g>
<g><path style="opacity:0.367" fill="#2d2d2d" d="M 180.5,127.5 C 166.149,135.588 152.982,145.255 141,156.5C 136.709,154.545 132.209,153.211 127.5,152.5C 118.651,143.817 109.651,135.317 100.5,127C 97.5,126.333 94.5,126.333 91.5,127C 84.1873,132.012 83.1873,137.845 88.5,144.5C 86.4078,144.439 84.9078,143.439 84,141.5C 81.7279,131.241 85.7279,125.241 96,123.5C 99.3706,124.438 102.537,125.771 105.5,127.5C 112.62,136.119 120.62,143.953 129.5,151C 132.167,151.333 134.833,151.667 137.5,152C 137.998,153.158 138.831,153.991 140,154.5C 146.011,149.321 151.844,143.988 157.5,138.5C 159.328,137.205 161.328,136.205 163.5,135.5C 164.853,134.476 165.52,133.143 165.5,131.5C 170.148,130.279 174.481,128.279 178.5,125.5C 179.522,125.855 180.189,126.522 180.5,127.5 Z"/></g>
<g><path style="opacity:0.398" fill="#282828" d="M 333.5,174.5 C 322.807,165.997 311.474,158.497 299.5,152C 290.36,149.104 281.36,146.104 272.5,143C 269.854,142.503 267.187,142.336 264.5,142.5C 264.125,145.397 264.625,148.063 266,150.5C 266.333,162.833 266.667,175.167 267,187.5C 267.308,188.308 267.808,188.975 268.5,189.5C 269.167,194.833 269.833,200.167 270.5,205.5C 272.829,209.252 276.163,210.418 280.5,209C 296.849,198.159 312.849,186.826 328.5,175C 329.749,174.26 330.749,174.427 331.5,175.5C 316.601,187.227 301.268,198.394 285.5,209C 273.142,214.338 266.642,210.172 266,196.5C 265.566,177.468 264.732,158.468 263.5,139.5C 286.761,142.139 307.428,150.806 325.5,165.5C 328.926,167.92 331.592,170.92 333.5,174.5 Z"/></g>
<g><path style="opacity:0.004" fill="#fefffe" d="M 489.5,177.5 C 490.833,178.167 490.833,178.167 489.5,177.5 Z"/></g>
<g><path style="opacity:0.655" fill="#1e1d1f" d="M 405.5,78.5 C 411.811,80.9866 418.145,83.4866 424.5,86C 429.939,89.442 435.606,92.442 441.5,95C 444.777,97.7342 447.944,100.568 451,103.5C 451.29,105.044 451.956,106.377 453,107.5C 454.048,116.006 456.381,124.339 460,132.5C 468.536,169.98 476.869,207.647 485,245.5C 486.043,248.357 487.21,251.19 488.5,254C 488.043,254.414 487.709,254.914 487.5,255.5C 488.877,262.144 490.71,268.81 493,275.5C 493.498,278.817 493.665,282.15 493.5,285.5C 492.026,282.336 490.526,279.003 489,275.5C 488.257,273.559 488.424,271.726 489.5,270C 487.765,267.808 486.598,265.308 486,262.5C 479.394,230.447 472.06,198.78 464,167.5C 459.939,152.064 456.606,136.397 454,120.5C 451.678,111.689 447.178,104.189 440.5,98C 428.634,91.5638 416.634,85.7305 404.5,80.5C 405.338,80.1583 405.672,79.4916 405.5,78.5 Z"/></g>
<g><path style="opacity:0.315" fill="#242424" d="M 117.5,164.5 C 118.15,164.804 118.817,165.137 119.5,165.5C 121.281,169.158 123.281,172.658 125.5,176C 117.628,188.648 111.628,202.148 107.5,216.5C 106.335,215.504 105.668,214.171 105.5,212.5C 107.044,208.18 108.544,203.847 110,199.5C 114.084,191.508 118.584,183.675 123.5,176C 122.069,175.535 120.903,174.701 120,173.5C 119.322,170.697 118.156,168.197 116.5,166C 117.056,165.617 117.389,165.117 117.5,164.5 Z"/></g>
<g><path style="opacity:0.473" fill="#212121" d="M 374.5,177.5 C 375.973,178.072 377.307,178.905 378.5,180C 378.167,180.333 377.833,180.667 377.5,181C 379.359,182.558 380.859,184.391 382,186.5C 383.804,191.44 386.137,196.107 389,200.5C 391.85,207.052 394.017,213.885 395.5,221C 395.486,222.385 395.152,223.551 394.5,224.5C 389.501,208.236 382.834,192.569 374.5,177.5 Z"/></g>
<g><path style="opacity:1" fill="#010101" d="M 367.5,264.5 C 367.5,266.167 367.5,267.833 367.5,269.5C 347.619,263.719 327.619,257.719 307.5,251.5C 304.526,247.956 303.86,243.956 305.5,239.5C 310.04,235.925 314.04,231.925 317.5,227.5C 329.464,218.328 340.298,208.662 350,198.5C 354.671,207.43 359.171,216.43 363.5,225.5C 361.749,229.257 362.583,232.257 366,234.5C 366.596,244.412 367.096,254.412 367.5,264.5 Z"/></g>
<g><path style="opacity:0.969" fill="#1f1f20" d="M 369.5,255.5 C 368.833,258.5 368.167,261.5 367.5,264.5C 367.096,254.412 366.596,244.412 366,234.5C 362.583,232.257 361.749,229.257 363.5,225.5C 359.171,216.43 354.671,207.43 350,198.5C 340.298,208.662 329.464,218.328 317.5,227.5C 317.5,226.833 317.167,226.5 316.5,226.5C 326.426,217.183 336.426,207.85 346.5,198.5C 348.51,196.829 350.843,196.162 353.5,196.5C 358.583,208.074 363.083,220.074 367,232.5C 369.061,240.02 369.895,247.687 369.5,255.5 Z"/></g>
<g><path style="opacity:0.582" fill="#272728" d="M 192.5,153.5 C 192.611,154.117 192.944,154.617 193.5,155C 190.774,157.296 187.774,159.129 184.5,160.5C 183.914,160.291 183.414,159.957 183,159.5C 182.56,161.076 181.727,162.41 180.5,163.5C 175.421,166.407 170.755,169.907 166.5,174C 178.205,181.67 189.872,189.337 201.5,197C 203.439,197.908 204.439,199.408 204.5,201.5C 208.97,202.036 212.136,204.369 214,208.5C 214.414,208.043 214.914,207.709 215.5,207.5C 220.362,210.537 224.695,209.871 228.5,205.5C 230.998,188.616 232.164,171.616 232,154.5C 232.627,151.284 233.461,148.117 234.5,145C 234.333,143.833 234.167,142.667 234,141.5C 221.338,143.62 209.005,147.62 197,153.5C 196.005,152.934 195.172,152.267 194.5,151.5C 207.459,145.647 221.126,141.647 235.5,139.5C 234.197,159.8 233.364,180.133 233,200.5C 230.457,211.52 224.124,214.52 214,209.5C 198.964,198.725 183.798,188.058 168.5,177.5C 167.319,176.485 166.319,175.319 165.5,174C 172.71,164.737 181.71,157.904 192.5,153.5 Z"/></g>
<g><path style="opacity:0.004" fill="#fefffe" d="M 9.5,216.5 C 10.8333,217.167 10.8333,217.167 9.5,216.5 Z"/></g>
<g><path style="opacity:0.004" fill="#fefffe" d="M 13.5,216.5 C 14.8333,217.167 14.8333,217.167 13.5,216.5 Z"/></g>
<g><path style="opacity:0.586" fill="#292828" d="M 145.5,196.5 C 147.199,196.34 148.866,196.506 150.5,197C 164.874,209.843 179.208,222.676 193.5,235.5C 199.399,242.538 198.732,248.871 191.5,254.5C 173.479,259.894 155.479,265.394 137.5,271C 135.167,271.667 132.833,271.667 130.5,271C 128.15,253.842 129.65,237.009 135,220.5C 138.252,212.336 141.752,204.336 145.5,196.5 Z"/></g>
<g><path style="opacity:1" fill="#010101" d="M 147.5,198.5 C 162.463,211.626 177.296,224.959 192,238.5C 195.398,243.129 195.231,247.629 191.5,252C 188.199,253.542 184.866,254.875 181.5,256C 164.857,261.04 148.19,265.54 131.5,269.5C 130.862,252.024 133.028,235.024 138,218.5C 140.881,211.736 144.048,205.07 147.5,198.5 Z"/></g>
<g><path style="opacity:0.57" fill="#2d2d2d" d="M 316.5,226.5 C 317.167,226.5 317.5,226.833 317.5,227.5C 314.04,231.925 310.04,235.925 305.5,239.5C 303.86,243.956 304.526,247.956 307.5,251.5C 327.619,257.719 347.619,263.719 367.5,269.5C 367.5,267.833 367.5,266.167 367.5,264.5C 368.167,261.5 368.833,258.5 369.5,255.5C 369.666,260.511 369.499,265.511 369,270.5C 367.938,271.097 366.772,271.43 365.5,271.5C 346.613,265.576 327.613,260.076 308.5,255C 300.503,249.521 299.503,243.021 305.5,235.5C 308.895,232.098 312.562,229.098 316.5,226.5 Z"/></g>
<g><path style="opacity:0.436" fill="#272728" d="M 394.5,226.5 C 395.675,226.281 396.675,226.614 397.5,227.5C 398.014,230.644 398.847,233.644 400,236.5C 400.815,250.212 400.648,263.879 399.5,277.5C 402.167,279.5 404.5,281.833 406.5,284.5C 419.899,286.692 433.232,288.692 446.5,290.5C 447.381,291.971 448.714,292.804 450.5,293C 454.381,298.962 454.381,304.962 450.5,311C 445.893,314.153 440.893,315.32 435.5,314.5C 435.137,313.817 434.804,313.15 434.5,312.5C 438.226,312.823 441.893,312.489 445.5,311.5C 455.066,304.013 454.4,297.513 443.5,292C 433.414,291.745 423.414,290.745 413.5,289C 407.518,286.688 402.018,283.521 397,279.5C 398.464,267.954 398.797,256.287 398,244.5C 396.855,239.917 396.189,235.251 396,230.5C 395.5,229.333 394.667,228.5 393.5,228C 394.056,227.617 394.389,227.117 394.5,226.5 Z"/></g>
<g><path style="opacity:0.42" fill="#282829" d="M 239.5,238.5 C 246.175,238.334 252.842,238.5 259.5,239C 262.826,244.24 266.66,249.074 271,253.5C 270.471,259.998 268.971,266.331 266.5,272.5C 262.167,275 257.833,277.5 253.5,280C 245.584,280.103 238.584,277.603 232.5,272.5C 230.33,266.81 228.663,260.976 227.5,255C 231.945,249.833 235.945,244.333 239.5,238.5 Z"/></g>
<g><path style="opacity:1" fill="#020202" d="M 240.5,239.5 C 246.334,240.813 252.167,240.813 258,239.5C 260.171,243.859 263.004,247.859 266.5,251.5C 266.833,253.5 267.167,255.5 267.5,257.5C 266.828,262.172 266.161,266.839 265.5,271.5C 260.321,273.67 255.154,276.004 250,278.5C 244.627,276.06 239.127,274.06 233.5,272.5C 233.081,267.604 232.414,262.771 231.5,258C 231.833,255.833 232.167,253.667 232.5,251.5C 234.429,250.301 236.263,248.301 238,245.5C 239.559,243.783 240.392,241.783 240.5,239.5 Z"/></g>
<g><path style="opacity:0.375" fill="#2d2d2d" d="M 106.5,217.5 C 103.575,227.141 101.742,237.141 101,247.5C 100.05,257.266 100.55,266.933 102.5,276.5C 102.037,280.627 99.7037,282.627 95.5,282.5C 95.6495,283.552 95.4828,284.552 95,285.5C 91.7841,288.551 87.9507,290.384 83.5,291C 74.5,291.333 65.5,291.667 56.5,292C 51.703,293.63 48.3696,296.797 46.5,301.5C 45.2121,299.965 45.2121,298.299 46.5,296.5C 51.2425,291.889 56.9091,289.055 63.5,288C 68.0287,287.321 72.5287,287.487 77,288.5C 81.1921,287.997 85.3587,287.331 89.5,286.5C 92.8391,283.485 96.1725,280.485 99.5,277.5C 97.8845,260.439 98.3845,243.439 101,226.5C 103.012,224.318 104.012,221.651 104,218.5C 104.671,217.748 105.504,217.414 106.5,217.5 Z"/></g>
<g><path style="opacity:0.611" fill="#1f1f1f" d="M 307.5,289.5 C 307.389,290.117 307.056,290.617 306.5,291C 302.833,291.333 299.167,291.667 295.5,292C 293.082,293.919 291.749,296.419 291.5,299.5C 292.457,303.61 293.79,307.61 295.5,311.5C 295.376,312.107 295.043,312.44 294.5,312.5C 289.369,306.682 288.202,300.015 291,292.5C 295.928,287.933 301.428,286.933 307.5,289.5 Z"/></g>
<g><path style="opacity:1" fill="#010101" d="M 180.5,291.5 C 179.737,292.268 178.737,292.768 177.5,293C 179.167,293.167 180.833,293.333 182.5,293.5C 186.803,292.106 191.303,291.439 196,291.5C 202.492,290.507 206.325,293.174 207.5,299.5C 206.389,305.682 204.222,311.349 201,316.5C 196.537,329.374 191.37,342.041 185.5,354.5C 185.439,356.721 186.105,357.054 187.5,355.5C 187.737,356.791 187.404,357.791 186.5,358.5C 184.797,359.66 184.131,358.993 184.5,356.5C 174.352,350.572 165.685,342.905 158.5,333.5C 157.675,332.614 156.675,332.281 155.5,332.5C 151.625,324.978 147.458,317.645 143,310.5C 142.232,307.165 141.066,303.999 139.5,301C 145.152,300.311 150.652,299.144 156,297.5C 156.333,297.833 156.667,298.167 157,298.5C 162.866,295.971 169.033,294.971 175.5,295.5C 175.5,294.5 175.5,293.5 175.5,292.5C 176.919,291.549 178.585,291.216 180.5,291.5 Z"/></g>
<g><path style="opacity:1" fill="#010101" d="M 307.5,289.5 C 307.833,289.5 308.167,289.5 308.5,289.5C 309.737,291.097 311.404,292.263 313.5,293C 321.779,294.445 330.112,295.278 338.5,295.5C 338.5,296.5 338.5,297.5 338.5,298.5C 340.792,298.756 342.959,298.423 345,297.5C 349.465,298.648 353.965,299.648 358.5,300.5C 358.068,304.288 357.068,307.955 355.5,311.5C 351.724,318.729 347.724,325.729 343.5,332.5C 341.857,332.48 340.524,333.147 339.5,334.5C 337.55,337.405 335.884,340.405 334.5,343.5C 330.952,345.027 327.619,347.027 324.5,349.5C 323.614,350.325 323.281,351.325 323.5,352.5C 320.225,354.264 317.059,356.264 314,358.5C 310.258,344.46 304.758,330.96 297.5,318C 298.157,315.76 297.157,314.26 294.5,313.5C 294.5,313.167 294.5,312.833 294.5,312.5C 295.043,312.44 295.376,312.107 295.5,311.5C 293.79,307.61 292.457,303.61 291.5,299.5C 291.749,296.419 293.082,293.919 295.5,292C 299.167,291.667 302.833,291.333 306.5,291C 307.056,290.617 307.389,290.117 307.5,289.5 Z"/></g>
<g><path style="opacity:0.59" fill="#212123" d="M 433.5,312.5 C 432.584,312.982 431.584,313.315 430.5,313.5C 421.797,310.427 413.13,307.427 404.5,304.5C 402.833,304.833 401.167,305.167 399.5,305.5C 397.162,306.616 394.996,307.95 393,309.5C 392.667,309.167 392.333,308.833 392,308.5C 390.333,313.5 388.667,318.5 387,323.5C 383.942,329.277 380.608,334.943 377,340.5C 376.23,339.402 375.397,339.402 374.5,340.5C 381.363,328.939 387.029,316.772 391.5,304C 395.47,304.554 399.304,303.721 403,301.5C 412.12,304.093 421.287,306.926 430.5,310C 431.571,310.852 432.571,311.685 433.5,312.5 Z"/></g>
<g><path style="opacity:0.259" fill="#2b2b2b" d="M 175.5,292.5 C 175.5,293.5 175.5,294.5 175.5,295.5C 169.033,294.971 162.866,295.971 157,298.5C 156.667,298.167 156.333,297.833 156,297.5C 150.652,299.144 145.152,300.311 139.5,301C 141.066,303.999 142.232,307.165 143,310.5C 147.458,317.645 151.625,324.978 155.5,332.5C 156.675,332.281 157.675,332.614 158.5,333.5C 165.685,342.905 174.352,350.572 184.5,356.5C 184.131,358.993 184.797,359.66 186.5,358.5C 186.157,360.225 185.157,360.725 183.5,360C 168.275,349.942 155.942,337.109 146.5,321.5C 142.484,314.923 139.151,308.09 136.5,301C 136.645,300.228 136.978,299.561 137.5,299C 140.289,298.759 142.956,298.092 145.5,297C 155.503,295.47 165.503,293.97 175.5,292.5 Z"/></g>
<g><path style="opacity:0.553" fill="#242323" d="M 187.5,355.5 C 186.105,357.054 185.439,356.721 185.5,354.5C 191.37,342.041 196.537,329.374 201,316.5C 204.222,311.349 206.389,305.682 207.5,299.5C 206.325,293.174 202.492,290.507 196,291.5C 191.303,291.439 186.803,292.106 182.5,293.5C 180.833,293.333 179.167,293.167 177.5,293C 178.737,292.768 179.737,292.268 180.5,291.5C 188.813,288.868 197.147,288.534 205.5,290.5C 209.371,294.726 210.538,299.726 209,305.5C 202.129,322.359 194.962,339.026 187.5,355.5 Z"/></g>
<g><path style="opacity:1" fill="#010101" d="M 283.5,372.5 C 262.656,377.218 241.656,377.718 220.5,374C 219.318,372.232 217.985,372.065 216.5,373.5C 214.5,373.5 212.5,373.5 210.5,373.5C 210.229,371.62 210.896,370.287 212.5,369.5C 213.675,369.719 214.675,369.386 215.5,368.5C 219.075,360.928 223.075,353.594 227.5,346.5C 226.391,344.786 227.058,344.119 229.5,344.5C 231.98,338.076 234.98,331.91 238.5,326C 238.167,325.667 237.833,325.333 237.5,325C 238.448,324.517 239.448,324.351 240.5,324.5C 242.687,316.725 247.687,314.392 255.5,317.5C 263.404,331.943 271.571,346.277 280,360.5C 280.49,361.793 280.657,363.127 280.5,364.5C 281.5,364.5 282.5,364.5 283.5,364.5C 283.229,366.821 283.896,368.821 285.5,370.5C 284.757,371.182 284.091,371.849 283.5,372.5 Z"/></g>
<g><path style="opacity:0.572" fill="#212121" d="M 125.5,341.5 C 125.44,342.043 125.107,342.376 124.5,342.5C 123.481,341.313 122.314,340.313 121,339.5C 120.441,336.715 119.108,334.382 117,332.5C 115.412,327.145 113.079,322.145 110,317.5C 108.443,314.334 107.61,311 107.5,307.5C 102.798,307.222 98.2981,306.222 94,304.5C 85.746,305.581 78.246,308.414 71.5,313C 69.5372,313.844 68.2039,313.344 67.5,311.5C 73.3795,308.727 79.3795,306.227 85.5,304C 88.3333,303.833 91.1667,303.667 94,303.5C 97.276,303.558 100.276,304.224 103,305.5C 104.133,303.789 105.633,303.289 107.5,304C 110.19,309.224 112.356,314.724 114,320.5C 118.274,327.288 122.107,334.288 125.5,341.5 Z"/></g>
<g><path style="opacity:0.507" fill="#1c1c1c" d="M 283.5,373.5 C 283.5,373.167 283.5,372.833 283.5,372.5C 284.091,371.849 284.757,371.182 285.5,370.5C 283.896,368.821 283.229,366.821 283.5,364.5C 282.5,364.5 281.5,364.5 280.5,364.5C 280.657,363.127 280.49,361.793 280,360.5C 271.571,346.277 263.404,331.943 255.5,317.5C 247.687,314.392 242.687,316.725 240.5,324.5C 239.448,324.351 238.448,324.517 237.5,325C 237.833,325.333 238.167,325.667 238.5,326C 234.98,331.91 231.98,338.076 229.5,344.5C 227.058,344.119 226.391,344.786 227.5,346.5C 223.075,353.594 219.075,360.928 215.5,368.5C 214.675,369.386 213.675,369.719 212.5,369.5C 221.574,350.855 231.574,332.688 242.5,315C 248.369,311.741 253.702,312.574 258.5,317.5C 268.786,335.605 279.119,353.772 289.5,372C 287.75,373.319 285.75,373.819 283.5,373.5 Z"/></g>
<g><path style="opacity:0.761" fill="#242424" d="M 308.5,289.5 C 326.457,292.938 344.457,295.938 362.5,298.5C 356.153,318.976 344.82,336.476 328.5,351C 324.553,353.28 320.887,355.947 317.5,359C 315.975,360.009 314.308,360.509 312.5,360.5C 306.66,344.833 300.66,329.167 294.5,313.5C 297.157,314.26 298.157,315.76 297.5,318C 304.758,330.96 310.258,344.46 314,358.5C 317.059,356.264 320.225,354.264 323.5,352.5C 323.281,351.325 323.614,350.325 324.5,349.5C 327.619,347.027 330.952,345.027 334.5,343.5C 335.884,340.405 337.55,337.405 339.5,334.5C 340.524,333.147 341.857,332.48 343.5,332.5C 347.724,325.729 351.724,318.729 355.5,311.5C 357.068,307.955 358.068,304.288 358.5,300.5C 353.965,299.648 349.465,298.648 345,297.5C 342.959,298.423 340.792,298.756 338.5,298.5C 338.5,297.5 338.5,296.5 338.5,295.5C 330.112,295.278 321.779,294.445 313.5,293C 311.404,292.263 309.737,291.097 308.5,289.5 Z"/></g>
<g><path style="opacity:0.004" fill="#fefffe" d="M 440.5,415.5 C 441.833,416.167 441.833,416.167 440.5,415.5 Z"/></g>
<g><path style="opacity:0.004" fill="#fefffe" d="M 74.5,417.5 C 75.8333,418.167 75.8333,418.167 74.5,417.5 Z"/></g>
<g><path style="opacity:0.004" fill="#fefffe" d="M 55.5,454.5 C 56.8333,455.167 56.8333,455.167 55.5,454.5 Z"/></g>
<g><path style="opacity:0.004" fill="#fefffe" d="M 47.5,475.5 C 48.8333,476.167 48.8333,476.167 47.5,475.5 Z"/></g>
<g><path style="opacity:0.598" fill="#363535" d="M 499.5,317.5 C 499.5,317.833 499.5,318.167 499.5,318.5C 498.736,322.118 497.236,325.451 495,328.5C 492.137,330.537 489.97,333.204 488.5,336.5C 487.372,337.262 486.205,337.929 485,338.5C 460.974,369.181 436.641,399.514 412,429.5C 398.155,446.759 384.488,464.092 371,481.5C 362.945,488.692 353.445,492.692 342.5,493.5C 338.61,493.635 334.944,492.968 331.5,491.5C 329.933,491.477 328.6,491.977 327.5,493C 314.5,493.667 301.5,493.667 288.5,493C 288,492.5 287.5,492 287,491.5C 284.959,492.752 282.625,493.419 280,493.5C 276.588,493.669 273.421,493.003 270.5,491.5C 263.833,494.167 257.167,494.167 250.5,491.5C 244.238,494.058 237.905,494.058 231.5,491.5C 224.505,494.112 217.505,494.112 210.5,491.5C 207.556,491.724 204.723,492.39 202,493.5C 194.783,490.933 187.616,490.933 180.5,493.5C 177.018,493.312 173.685,492.645 170.5,491.5C 156.226,495.576 143.226,493.076 131.5,484C 127.44,479.363 123.274,474.863 119,470.5C 96.0393,440.545 72.3726,411.212 48,382.5C 39.3868,371.75 31.0535,360.75 23,349.5C 14.2104,340.575 6.37704,330.908 -0.5,320.5C -0.5,319.833 -0.5,319.167 -0.5,318.5C 1.14297,318.48 2.4763,319.147 3.5,320.5C 6.47439,325.795 9.80772,330.795 13.5,335.5C 20.9343,342.106 27.101,349.772 32,358.5C 65.7265,398.725 98.8932,439.392 131.5,480.5C 136.81,484.324 142.476,487.49 148.5,490C 212.825,489.462 277.159,489.629 341.5,490.5C 352.492,489.34 361.992,485.007 370,477.5C 374.343,471.163 379.343,465.496 385,460.5C 387.33,454.18 391.33,449.18 397,445.5C 397.581,441.732 399.581,439.065 403,437.5C 421.439,413.588 439.939,389.921 458.5,366.5C 459.325,365.614 460.325,365.281 461.5,365.5C 461.351,364.448 461.517,363.448 462,362.5C 466.385,357.945 470.218,352.945 473.5,347.5C 479.88,339.792 486.547,332.459 493.5,325.5C 495.088,322.536 496.588,319.536 498,316.5C 498.383,317.056 498.883,317.389 499.5,317.5 Z"/></g>
<g><path style="opacity:0.871" fill="#1f1f20" d="M 331.5,383.5 C 331.548,386.292 330.215,388.125 327.5,389C 330.144,391.598 330.144,394.265 327.5,397C 333.579,409.407 340.079,421.573 347,433.5C 348.214,438.354 347.047,442.521 343.5,446C 342.552,446.483 341.552,446.649 340.5,446.5C 340.5,447.5 340.5,448.5 340.5,449.5C 337.15,449.665 333.817,449.498 330.5,449C 327.64,445.473 324.473,442.306 321,439.5C 320.257,437.559 320.424,435.726 321.5,434C 320.552,433.517 319.552,433.351 318.5,433.5C 318.56,429.379 317.56,425.546 315.5,422C 315.833,421.667 316.167,421.333 316.5,421C 313.218,415.249 309.885,409.416 306.5,403.5C 308.39,403.297 309.89,403.963 311,405.5C 316.732,416.788 321.399,428.454 325,440.5C 326.996,442.662 329.33,444.329 332,445.5C 341.574,446.593 345.907,442.26 345,432.5C 338.446,422.408 332.112,412.075 326,401.5C 325.501,396.177 325.334,390.844 325.5,385.5C 327.718,385.386 329.718,384.72 331.5,383.5 Z"/></g>
<g><path style="opacity:0.504" fill="#1e1e1e" d="M 126.5,342.5 C 133.071,351.082 140.071,359.415 147.5,367.5C 154.31,372.475 160.976,377.642 167.5,383C 169.217,384.559 171.217,385.392 173.5,385.5C 173.666,390.844 173.499,396.177 173,401.5C 167.672,410.163 162.339,418.83 157,427.5C 154.389,431.133 153.389,435.133 154,439.5C 160.09,448.224 166.59,448.891 173.5,441.5C 175.465,441.948 175.798,442.948 174.5,444.5C 172.827,446.086 170.827,446.753 168.5,446.5C 168.5,447.5 168.5,448.5 168.5,449.5C 164.491,449.961 160.824,449.128 157.5,447C 156,444.833 154.167,443 152,441.5C 151.333,437.833 151.333,434.167 152,430.5C 159.113,420.366 165.447,409.699 171,398.5C 171.345,396.323 170.845,394.323 169.5,392.5C 169.722,390.945 170.389,389.611 171.5,388.5C 170.41,386.997 169.243,386.664 168,387.5C 167.383,386.551 167.549,385.718 168.5,385C 167.167,384.667 165.833,384.333 164.5,384C 157.428,379.104 150.761,373.604 144.5,367.5C 143.614,366.675 143.281,365.675 143.5,364.5C 136.833,359.629 130.833,353.129 125.5,345C 125.743,344.098 126.077,343.265 126.5,342.5 Z"/></g>
<g><path style="opacity:0.281" fill="#1d1d1d" d="M 287.5,403.5 C 286.493,404.828 285.16,405.828 283.5,406.5C 280.069,407.015 276.736,407.848 273.5,409C 257.167,409.667 240.833,409.667 224.5,409C 214.997,405.757 205.664,402.924 196.5,400.5C 196.436,401.365 196.103,402.365 195.5,403.5C 191.86,404.641 189.36,406.975 188,410.5C 183.884,419.177 180.551,428.177 178,437.5C 177.578,439.426 176.411,440.426 174.5,440.5C 177.456,427.532 182.456,415.365 189.5,404C 193.118,403.871 194.785,402.038 194.5,398.5C 196.857,398.337 199.19,398.503 201.5,399C 204.879,400.085 208.212,401.418 211.5,403C 236.805,408.815 262.138,408.981 287.5,403.5 Z"/></g>
<g><path style="opacity:0.204" fill="#2c2c2c" d="M 283.5,372.5 C 283.5,372.833 283.5,373.167 283.5,373.5C 283.389,374.117 283.056,374.617 282.5,375C 265.132,379.564 247.466,380.564 229.5,378C 224.944,376.593 220.611,375.093 216.5,373.5C 217.985,372.065 219.318,372.232 220.5,374C 241.656,377.718 262.656,377.218 283.5,372.5 Z"/></g>
<g><path style="opacity:0.869" fill="#1b1b1d" d="M 374.5,340.5 C 374.923,341.265 375.257,342.098 375.5,343C 365.343,356.965 354.01,369.132 341.5,379.5C 339,381.167 336.5,382.833 334,384.5C 332.97,384.164 332.47,383.497 332.5,382.5C 349.174,371.16 363.174,357.16 374.5,340.5 Z"/></g>
<g><path style="opacity:0.004" fill="#fefffe" d="M 108.5,492.5 C 109.833,493.167 109.833,493.167 108.5,492.5 Z"/></g>
<g><path style="opacity:0.004" fill="#fefffe" d="M 454.5,495.5 C 455.833,496.167 455.833,496.167 454.5,495.5 Z"/></g>
</svg>
