<?xml version="1.0" encoding="UTF-8"?>
<!DOCTYPE svg PUBLIC "-//W3C//DTD SVG 1.1//EN" "http://www.w3.org/Graphics/SVG/1.1/DTD/svg11.dtd">
<svg xmlns="http://www.w3.org/2000/svg" version="1.1" width="348px" height="348px" style="shape-rendering:geometricPrecision; text-rendering:geometricPrecision; image-rendering:optimizeQuality; fill-rule:evenodd; clip-rule:evenodd" xmlns:xlink="http://www.w3.org/1999/xlink">
<g><path style="opacity:1" fill="#020202" d="M 214.5,-0.5 C 215.5,-0.5 216.5,-0.5 217.5,-0.5C 250.154,10.4395 282.987,21.1062 316,31.5C 316.667,125.833 316.667,220.167 316,314.5C 282.971,324.883 249.804,334.883 216.5,344.5C 156.28,323.721 96.2805,302.387 36.5,280.5C 36.8417,279.662 37.5084,279.328 38.5,279.5C 95.8982,287.033 153.232,295.033 210.5,303.5C 211.919,304.451 213.585,304.784 215.5,304.5C 215.5,222.5 215.5,140.5 215.5,58.5C 214.209,58.2627 213.209,58.596 212.5,59.5C 172.804,69.3408 133.137,79.3408 93.5,89.5C 92.6667,140.497 92.1667,191.497 92,242.5C 71.6667,254.5 51.3333,266.5 31,278.5C 30.3076,277.975 29.8076,277.308 29.5,276.5C 29.5618,207.297 29.5618,138.131 29.5,69C 91.1932,45.716 152.86,22.5493 214.5,-0.5 Z"/></g>
<g><path style="opacity:1" fill="#2a2a2a" d="M 212.5,59.5 C 213.209,58.596 214.209,58.2627 215.5,58.5C 215.5,140.5 215.5,222.5 215.5,304.5C 213.585,304.784 211.919,304.451 210.5,303.5C 211.833,303.5 213.167,303.5 214.5,303.5C 215.164,221.826 214.497,140.493 212.5,59.5 Z"/></g>
<g><path style="opacity:1" fill="#616161" d="M 38.5,279.5 C 37.5084,279.328 36.8417,279.662 36.5,280.5C 35.0783,280.291 33.745,279.791 32.5,279C 34.7116,278.211 36.7116,278.378 38.5,279.5 Z"/></g>
</svg>
