<?xml version="1.0" encoding="UTF-8"?>
<!DOCTYPE svg PUBLIC "-//W3C//DTD SVG 1.1//EN" "http://www.w3.org/Graphics/SVG/1.1/DTD/svg11.dtd">
<svg xmlns="http://www.w3.org/2000/svg" version="1.1" width="2021px" height="2048px" style="shape-rendering:geometricPrecision; text-rendering:geometricPrecision; image-rendering:optimizeQuality; fill-rule:evenodd; clip-rule:evenodd" xmlns:xlink="http://www.w3.org/1999/xlink">
<g><path style="opacity:0.985" fill="#000000" d="M 862.5,-0.5 C 889.167,-0.5 915.833,-0.5 942.5,-0.5C 1075.48,12.2215 1187.98,65.8882 1280,160.5C 1282.52,163.025 1284.69,165.858 1286.5,169C 1295.93,168.716 1305.27,167.383 1314.5,165C 1470.33,143.944 1608.66,182.278 1729.5,280C 1848.4,384.5 1910.06,516.5 1914.5,676C 1914.01,730.928 1905.34,784.428 1888.5,836.5C 1966.99,926.51 2010.99,1031.51 2020.5,1151.5C 2020.5,1172.5 2020.5,1193.5 2020.5,1214.5C 2008.43,1362.81 1946.43,1485.31 1834.5,1582C 1769.03,1635.31 1694.69,1670.98 1611.5,1689C 1562.13,1832.28 1469.46,1936.61 1333.5,2002C 1299.33,2017.05 1263.99,2028.71 1227.5,2037C 1204.46,2041.07 1181.46,2044.57 1158.5,2047.5C 1130.5,2047.5 1102.5,2047.5 1074.5,2047.5C 938.365,2034.43 824.698,1977.93 733.5,1878C 582.739,1906.18 445.073,1876.85 320.5,1790C 203.866,1702.45 134.032,1585.95 111,1440.5C 102.219,1370.21 106.886,1300.88 125,1232.5C 127.509,1224.97 130.009,1217.47 132.5,1210C 52.882,1120.42 8.54868,1015.26 -0.5,894.5C -0.5,873.5 -0.5,852.5 -0.5,831.5C 11.1167,692.533 66.7834,575.366 166.5,480C 225.357,426.217 293.357,387.884 370.5,365C 383.886,361.637 397.219,358.137 410.5,354.5C 465.699,198.14 570.365,89.973 724.5,30C 745.765,22.4107 767.432,16.0774 789.5,11C 813.807,6.17746 838.141,2.34413 862.5,-0.5 Z M 880.5,135.5 C 980.547,132.129 1069.21,161.296 1146.5,223C 1006.23,303.991 865.896,384.991 725.5,466C 708.937,477.243 698.77,492.743 695,512.5C 694.833,706.834 694.333,901.168 693.5,1095.5C 636.074,1062.35 578.74,1029.02 521.5,995.5C 520.333,827.168 520.167,658.834 521,490.5C 533.039,371.522 586.539,276.688 681.5,206C 728.766,173.487 780.766,151.82 837.5,141C 851.977,139.137 866.31,137.304 880.5,135.5 Z M 1394.5,294.5 C 1494.4,296.003 1581.06,329.836 1654.5,396C 1752.23,491.101 1791.4,606.601 1772,742.5C 1634.56,662.508 1497.06,582.008 1359.5,501C 1334.34,486.075 1309.01,485.741 1283.5,500C 1119.32,595.231 955.323,690.065 791.5,784.5C 790.169,717.599 790.169,650.766 791.5,584C 923.044,508.373 1054.38,432.373 1185.5,356C 1200.91,347.633 1216.24,339.299 1231.5,331C 1283.29,307.637 1337.62,295.471 1394.5,294.5 Z M 384.5,506.5 C 386.332,668.164 387.166,830.164 387,992.5C 389.076,1018.87 401.576,1038.37 424.5,1051C 588.308,1144.53 751.641,1238.69 914.5,1333.5C 858.374,1365.8 802.374,1398.3 746.5,1431C 744.246,1432.15 741.913,1432.48 739.5,1432C 601.634,1352.72 463.634,1273.39 325.5,1194C 211.118,1122.83 147.951,1019.66 136,884.5C 132.428,747.509 184.594,638.009 292.5,556C 321.337,536.082 352.004,519.582 384.5,506.5 Z M 1276.5,614.5 C 1279.27,614.421 1281.94,614.921 1284.5,616C 1425.82,698.254 1567.48,780.254 1709.5,862C 1808.85,929.154 1866.68,1022.32 1883,1141.5C 1893.63,1263.59 1856.8,1368.43 1772.5,1456C 1740.27,1486.45 1704.27,1511.45 1664.5,1531C 1655.72,1535.2 1646.72,1538.7 1637.5,1541.5C 1637.67,1379.83 1637.5,1218.17 1637,1056.5C 1634.55,1032.38 1623.05,1013.88 1602.5,1001C 1437.09,904.966 1271.75,808.966 1106.5,713C 1163.51,680.342 1220.18,647.509 1276.5,614.5 Z M 1008.5,769.5 C 1009.87,769.343 1011.21,769.51 1012.5,770C 1086.03,811.839 1159.2,854.005 1232,896.5C 1232.83,981.169 1232.67,1065.84 1231.5,1150.5C 1158.47,1193.35 1085.14,1235.68 1011.5,1277.5C 937.558,1235.68 864.058,1193.34 791,1150.5C 789.367,1065.5 789.201,980.503 790.5,895.5C 863.165,853.501 935.832,811.501 1008.5,769.5 Z M 1325.5,951.5 C 1326.55,951.351 1327.55,951.517 1328.5,952C 1385.31,985.086 1441.98,1018.25 1498.5,1051.5C 1499.67,1221.17 1499.83,1390.83 1499,1560.5C 1485.12,1688.18 1424.62,1786.68 1317.5,1856C 1208.81,1919.55 1095.14,1929.55 976.5,1886C 939.319,1870.75 905.319,1850.42 874.5,1825C 1012.46,1744.68 1150.79,1664.85 1289.5,1585.5C 1308.09,1575.01 1319.92,1559.34 1325,1538.5C 1325.5,1342.83 1325.67,1147.17 1325.5,951.5 Z M 1230.5,1261.5 C 1231.83,1293.99 1232.5,1326.83 1232.5,1360C 1232.33,1392.83 1232.17,1425.67 1232,1458.5C 1231.73,1460.33 1230.89,1461.83 1229.5,1463C 1089.14,1544.05 948.802,1625.05 808.5,1706C 715.17,1755.03 617.504,1765.03 515.5,1736C 395.735,1696.56 312.569,1618.4 266,1501.5C 245.066,1442.46 238.4,1381.79 246,1319.5C 246.353,1314.88 247.519,1310.55 249.5,1306.5C 391.178,1388.52 533.178,1470.35 675.5,1552C 698.286,1560.28 719.953,1557.94 740.5,1545C 903.997,1450.11 1067.33,1355.61 1230.5,1261.5 Z"/></g>
</svg>
