<?xml version="1.0" encoding="UTF-8"?>
<!DOCTYPE svg PUBLIC "-//W3C//DTD SVG 1.1//EN" "http://www.w3.org/Graphics/SVG/1.1/DTD/svg11.dtd">
<svg xmlns="http://www.w3.org/2000/svg" version="1.1" width="400px" height="400px" style="shape-rendering:geometricPrecision; text-rendering:geometricPrecision; image-rendering:optimizeQuality; fill-rule:evenodd; clip-rule:evenodd" xmlns:xlink="http://www.w3.org/1999/xlink">
<g><path style="opacity:1" fill="#000000" d="M 176.5,-0.5 C 191.833,-0.5 207.167,-0.5 222.5,-0.5C 288.862,9.58323 339.362,43.2499 374,100.5C 387.133,124.403 395.633,149.736 399.5,176.5C 399.5,191.833 399.5,207.167 399.5,222.5C 386.529,301.97 342.862,357.137 268.5,388C 253.345,393.122 238.011,396.956 222.5,399.5C 207.167,399.5 191.833,399.5 176.5,399.5C 92.9237,385.752 36.757,339.085 8,259.5C 4.57012,247.164 1.73679,234.831 -0.5,222.5C -0.5,207.167 -0.5,191.833 -0.5,176.5C 13.1595,92.9994 59.8262,36.8328 139.5,8C 151.862,4.72517 164.196,1.89184 176.5,-0.5 Z M 267.5,222.5 C 255.637,232.519 243.304,242.019 230.5,251C 222.91,256.588 216.744,263.421 212,271.5C 208.695,287.23 215.195,296.064 231.5,298C 240.908,299.353 249.908,298.019 258.5,294C 280.256,282.577 297.09,266.077 309,244.5C 312.334,239.653 316.834,236.653 322.5,235.5C 329.385,236.219 333.051,240.052 333.5,247C 322.106,278.717 302.772,304.384 275.5,324C 255.612,337.259 233.946,341.592 210.5,337C 175.249,325.984 159.416,302.15 163,265.5C 165.764,256.637 170.098,248.637 176,241.5C 192.326,225.165 209.826,210.332 228.5,197C 240.404,187.011 249.237,174.845 255,160.5C 259.929,143.383 255.763,128.883 242.5,117C 222.137,103.592 199.803,98.5921 175.5,102C 154.036,105.072 134.703,113.072 117.5,126C 106.807,136.028 96.1405,146.028 85.5,156C 66.8503,161.007 61.3503,154.507 69,136.5C 94.4873,95.1501 131.321,70.3167 179.5,62C 206.73,57.7367 233.397,60.07 259.5,69C 278.773,75.9452 294.273,87.7785 306,104.5C 318.636,128.911 318.303,153.244 305,177.5C 295.59,195.077 283.09,210.077 267.5,222.5 Z M 166.5,147.5 C 174.113,147.047 181.447,148.214 188.5,151C 195.54,155.888 197.04,162.055 193,169.5C 191.207,172.295 189.04,174.795 186.5,177C 166.512,190.648 148.012,206.148 131,223.5C 112.828,246.548 109.828,271.548 122,298.5C 124.978,304.954 127.811,311.454 130.5,318C 130.172,321.829 128.172,324.329 124.5,325.5C 106.804,317.31 92.6376,304.976 82,288.5C 67.2387,259.627 68.2387,231.294 85,203.5C 104.747,173.902 131.914,155.235 166.5,147.5 Z"/></g>
</svg>
